<svg width="843" height="733" viewBox="0 0 843 733" fill="none" xmlns="http://www.w3.org/2000/svg">
<g clip-path="url(#clip0)">
<path fill-rule="evenodd" clip-rule="evenodd" d="M21.798 26.1773C11.2936 22.2244 -2.70995 26.8089 3.13169 37.2587C9.3891 48.449 32.5245 48.5872 45.5903 48.3654C44.2826 48.3134 40.0715 38.0518 38.6298 36.5012C34.378 31.9269 28.2558 28.6118 21.798 26.1773ZM142.828 226.806C145.478 228.526 143.044 226.968 142.828 226.806V226.806ZM11.6788 76.7909C5.53166 80.357 5.23847 86.6531 10.2599 90.9149C16.2392 95.9884 27.1573 95.8036 35.3073 95.3093C38.9939 95.0853 58.6789 93.8891 54.0129 91.4445C54.3719 91.5474 55.1214 91.7971 55.9236 92.1364C56.3552 93.3335 56.8086 94.5264 57.281 95.7139C57.1652 95.7653 57.0666 95.8204 56.9428 95.8715C57.0768 95.8269 57.1709 95.7787 57.2889 95.7335C62.0227 107.603 68.761 118.904 77.5841 129.478C74.283 128.491 70.8639 127.744 67.396 127.412C57.1266 126.426 35.5229 132.483 47.0101 142.859C58.0247 152.807 75.1725 142.135 87.673 140.663C99.7982 153.505 113.167 165.813 127.177 177.709C126.318 177.913 125.565 178.338 125.133 179C119.513 176.836 113.656 173.74 108.454 172.902C100.948 171.695 85.5565 170.962 79.8833 176.061C72.9055 182.331 80.3852 187.423 88.6291 188.625C100.583 190.369 116.231 185.937 127.733 182.942C129.049 183.119 130.485 182.827 131.343 182.028C131.597 181.965 131.851 181.903 132.099 181.842C146.287 193.681 161.017 205.128 175.658 216.324C175.502 216.318 175.346 216.311 175.184 216.304C171.365 214.404 167.268 212.844 162.828 212.027C152.556 210.127 140.47 210.118 132.135 215.758C123.831 221.374 120.89 231.196 129.48 237.503C146.674 250.126 172.008 221.344 180.681 220.142C195.559 231.401 211.291 241.92 227.271 252.227C225.456 251.808 223.595 251.5 221.672 251.361C206.002 250.223 169.223 264.801 188.453 279.145C205.211 291.644 224.607 267.586 238.112 259.173C253.17 268.779 268.31 278.32 283.025 288.232C274.999 286.615 267.243 286.377 258.64 288.35C249.737 290.394 235.372 295.496 241 304.617C246.724 313.893 263.974 309.672 272.958 306.727C277.859 305.121 287.684 299.7 296.31 297.416C319.791 314.24 340.129 332.77 355.527 354.598C365.14 368.227 372.434 382.788 377.569 397.754C380.846 407.307 387.304 423.35 386.011 435.783C392.173 410.897 381.031 381.008 369.029 358.764C357.993 338.309 341.477 320.352 322.132 304.189C326.987 293.108 367.848 277.126 343.42 266.832C330.449 261.388 317.163 270.42 314.328 279.986C312.38 286.56 315.347 294.819 318.496 301.199C312.411 296.272 306.084 291.503 299.565 286.893C290.556 280.521 281.331 274.334 272.018 268.225C287.365 257.283 301.889 226.004 281.312 220.889C250.927 213.356 265.557 256.022 267.677 264.019C268.279 264.046 268.748 263.908 269.093 263.612C268.922 264.344 268.724 265.127 268.484 265.917C250.659 254.285 232.569 242.882 215.076 230.973C216.652 230.089 219.158 226.711 221.127 224.913C225.571 220.86 229.823 216.626 232.93 211.884C237.839 204.391 242.574 192.439 229.561 188.032C215.41 183.23 208.685 196.748 208.586 204.812C208.519 210.389 210.521 215.687 211.563 221.154C211.889 222.859 210.634 230.544 213.695 227.238C213.55 228.457 213.529 229.34 213.601 229.965C210.46 227.817 207.344 225.644 204.247 223.457C204.391 223.18 204.497 222.879 204.521 222.53C204.687 220.126 201.5 219.2 199.264 219.904C195.178 216.957 191.132 213.973 187.158 210.93C178.735 204.483 170.19 197.851 161.704 191.079C163.545 189.878 162.813 188.216 164.535 186.942C166.254 185.671 169.639 184.967 171.661 183.786C176.745 180.814 180.961 176.484 184.01 172.223C189.044 165.182 195.549 150.411 180.844 147.055C165.686 143.591 157.993 157.809 157.018 166.699C156.828 168.421 158.527 183.938 159.828 189.573C144.126 176.986 128.683 163.927 114.691 150.641C118.934 150.612 130.961 144.015 133.393 142.216C139.325 137.826 148.756 128.125 138.355 122.992C129.107 118.439 117.707 125.033 113.753 131.442C113.103 132.498 110.811 142.32 110.632 146.727C104.841 141.093 99.3167 135.426 94.1772 129.74C90.7497 125.961 87.5468 122.081 84.55 118.118C85.2715 117.808 85.9501 117.267 86.5911 116.594C102.015 114.607 121.681 96.3439 103.563 89.9895C94.9373 86.968 85.5825 93.2051 81.357 98.3115C80.4913 99.3562 79.0891 104.609 77.948 108.751C69.3266 95.6249 62.7383 81.7282 57.7239 67.4797C59.0666 67.2267 60.2037 66.4483 60.3536 65.1094C67.8422 61.8696 73.7558 59.1718 78.9834 52.9416C82.2311 49.0719 88.0798 40.2306 78.5372 38.0827C66.1189 35.2881 58.3183 49.6825 57.3023 56.7725C57.184 57.5954 57.1884 59.989 57.2293 62.1825C56.7982 62.1379 56.3624 62.1429 55.9349 62.2002C53.0828 53.3774 50.8062 44.4411 48.9956 35.4897C55.7736 33.8342 56.9458 6.8201 52.4328 2.9736C42.3454 -5.63914 35.2287 6.80237 35.7672 13.378C36.4034 21.1312 41.0329 28.1841 46.5456 34.4434C47.1371 35.1063 46.9683 35.0741 47.1216 34.1508C47.2063 34.6072 47.4075 34.944 47.706 35.188C47.4215 39.2692 46.867 43.4476 47.1333 47.059C47.8966 57.4012 49.4841 67.8036 51.789 78.0126C52.3496 80.4955 52.9917 82.9582 53.7115 85.3996C48.2636 81.8773 40.9183 78.7479 38.0442 77.7693C30.5845 75.2319 19.0882 72.4922 11.6788 76.7909ZM386.886 435.818C386.54 439.424 385.682 442.727 384.081 445.45C385.282 442.349 386.203 439.127 386.886 435.818Z" fill="#CF8E07"/>
<g opacity="0.7">
<path opacity="0.7" fill-rule="evenodd" clip-rule="evenodd" d="M226.131 270.448C255.305 269.299 291.385 282.222 294.498 306.288C296.759 323.774 296.059 341.21 299.558 358.67C302.356 372.624 308.273 386.019 316.343 398.73C324.104 410.953 340.202 421.357 344.389 434.415C347.057 442.735 345.564 454.439 341.883 462.577C337.408 472.472 339.787 471.69 348.704 479.993C366.179 496.263 381.913 512.949 393.04 532.381C409.068 560.372 419.576 593.089 413.627 623.728C412.871 627.619 411.973 641.581 404.914 642.557C397.029 643.648 400.716 635.663 401.137 633.083C403.819 616.625 406.203 602.238 402.967 585.522C390.48 521.027 329.512 478.534 289.814 423.795C287.632 420.972 283.024 414.251 279.821 409.816C274.764 402.815 269.68 389.493 262.833 384.302C249.94 374.522 261.794 394.183 264.306 397.937C267.483 402.684 270.977 407.73 274.232 411.891C289.127 431.175 305.752 452.226 321.134 472.105C254.606 483.608 207.752 422.911 189.898 383.006C175.189 350.128 157.589 273.261 226.131 270.448Z" fill="#4CAABC"/>
<path opacity="0.7" fill-rule="evenodd" clip-rule="evenodd" d="M632.48 209.197C591.123 212.135 564.573 236.568 552.214 270.743C545.553 289.16 544.789 308.08 541.087 327.007C535.519 355.482 523.538 377.061 500.122 397.348C492.87 403.631 487.526 410.082 483.726 416.983C476.184 423.874 469.619 431.672 464.796 441.205C458.635 453.38 456.891 467.988 464.005 480.126C465.918 483.389 470.689 489.94 475.634 492.916C457.12 528.221 446.94 566.887 448.088 605.503C448.781 628.814 450.052 652.135 451.535 675.417C451.934 681.668 454.208 691.991 457.623 681.507C460.748 671.918 456.829 656.863 456.466 646.845C454.701 598.04 453.193 553.665 475.631 508.068C477.984 503.289 480.479 498.548 483.077 493.845C483.23 493.766 483.371 493.67 483.515 493.577C483.614 493.646 483.704 493.719 483.803 493.786C483.969 493.521 484.196 493.206 484.461 492.853C485.206 492.165 485.857 491.295 486.476 490.324C488.466 487.854 490.718 484.953 490.73 483.365C490.73 483.353 490.723 483.333 490.723 483.321C504.613 463.019 520.523 443.836 536.775 425.028C536.653 425.165 554.402 403.527 551.657 415.493C550.335 421.26 537.279 432.241 532.006 438.349C520.342 451.938 506.645 469.156 495.263 485.806C493.731 486.594 491.567 490.463 490.002 493.345C489.138 494.805 488.332 496.278 487.539 497.56C527.87 509.491 559.244 485.459 580.637 457.507C580.663 457.474 580.685 457.44 580.71 457.407C587.22 449.683 593.889 442.014 602.22 435.908C616.12 425.721 631.006 423.923 647.394 418.909C692.087 405.237 711.089 353.377 717.124 314.897C723.933 271.485 690.627 204.916 632.48 209.197Z" fill="#89C5CC"/>
<path opacity="0.7" fill-rule="evenodd" clip-rule="evenodd" d="M520.812 87.8797C470.758 127.414 446.575 182.25 427.427 233.801C406.041 291.377 391.915 349.843 391.373 409.705C391.018 449.035 389.608 488.61 392.633 527.895C393.706 541.846 395.538 555.823 398.452 569.624C398.692 570.759 405.212 601.576 411.45 594.394C414.997 590.311 404.767 562.426 403.994 557.782C399.645 531.623 398.635 505.272 398.847 478.924C399.196 435.543 397.51 392.385 403.304 349.163C404.168 342.71 404.851 335.932 406.871 329.619C409.015 322.908 406.284 325.838 413.27 323.181C420.057 320.597 428.445 320.966 435.487 317.726C463.422 304.871 477.712 271.851 488.834 250.186C501.555 225.41 509.287 198.99 515.462 172.917C519.996 153.761 523.238 134.721 525.073 115.318C525.65 109.203 525.685 102.808 527.269 96.7951C527.695 95.1731 529.836 92.3039 529.758 90.8675C529.594 87.8276 527.176 86.0397 526.978 83.4853C524.882 84.9163 522.825 86.3822 520.812 87.8797Z" fill="#6EC7AA"/>
<path opacity="0.7" fill-rule="evenodd" clip-rule="evenodd" d="M416.391 614.994H408.149C408.721 607.146 409.476 599.311 411.205 591.551C417.817 561.869 438.493 518.275 483.839 513.457C485.511 513.278 491.665 513.248 499.119 513.579C502.652 512.081 506.61 511.175 510.779 510.967C549.387 508.807 592.502 532.444 611.125 557.042C626.138 576.874 623.609 602.917 614.336 623.987C608.126 638.093 594.574 658.205 571.974 658.401C543.699 658.646 542.335 632.125 541.789 616.621C541.062 596.009 537.63 578.053 516.228 564.003C511.24 560.73 505.787 557.851 500.749 554.623C492.86 549.571 484.141 544.398 483.124 536.041C481.721 524.51 490.298 522.435 503.393 524.577C505.626 524.942 528.112 532.599 524.783 526.547C523.766 524.698 520.054 523.232 515.368 522.135C503.242 521.134 488.782 519.973 484.623 520.667C439.757 528.136 422.289 575.3 417.65 605.265C417.149 608.499 416.745 611.744 416.391 614.994Z" fill="#4CAABC"/>
</g>
</g>
<g clip-path="url(#clip1)">
<path fill-rule="evenodd" clip-rule="evenodd" d="M509.227 298.882C513.866 285.936 524.759 275.803 536.066 266.519C558.078 248.445 569.917 237.27 577.762 210.83C582.376 195.281 587.072 178.803 601.705 167.522C612.36 159.306 630.699 152.404 644.948 158.287C666.87 169.233 672.757 191.697 670.547 211.812C667.806 236.743 653.886 252.115 627.144 261.298C612.075 266.47 602.059 273.294 593.879 285.185C587.336 294.693 583.522 306.599 575.3 315.219C563.008 328.104 547.625 333.832 528.665 331.691C546.424 304.356 567.173 276.764 592.2 253.749C594.542 251.435 608.36 242.579 605.573 238.635C602.503 234.293 588.318 250.603 588.419 250.505C581.146 257.489 574.416 264.911 567.807 272.404C567.824 272.411 567.843 272.415 567.862 272.423C561.057 280.112 554.307 287.914 547.686 295.814C545.008 299.156 542.402 302.54 539.907 306.01C536.245 311.1 530.434 325.549 524.442 328.679C523.16 329.348 521.975 329.722 520.867 329.877C516.779 335.476 512.801 341.121 509.018 346.833C499.139 361.75 490.659 377.5 486.767 394.341C485.631 399.256 486.435 417.644 482.424 421.192C475.091 427.683 477.239 415.184 477.678 411.411C481.32 380.17 494.726 353.555 514.191 327.291C508.212 320.757 507.348 304.128 509.227 298.882Z" fill="#CF8E07"/>
<path fill-rule="evenodd" clip-rule="evenodd" d="M760.377 313.977C752.647 306.357 734.063 305.064 722.698 305.574C708.634 306.205 694.188 309.069 680.808 312.532C658.767 318.237 637.35 328.647 617.938 338.722C615.599 339.936 586.778 354.436 589.329 356.981C591.856 359.502 620.149 342.278 626.455 339.31C639.91 332.973 652.25 325.48 667.082 321.295C682.439 316.962 698.681 315.246 714.83 315.364C716.902 315.38 723.663 314.171 723.809 316.736C723.952 319.245 712.766 317.936 710.793 317.951C702.646 318.014 694.448 318.655 686.417 319.836C671.369 322.049 657.222 326.507 644.334 333.344C647.93 340.34 656.55 343.565 665.594 341.814C673.41 340.301 681.029 336.569 688.682 335.49C693.953 334.747 699.231 335.189 704.342 336.431C717.825 339.709 725.601 346.424 740.424 341.753C752.045 338.091 771.48 324.935 760.377 313.977Z" fill="#CF8E07"/>
<path fill-rule="evenodd" clip-rule="evenodd" d="M751.634 241.864H747.977C748.233 237.981 748.567 234.105 749.351 230.265C752.291 215.874 761.483 194.736 781.644 192.4C782.388 192.313 785.124 192.299 788.438 192.46C790.009 191.733 791.768 191.294 793.622 191.193C810.787 190.146 829.957 201.606 838.236 213.533C844.911 223.149 843.787 235.776 839.664 245.993C836.903 252.832 830.878 262.584 820.83 262.679C808.258 262.798 807.652 249.939 807.409 242.421C807.086 232.427 805.56 223.721 796.045 216.908C793.827 215.321 791.403 213.925 789.163 212.36C785.655 209.911 781.779 207.403 781.327 203.35C780.703 197.759 784.516 196.753 790.338 197.792C791.331 197.969 801.329 201.682 799.848 198.747C799.396 197.85 797.746 197.14 795.662 196.608C790.271 196.123 783.842 195.56 781.993 195.896C762.045 199.518 754.279 222.386 752.217 236.915C751.983 238.56 751.796 240.211 751.634 241.864H751.634Z" fill="#CF8E07"/>
</g>
<path d="M612.765 553.368C578.063 635.289 491.931 655.535 399.048 630.64C363.959 621.236 337.107 603.159 318.026 582.662C286.597 548.9 276.249 508.572 284.897 489.614C298.795 459.148 263.335 399.916 284.897 380.609C306.459 361.302 297.554 355.899 309.92 320.548C317.801 298.018 349.758 271.726 364.797 258.97C398.125 230.702 446.508 252.373 485.713 279.937C510.128 297.101 511.245 328.223 534.296 338.927C557.347 349.632 576.871 338.997 594.406 363.63C609.821 385.285 626.378 423.115 621.576 441.032C611.311 479.331 647.467 471.447 612.765 553.368Z" fill="#16333F"/>
<path d="M524.106 424.14C517.833 501.926 472.534 567.544 438.295 567.78C404.057 568.016 379.951 476.158 373.786 438.178C367.62 400.197 386.107 329.487 435.049 330.88C483.992 332.272 525.885 337.204 524.106 424.14Z" fill="#C81E2A"/>
<path d="M407.627 611.556C407.627 611.556 424.812 541.583 423.644 501.709L480.052 486.977C489.4 494.164 503.274 512.722 483.988 529.457C464.702 546.191 479.106 594.329 488.719 616.307L519.193 638.542C511.931 652.167 487.442 683.281 447.58 698.732C407.717 714.184 371.644 661.149 358.59 632.7C357.816 626.047 407.627 611.556 407.627 611.556Z" fill="#C81E2A"/>
<g clip-path="url(#clip2)">
<path fill-rule="evenodd" clip-rule="evenodd" d="M362.152 214.773C360.079 207.816 355.211 202.372 350.159 197.383C340.322 187.672 335.032 181.667 331.526 167.461C329.464 159.106 327.366 150.252 320.827 144.191C316.065 139.777 307.87 136.068 301.503 139.229C291.707 145.11 289.076 157.18 290.064 167.988C291.288 181.384 297.509 189.644 309.459 194.578C316.193 197.357 320.669 201.024 324.324 207.413C327.248 212.522 328.952 218.919 332.626 223.55C338.119 230.474 344.993 233.551 353.466 232.401C345.53 217.714 336.258 202.888 325.074 190.522C324.027 189.278 317.853 184.52 319.098 182.401C320.47 180.068 326.809 188.832 326.764 188.779C330.014 192.532 333.021 196.519 335.975 200.546C335.967 200.549 335.958 200.552 335.95 200.556C338.991 204.687 342.007 208.879 344.966 213.124C346.163 214.92 347.327 216.738 348.442 218.602C350.078 221.337 352.675 229.101 355.353 230.783C355.926 231.142 356.455 231.343 356.95 231.426C358.777 234.435 360.555 237.468 362.245 240.537C366.66 248.552 370.449 257.015 372.189 266.064C372.696 268.705 372.337 278.585 374.129 280.491C377.406 283.979 376.446 277.263 376.25 275.236C374.623 258.45 368.632 244.149 359.934 230.037C362.606 226.526 362.992 217.591 362.152 214.773Z" fill="#16333F"/>
<path fill-rule="evenodd" clip-rule="evenodd" d="M249.921 222.883C253.376 218.789 261.68 218.094 266.759 218.368C273.044 218.707 279.499 220.246 285.478 222.107C295.328 225.172 304.898 230.765 313.573 236.179C314.618 236.832 327.497 244.622 326.357 245.99C325.228 247.344 312.585 238.09 309.767 236.495C303.754 233.09 298.24 229.064 291.612 226.815C284.749 224.487 277.491 223.565 270.275 223.629C269.349 223.637 266.328 222.987 266.263 224.366C266.199 225.714 271.197 225.01 272.079 225.018C275.72 225.052 279.383 225.397 282.972 226.031C289.696 227.22 296.018 229.616 301.777 233.29C300.17 237.048 296.318 238.781 292.277 237.841C288.784 237.027 285.379 235.022 281.959 234.442C279.604 234.043 277.246 234.281 274.961 234.948C268.937 236.709 265.462 240.318 258.838 237.808C253.645 235.84 244.96 228.771 249.921 222.883Z" fill="#16333F"/>
<path fill-rule="evenodd" clip-rule="evenodd" d="M253.828 184.136H255.463C255.348 182.05 255.199 179.967 254.849 177.904C253.535 170.171 249.427 158.814 240.418 157.558C240.085 157.512 238.863 157.504 237.382 157.59C236.68 157.2 235.894 156.964 235.065 156.91C227.395 156.347 218.829 162.505 215.129 168.913C212.146 174.08 212.648 180.865 214.491 186.354C215.724 190.029 218.417 195.269 222.907 195.32C228.525 195.384 228.796 188.474 228.904 184.435C229.049 179.065 229.731 174.387 233.983 170.727C234.974 169.874 236.057 169.124 237.058 168.283C238.626 166.967 240.358 165.619 240.56 163.442C240.838 160.438 239.134 159.897 236.533 160.455C236.089 160.55 231.622 162.545 232.283 160.968C232.485 160.487 233.223 160.105 234.154 159.819C236.563 159.558 239.436 159.256 240.262 159.437C249.176 161.383 252.646 173.67 253.568 181.477C253.672 182.361 253.756 183.248 253.828 184.136H253.828Z" fill="#16333F"/>
</g>
<defs>
<clipPath id="clip0">
<rect width="718" height="733" fill="white"/>
</clipPath>
<clipPath id="clip1">
<rect width="367" height="268" fill="white" transform="matrix(-1 0 0 1 843 156)"/>
</clipPath>
<clipPath id="clip2">
<rect width="164" height="144" fill="white" transform="translate(213 138)"/>
</clipPath>
</defs>
</svg>
