<svg width="1057" height="1080" viewBox="0 0 1057 1080" fill="none" xmlns="http://www.w3.org/2000/svg">
<g id="Instagram post - 3" clip-path="url(#clip0)">
<g id="blob">
<path id="blob_2" fill-rule="evenodd" clip-rule="evenodd" d="M147.952 749.075C150.681 655.892 196.42 592.79 220.198 516.117C238.427 428.063 220.23 400.781 238.285 312.715C253.599 238.021 357.608 192.008 438.068 166.804C515.347 142.597 598.133 152.866 669.121 177.759C730.864 199.411 778.021 244.48 809.073 296.903C834.494 339.818 795.615 405.184 827.034 444.347C872.999 501.641 1004.32 487.934 1019.78 559.543C1033.02 620.887 929.964 663.071 886.023 717.544C841.584 772.635 820.896 843.443 759.239 882.529C694.385 923.642 613.857 942.591 539.892 936.968C466.944 931.423 416.081 881.653 353.586 851.694C283.152 817.928 145.737 824.711 147.952 749.075Z" fill="#CF8E07"/>
</g>
<g id="head">
<path id="Ellipse 3" d="M515.463 381.846C506.905 400.258 483.039 403.697 456.633 396.62C430.227 389.543 415.641 362.857 422.188 355.811C426.727 350.927 424.852 339.443 430.622 335.296C436.393 331.148 434.083 331.541 437.044 323.558C438.931 318.47 437.667 313.067 441.702 310.338C457.493 299.658 489.286 326.967 492.991 327.128C495.771 327.248 515.766 344.657 513.436 353.35C511.106 362.043 524.022 363.434 515.463 381.846Z" fill="#16333F"/>
<path id="Ellipse 1" d="M494.382 328.748C488.583 351.346 473.022 371.13 462.922 369.46C452.823 367.791 440.947 343.525 445.887 318.003C450.827 292.48 466.464 274.138 480.812 277.035C495.161 279.931 499.322 303.225 494.382 328.748Z" fill="#C81E2A"/>
<path id="Rectangle 8" d="M485.581 252.941L546.663 312.331L470.213 316.382L394.479 292.906L485.581 252.941Z" fill="#16333F"/>
<path id="Vector 4" d="M528.687 301.987C529.215 295.609 520.873 287.292 516.261 282.395L521.536 285.34C523.904 287.042 526.729 289.282 529.347 294.014C531.966 298.747 532.446 317.182 538.044 328.349L524.349 342.267C524.596 339.277 528.159 308.365 528.687 301.987Z" fill="#FDC128"/>
<path id="Subtract" fill-rule="evenodd" clip-rule="evenodd" d="M500.084 336.712C493.012 327.913 481.659 320.599 467.378 316.642C457.547 313.918 447.531 313.118 438.158 313.983C446.048 294.572 464.712 283.477 481.151 288.978C498.086 294.646 506.383 315.823 500.084 336.712Z" fill="#16333F"/>
</g>
<g id="body">
<g id="Group 3">
<path id="Leg" fill-rule="evenodd" clip-rule="evenodd" d="M461.257 564.905L519.729 784.874L562.39 947.002H593.505L548.172 564.905H461.257Z" fill="#6EC7AA"/>
<path id="Leg_2" fill-rule="evenodd" clip-rule="evenodd" d="M445.572 515C444.222 643.181 439.619 713.095 438.201 724.741C436.784 736.387 415.352 810.473 373.904 947H406.08C458.845 816.026 488.3 741.939 494.445 724.741C500.589 707.542 519.552 637.629 548.114 515H445.572Z" fill="#6EC7AA"/>
<path id="Vector 2" d="M373.049 961.592C371.562 956.728 383.956 947 383.956 947H396.846C398.333 949.027 401.308 954.783 401.308 961.592C401.308 968.402 374.537 966.456 373.049 961.592Z" fill="#16333F"/>
<path id="Vector 3" d="M593.018 961.592C594.403 956.728 582.864 947 582.864 947H570.863C569.478 949.027 566.709 954.783 566.709 961.592C566.709 968.402 591.634 966.456 593.018 961.592Z" fill="#16333F"/>
</g>
<g id="Group 5">
<path id="Vector 1" d="M460.731 393.522C469.175 392.25 464.25 369.141 460.731 357.745L475.809 349C479.075 350.325 484.553 354.565 480.332 360.925C476.11 367.286 484.101 380.006 488.624 385.571L499.178 389.547C498.173 394.052 493.6 404.97 483.347 412.602C473.095 420.235 458.47 407.832 452.439 400.677C451.685 398.822 452.288 394.794 460.731 393.522Z" fill="#C81E2A"/>
</g>
</g>
<g id="torso">
<g id="humaaans/standing 17">
<g id="humaaan 1">
<g id="Body/Lab Coat">
<path id="Skin" fill-rule="evenodd" clip-rule="evenodd" d="M628.293 481.423L678.426 428.89C692.574 420.814 704.029 412.263 712.792 403.237C714.698 400.295 716.611 394.81 706.893 398.045C697.174 401.279 686.82 404.207 684.714 400.873C682.609 397.539 687.704 391.697 683.947 387.422C681.441 384.572 674.429 394.957 662.911 418.576L613.004 456.711L628.293 481.423ZM352.149 533.526L346.861 471.378C338.186 470.995 289.807 407.344 286.77 403.183C279.937 393.822 283.908 374.897 285.124 365.026C271.945 363.141 278.867 383.716 262.164 381.056C246.919 378.627 233.391 369.652 220.713 385.071C219.154 386.967 218.37 392.454 224.43 394.576C239.53 399.862 262.074 410.374 265.981 414.974C271.309 421.248 316.719 463.309 352.149 533.526Z" fill="#C81E2A"/>
<path id="Coat Front" fill-rule="evenodd" clip-rule="evenodd" d="M448.237 388.215L463.993 387.497C470.206 406.21 481.231 769.567 525.147 849.308L373.946 849.872C364.798 770.851 404.388 596.47 419.84 512.301C398.832 541.334 391.892 604.812 353.597 637.781L333.2 460.117C387.205 431.893 382.639 451.899 445.283 389.565C445.375 389.161 445.685 389.464 445.776 389.063L446.985 388.456C447.37 388.078 447.362 388.433 447.749 388.057L448.237 388.215Z" fill="#16333F"/>
<path id="Coat Front_2" fill-rule="evenodd" clip-rule="evenodd" d="M493.692 383.789L478.235 385.58C478.223 405.486 492.529 746.732 566.082 842.27L710.479 789.439C694.228 711.795 601.344 562.898 560.001 489.656C589.217 509.034 615.901 566.04 662.851 582.623L629.425 439.161C568.989 432.933 497.425 385.008 496.935 384.51C496.444 384.012 496.444 384.012 495.952 384.014C495.46 384.016 495.906 383.781 495.654 383.782C495.402 383.782 495.461 383.782 494.654 383.785L493.692 383.789Z" fill="#16333F"/>
</g>
</g>
</g>
</g>
</g>
<defs>
<clipPath id="clip0">
<rect width="1057" height="1080" fill="white"/>
</clipPath>
</defs>
</svg>
