<svg width="1640" height="720" viewBox="0 0 1640 720" fill="none" xmlns="http://www.w3.org/2000/svg">
<g clip-path="url(#clip0)">
<rect width="1640" height="720" fill="white"/>
<path fill-rule="evenodd" clip-rule="evenodd" d="M301.273 1267.93C92.4804 1139.66 -353.94 1215.7 -503.243 1030.47C-663.217 832 -688.127 429.662 -594.214 232.303C-426.762 -119.6 -118.503 53.1172 26.6859 -103.654C271.258 -367.736 215.217 -658.488 508.216 -686.443C793.7 -713.682 957.326 -463.876 1123.91 -193.45C1287.19 71.6044 1793.86 -125.407 1981.05 113.139C2271.8 532.908 2076.75 656.268 1976.38 892.909C1888.8 1099.42 1647.74 1183.8 1467.12 1324.9C1291.24 1462.3 1184.73 1719.7 933.693 1707.43C681.407 1695.1 525.869 1405.91 301.273 1267.93Z" fill="#CF8E07"/>
<path d="M970.5 804.5L1194.66 144.759L1199.5 134.101L1178.51 85.0117L1142.5 65L1128.5 67.5L-14 468.5V822.5L970.5 804.5Z" fill="#FDC128"/>
<g clip-path="url(#clip1)">
<path d="M1209.5 55.5705L1237.19 27.9091C1241.85 23.2569 1249.4 23.2554 1254.06 27.9056C1254.06 27.9068 1254.06 27.9079 1254.06 27.9091L1327.77 101.54C1332.25 106.007 1334.76 112.064 1334.76 118.38V606.068" stroke="#16333F" stroke-width="8"/>
<path fill-rule="evenodd" clip-rule="evenodd" d="M1226.86 108.113C1245.69 89.3176 1245.37 58.5273 1226.16 39.341C1206.94 20.1547 1176.1 19.8378 1157.28 38.6332L1128.35 67.5089L1128.58 67.7343C1133.07 64.9532 1151.2 77.2732 1169.87 95.9144C1187.86 113.873 1199.97 131.333 1198.34 136.593L1226.86 108.113Z" fill="#16333F"/>
<ellipse cx="1335" cy="615.5" rx="25" ry="15.5" fill="#16333F"/>
</g>
<path fill-rule="evenodd" clip-rule="evenodd" d="M1465.24 226.245C1472.28 218.159 1477.03 208.249 1476.24 197.146C1473.95 165.153 1428.49 172.191 1419.64 188.338C1410.8 204.485 1411.85 245.444 1423.28 248.33C1427.84 249.481 1437.55 246.662 1447.43 240.827L1447.43 254.855L1472.09 250.531L1465.24 226.245Z" fill="#C81E2A"/>
<path fill-rule="evenodd" clip-rule="evenodd" d="M1403.42 165.953C1404.17 163.341 1406.21 161.105 1408.96 160.442C1409.63 160.281 1410.32 160.216 1411 160.243C1411.25 160.253 1411.32 160.322 1411.43 160.154C1411.52 160.029 1411.52 159.723 1411.56 159.577C1411.67 159.12 1411.8 158.669 1411.97 158.229C1412.55 156.731 1413.51 155.405 1414.68 154.288C1416.86 152.198 1419.8 150.755 1422.86 150.494C1424.54 150.351 1426.2 150.618 1427.78 151.152C1428.6 151.428 1429.4 151.772 1430.17 152.152C1430.41 152.267 1431.16 152.828 1431.4 152.791C1431.66 152.751 1432.17 152.122 1432.38 151.964C1434.98 150.013 1438.19 149.246 1441.42 149.269C1445.07 149.295 1448.59 149.474 1451.63 151.654C1452.28 152.116 1452.89 152.621 1453.47 153.153C1453.78 153.433 1454.08 153.724 1454.36 154.026C1454.54 154.209 1454.7 154.396 1454.86 154.587C1455.14 154.913 1455.09 155.02 1455.47 154.793C1456.94 153.921 1458.64 153.513 1460.35 153.719C1461.36 153.841 1462.35 154.14 1463.29 154.533C1463.61 154.667 1464.35 155.2 1464.69 155.206C1465.03 155.211 1465.75 154.716 1466.1 154.59C1467.98 153.911 1470.01 153.743 1471.98 154.057C1474.02 154.381 1476.02 155.177 1477.75 156.278C1478.58 156.807 1479.3 157.393 1479.88 158.18C1480.13 158.52 1480.36 158.88 1480.65 159.195C1480.81 159.379 1481.14 159.568 1481.23 159.802C1481.18 159.662 1483.46 158.8 1483.68 158.745C1484.82 158.452 1485.99 158.511 1487.11 158.873C1489.23 159.554 1491.04 161.081 1492.53 162.647C1493.3 163.451 1493.97 164.339 1494.54 165.286C1494.81 165.74 1495.06 166.206 1495.29 166.683C1495.4 166.914 1495.48 167.203 1495.62 167.41C1495.81 167.678 1495.94 167.683 1496.28 167.8C1498.01 168.393 1499.58 169.398 1500.78 170.754C1501.99 172.127 1502.78 173.817 1503.11 175.597C1503.13 175.702 1503.14 176.137 1503.21 176.193C1503.29 176.272 1503.64 176.237 1503.77 176.252C1504.23 176.304 1504.68 176.382 1505.12 176.486C1505.95 176.676 1506.75 176.957 1507.5 177.324C1510.46 178.755 1512.57 181.436 1513.6 184.454C1514.68 187.621 1514.66 191.25 1513.37 194.357C1513.16 194.859 1512.91 195.347 1512.62 195.808C1512.44 196.091 1512.38 196.091 1512.5 196.388C1512.63 196.718 1512.86 197.039 1513.02 197.362C1513.52 198.415 1513.87 199.532 1514.1 200.673C1514.46 202.544 1514.64 204.511 1514.28 206.396C1514.12 207.272 1513.82 208.128 1513.38 208.908C1513.15 209.305 1512.89 209.682 1512.59 210.031C1512.43 210.212 1512.27 210.385 1512.1 210.551C1512 210.646 1511.87 210.729 1511.78 210.834C1511.58 211.092 1511.54 210.88 1511.64 211.259C1511.79 211.788 1512.12 212.31 1512.33 212.825C1512.54 213.356 1512.73 213.894 1512.91 214.437C1513.26 215.538 1513.56 216.658 1513.75 217.797C1514.11 219.984 1514.04 222.315 1512.99 224.323C1512.53 225.182 1511.89 225.935 1511.1 226.521C1510.72 226.808 1510.3 227.055 1509.86 227.258C1509.64 227.362 1509.35 227.407 1509.25 227.62C1509.14 227.848 1509.3 228.303 1509.34 228.558C1509.66 230.783 1509.83 233.119 1509.15 235.3C1508.53 237.308 1507.16 239.081 1505.38 240.255C1501.94 242.532 1497.29 242.404 1493.66 240.581C1492.72 240.105 1491.84 239.515 1491.05 238.819C1489.04 241.466 1484.91 241.382 1481.98 240.628C1478.32 239.689 1475.39 237.199 1473.7 233.928C1471.39 236.684 1466.54 235.79 1464.94 232.801C1464.55 232.069 1464.31 231.263 1464.2 230.447C1464.14 230.018 1464.18 229.585 1464.13 229.16C1464.07 228.617 1463.7 228.09 1463.49 227.566C1463.08 226.545 1462.82 225.49 1462.81 224.389C1462.8 223.814 1462.88 223.253 1462.93 222.683C1462.98 222.169 1462.84 221.691 1462.76 221.184C1463.69 221.335 1464.84 221.088 1465.72 220.821C1466.59 220.56 1467.4 219.872 1468.01 219.244C1469.43 217.784 1470.3 215.871 1470.89 213.967C1472.19 209.789 1471.66 204.775 1467.37 202.482C1465.37 201.413 1459.38 201.417 1457 201.945C1454.5 202.5 1451.66 207.911 1451.52 208.419C1451.43 208.734 1451.48 209.123 1451.18 209.333C1450.53 209.794 1449.46 208.994 1448.98 208.599C1448.16 207.917 1447.57 207.01 1447.06 206.091C1445.95 204.088 1445.05 201.94 1444.42 199.748C1443.93 198.057 1443.62 196.314 1442.98 194.667C1442.35 193.028 1441.35 191.563 1439.79 190.634C1438.1 189.624 1436.16 189.092 1434.3 188.457C1432.46 187.828 1430.65 187.059 1429.22 185.724C1428.91 185.431 1428.61 185.119 1428.35 184.773C1428.15 184.5 1427.96 183.978 1427.65 183.805C1427.18 183.536 1426.49 184.236 1426.08 184.49C1424.07 185.744 1422.39 187.492 1421.03 189.402C1419.68 191.302 1418.58 193.13 1417.68 195.251C1417.01 196.825 1416.59 198.839 1415.42 200.129C1414.9 200.705 1411 201.053 1409.74 200.55C1408.48 200.048 1407.07 198.742 1406.65 197.925C1406.21 197.087 1406.11 196.168 1406.3 195.251C1406.4 194.712 1406.63 194.208 1406.75 193.679C1406.85 193.234 1406.94 192.814 1407.16 192.406C1407.58 191.634 1408.3 191.079 1409.16 190.847C1408.26 190.035 1407.52 189.065 1407.01 187.98C1406.47 186.853 1406.02 185.482 1405.89 184.245C1405.78 183.241 1405.94 182.2 1406.51 181.336C1407.1 180.43 1408.14 179.839 1409.04 179.274C1407.66 178.217 1406.48 176.932 1405.51 175.509C1403.62 172.741 1402.46 169.253 1403.42 165.953Z" fill="#16333F"/>
<path fill-rule="evenodd" clip-rule="evenodd" d="M1580.1 470.685H1404.6C1391.11 470.685 1380.18 481.394 1380.18 494.605V632.141C1380.18 645.352 1391.11 656.061 1404.6 656.061H1580.1C1593.59 656.061 1604.52 645.352 1604.52 632.141V494.605C1604.52 481.394 1593.59 470.685 1580.1 470.685ZM1555.68 512.544C1559.05 512.544 1561.79 515.222 1561.79 518.524V608.222C1561.79 611.524 1559.05 614.202 1555.68 614.202H1429.02C1425.65 614.202 1422.91 611.524 1422.91 608.222V518.524C1422.91 515.222 1425.65 512.544 1429.02 512.544H1555.68Z" fill="#16333F"/>
<path fill-rule="evenodd" clip-rule="evenodd" d="M1271.05 651.067C1290.61 608.672 1304.75 571.757 1310.42 552.28C1320.14 518.931 1327.54 489.586 1329.4 478.627C1333.86 452.495 1295.13 450.973 1290.01 463.96C1282.26 483.618 1268.73 548.203 1252.47 645.756L1271.05 651.067ZM1497.86 518.021C1479.92 511.074 1417.1 489.335 1386.79 483.185C1378.09 481.418 1369.65 479.776 1361.71 478.292C1338.13 473.881 1325.91 515.56 1348.63 518.762C1405.19 526.738 1485.39 534.973 1492.25 535.898C1501.87 537.193 1509.14 522.387 1497.86 518.021Z" fill="#C81E2A"/>
<path fill-rule="evenodd" clip-rule="evenodd" d="M1347.24 466.823L1444.28 418.432V407.897H1432.74C1338.86 431.332 1290.88 446.35 1288.82 452.952C1288.8 453.023 1288.77 453.094 1288.76 453.165C1288.71 453.226 1288.66 453.287 1288.62 453.349C1270.01 478.414 1258.87 600.787 1255.21 609.95L1290.86 615.161C1304.5 565.62 1348.13 531.109 1346.98 471.775C1347.29 470.035 1347.37 468.384 1347.24 466.823Z" fill="#3E93A4"/>
<path fill-rule="evenodd" clip-rule="evenodd" d="M1436.22 495.562C1445.09 493.821 1453.27 492.267 1460.27 491.065C1505.46 483.3 1518.64 459.602 1510.85 407.897H1427.58C1413.98 411.725 1343.29 440.763 1306.62 456.209C1282.34 466.431 1289.99 503.282 1303.74 512.872C1303.81 513.461 1304.06 513.86 1304.5 514.039C1378.45 544.062 1436.95 528.309 1456.49 533.342L1465.53 505.411L1436.22 495.562Z" fill="#4CAABC"/>
<path fill-rule="evenodd" clip-rule="evenodd" d="M1495.22 512.923C1499.42 512.969 1502.35 513.389 1504.01 514.183C1506.04 515.147 1508.76 516.972 1512.19 519.656C1510.61 522.556 1496.36 548.624 1469.45 597.86C1462.9 597.299 1460.6 594.727 1462.56 590.142C1464.52 585.556 1466.12 581.732 1467.35 578.67L1474.1 536.069C1474.23 535.249 1474.94 534.551 1475.67 534.509C1475.69 534.508 1475.7 534.508 1475.71 534.507L1481.57 534.358C1485.32 531.034 1487.89 528.105 1489.27 525.571C1490.4 523.512 1491.28 520.348 1491.92 516.078L1491.92 516.078C1492.16 514.44 1493.55 513.029 1495.03 512.928C1495.09 512.924 1495.16 512.922 1495.22 512.923Z" fill="#16333F"/>
<path fill-rule="evenodd" clip-rule="evenodd" d="M1279.95 643.207C1281.66 647.672 1282.51 651.012 1282.51 653.229C1282.51 655.925 1282.05 659.858 1281.14 665.03C1277.95 665.03 1249.25 665.03 1195.06 665.03C1192.83 657.787 1194.12 653.876 1198.94 653.298C1203.76 652.721 1207.76 652.199 1210.95 651.734L1250.95 634.262C1251.72 633.926 1252.63 634.265 1252.97 635.019C1252.97 635.032 1252.98 635.045 1252.99 635.058L1255.56 641.169C1260.02 643.208 1263.64 644.228 1266.43 644.228C1268.7 644.228 1271.83 643.331 1275.82 641.538L1275.82 641.538C1277.35 640.85 1279.17 641.509 1279.87 643.01C1279.9 643.075 1279.93 643.14 1279.95 643.207Z" fill="#16333F"/>
<path fill-rule="evenodd" clip-rule="evenodd" d="M1355.7 384.161L1312.47 425.474C1299.89 430.73 1289.59 436.534 1281.55 442.885C1279.74 445.02 1277.78 449.111 1286.28 447.28C1294.78 445.45 1303.8 443.899 1305.4 446.607C1307 449.315 1302.29 453.465 1305.24 457.009C1307.21 459.372 1313.83 451.856 1325.1 434.462L1370.06 408.499L1355.7 384.161ZM1547.58 389.987L1515.69 390.11C1535.38 452.381 1546.01 485.421 1547.58 489.231C1551.11 497.804 1543.64 510.861 1540.44 517.877C1550.85 522.439 1549.74 505.543 1562.87 511.527C1574.86 516.989 1583.97 526.885 1597.82 518.516C1599.52 517.487 1601.39 513.613 1596.88 510.585C1585.65 503.043 1569.47 489.843 1567.28 485.498C1564.3 479.573 1557.73 447.736 1547.58 389.987Z" fill="#C81E2A"/>
<path fill-rule="evenodd" clip-rule="evenodd" d="M1506.53 373.861C1504.33 412.005 1496.69 476.622 1490.06 481.255L1495.74 477.239L1501.1 471.989L1504.57 467.356L1509.3 457.781L1512.45 443.882C1513.4 417.319 1510.85 399.008 1506.53 373.861Z" fill="black" fill-opacity="0.1"/>
<path d="M53.7295 615V584.43H63.1357C65.8232 584.43 68.2238 585.039 70.3374 586.256C72.465 587.46 74.1237 589.182 75.3135 591.421C76.5033 593.647 77.0981 596.181 77.0981 599.022V600.429C77.0981 603.27 76.5103 605.797 75.3345 608.008C74.1727 610.22 72.528 611.935 70.4004 613.152C68.2728 614.37 65.8722 614.986 63.1987 615H53.7295ZM60.0283 589.532V609.94H63.0728C65.5363 609.94 67.4189 609.135 68.7207 607.525C70.0225 605.916 70.6873 603.613 70.7153 600.618V599.001C70.7153 595.894 70.0715 593.542 68.7837 591.946C67.4959 590.337 65.6133 589.532 63.1357 589.532H60.0283ZM91.7534 615.42C88.422 615.42 85.7065 614.398 83.6069 612.354C81.5213 610.311 80.4785 607.588 80.4785 604.187V603.599C80.4785 601.318 80.9194 599.281 81.8013 597.489C82.6831 595.684 83.9289 594.298 85.5386 593.332C87.1623 592.352 89.0099 591.862 91.0815 591.862C94.189 591.862 96.6315 592.842 98.4092 594.802C100.201 596.761 101.097 599.54 101.097 603.137V605.615H86.6304C86.8263 607.098 87.4142 608.288 88.394 609.184C89.3879 610.08 90.6406 610.528 92.1523 610.528C94.4899 610.528 96.3166 609.681 97.6323 607.987L100.614 611.326C99.7039 612.613 98.4722 613.621 96.9185 614.349C95.3647 615.063 93.6431 615.42 91.7534 615.42ZM91.0605 596.775C89.8568 596.775 88.877 597.181 88.1211 597.993C87.3792 598.805 86.9033 599.967 86.6934 601.479H95.1338V600.996C95.1058 599.652 94.7419 598.616 94.042 597.888C93.3421 597.146 92.3483 596.775 91.0605 596.775ZM112.771 607.588L116.991 592.282H123.332L115.668 615H109.873L102.209 592.282H108.55L112.771 607.588ZM136.181 615.42C132.85 615.42 130.134 614.398 128.035 612.354C125.949 610.311 124.906 607.588 124.906 604.187V603.599C124.906 601.318 125.347 599.281 126.229 597.489C127.111 595.684 128.357 594.298 129.966 593.332C131.59 592.352 133.438 591.862 135.509 591.862C138.617 591.862 141.059 592.842 142.837 594.802C144.629 596.761 145.524 599.54 145.524 603.137V605.615H131.058C131.254 607.098 131.842 608.288 132.822 609.184C133.816 610.08 135.068 610.528 136.58 610.528C138.918 610.528 140.744 609.681 142.06 607.987L145.042 611.326C144.132 612.613 142.9 613.621 141.346 614.349C139.792 615.063 138.071 615.42 136.181 615.42ZM135.488 596.775C134.285 596.775 133.305 597.181 132.549 597.993C131.807 598.805 131.331 599.967 131.121 601.479H139.562V600.996C139.534 599.652 139.17 598.616 138.47 597.888C137.77 597.146 136.776 596.775 135.488 596.775ZM155.393 615H149.304V582.75H155.393V615ZM159.466 603.431C159.466 601.178 159.9 599.169 160.768 597.405C161.635 595.642 162.881 594.277 164.505 593.311C166.143 592.345 168.039 591.862 170.195 591.862C173.26 591.862 175.759 592.8 177.69 594.676C179.636 596.551 180.721 599.099 180.945 602.318L180.987 603.872C180.987 607.357 180.014 610.157 178.068 612.271C176.123 614.37 173.512 615.42 170.237 615.42C166.961 615.42 164.344 614.37 162.384 612.271C160.439 610.171 159.466 607.315 159.466 603.704V603.431ZM165.534 603.872C165.534 606.028 165.94 607.679 166.751 608.827C167.563 609.961 168.725 610.528 170.237 610.528C171.707 610.528 172.854 609.968 173.68 608.848C174.506 607.714 174.919 605.909 174.919 603.431C174.919 601.318 174.506 599.68 173.68 598.518C172.854 597.356 171.693 596.775 170.195 596.775C168.711 596.775 167.563 597.356 166.751 598.518C165.94 599.666 165.534 601.451 165.534 603.872ZM205.174 603.851C205.174 607.35 204.376 610.157 202.781 612.271C201.199 614.37 199.057 615.42 196.356 615.42C194.06 615.42 192.206 614.622 190.792 613.026V623.734H184.724V592.282H190.351L190.561 594.508C192.031 592.744 193.948 591.862 196.314 591.862C199.113 591.862 201.29 592.898 202.844 594.97C204.397 597.041 205.174 599.897 205.174 603.536V603.851ZM199.106 603.41C199.106 601.297 198.729 599.666 197.973 598.518C197.231 597.37 196.146 596.796 194.718 596.796C192.815 596.796 191.506 597.524 190.792 598.98V608.281C191.534 609.779 192.857 610.528 194.76 610.528C197.658 610.528 199.106 608.155 199.106 603.41ZM219.41 615.42C216.078 615.42 213.363 614.398 211.263 612.354C209.178 610.311 208.135 607.588 208.135 604.187V603.599C208.135 601.318 208.576 599.281 209.458 597.489C210.339 595.684 211.585 594.298 213.195 593.332C214.819 592.352 216.666 591.862 218.738 591.862C221.845 591.862 224.288 592.842 226.065 594.802C227.857 596.761 228.753 599.54 228.753 603.137V605.615H214.287C214.483 607.098 215.07 608.288 216.05 609.184C217.044 610.08 218.297 610.528 219.809 610.528C222.146 610.528 223.973 609.681 225.289 607.987L228.27 611.326C227.36 612.613 226.128 613.621 224.575 614.349C223.021 615.063 221.299 615.42 219.41 615.42ZM218.717 596.775C217.513 596.775 216.533 597.181 215.777 597.993C215.035 598.805 214.56 599.967 214.35 601.479H222.79V600.996C222.762 599.652 222.398 598.616 221.698 597.888C220.998 597.146 220.005 596.775 218.717 596.775ZM244.983 597.972C244.157 597.86 243.429 597.804 242.799 597.804C240.504 597.804 238.999 598.581 238.285 600.135V615H232.217V592.282H237.949L238.117 594.991C239.335 592.905 241.022 591.862 243.177 591.862C243.849 591.862 244.479 591.953 245.067 592.135L244.983 597.972ZM265.328 604.229V615H259.029V584.43H270.955C273.251 584.43 275.266 584.85 277.002 585.689C278.752 586.529 280.095 587.726 281.033 589.28C281.971 590.819 282.44 592.576 282.44 594.55C282.44 597.545 281.411 599.911 279.354 601.646C277.31 603.368 274.475 604.229 270.85 604.229H265.328ZM265.328 599.127H270.955C272.621 599.127 273.888 598.735 274.755 597.951C275.637 597.167 276.078 596.048 276.078 594.592C276.078 593.094 275.637 591.883 274.755 590.959C273.874 590.036 272.656 589.56 271.102 589.532H265.328V599.127ZM285.148 603.431C285.148 601.178 285.582 599.169 286.45 597.405C287.318 595.642 288.564 594.277 290.188 593.311C291.825 592.345 293.722 591.862 295.877 591.862C298.943 591.862 301.441 592.8 303.373 594.676C305.319 596.551 306.403 599.099 306.627 602.318L306.669 603.872C306.669 607.357 305.697 610.157 303.751 612.271C301.805 614.37 299.195 615.42 295.919 615.42C292.644 615.42 290.027 614.37 288.067 612.271C286.121 610.171 285.148 607.315 285.148 603.704V603.431ZM291.216 603.872C291.216 606.028 291.622 607.679 292.434 608.827C293.246 609.961 294.408 610.528 295.919 610.528C297.389 610.528 298.537 609.968 299.363 608.848C300.189 607.714 300.602 605.909 300.602 603.431C300.602 601.318 300.189 599.68 299.363 598.518C298.537 597.356 297.375 596.775 295.877 596.775C294.394 596.775 293.246 597.356 292.434 598.518C291.622 599.666 291.216 601.451 291.216 603.872ZM323.172 597.972C322.347 597.86 321.619 597.804 320.989 597.804C318.693 597.804 317.188 598.581 316.475 600.135V615H310.407V592.282H316.139L316.307 594.991C317.524 592.905 319.211 591.862 321.367 591.862C322.039 591.862 322.668 591.953 323.256 592.135L323.172 597.972ZM334.426 586.697V592.282H338.311V596.733H334.426V608.071C334.426 608.911 334.587 609.513 334.909 609.877C335.231 610.241 335.847 610.423 336.757 610.423C337.429 610.423 338.024 610.374 338.542 610.276V614.874C337.352 615.238 336.127 615.42 334.867 615.42C330.612 615.42 328.442 613.271 328.358 608.974V596.733H325.041V592.282H328.358V586.697H334.426ZM343.35 615V596.733H339.969V592.282H343.35V590.351C343.35 587.803 344.077 585.829 345.533 584.43C347.003 583.016 349.054 582.309 351.685 582.309C352.525 582.309 353.554 582.449 354.771 582.729L354.708 587.432C354.205 587.306 353.589 587.243 352.861 587.243C350.579 587.243 349.438 588.314 349.438 590.456V592.282H353.953V596.733H349.438V615H343.35ZM356.157 603.431C356.157 601.178 356.591 599.169 357.459 597.405C358.327 595.642 359.573 594.277 361.196 593.311C362.834 592.345 364.731 591.862 366.886 591.862C369.952 591.862 372.45 592.8 374.382 594.676C376.327 596.551 377.412 599.099 377.636 602.318L377.678 603.872C377.678 607.357 376.705 610.157 374.76 612.271C372.814 614.37 370.204 615.42 366.928 615.42C363.653 615.42 361.035 614.37 359.076 612.271C357.13 610.171 356.157 607.315 356.157 603.704V603.431ZM362.225 603.872C362.225 606.028 362.631 607.679 363.443 608.827C364.255 609.961 365.417 610.528 366.928 610.528C368.398 610.528 369.546 609.968 370.372 608.848C371.197 607.714 371.61 605.909 371.61 603.431C371.61 601.318 371.197 599.68 370.372 598.518C369.546 597.356 368.384 596.775 366.886 596.775C365.403 596.775 364.255 597.356 363.443 598.518C362.631 599.666 362.225 601.451 362.225 603.872ZM387.819 615H381.73V582.75H387.819V615ZM399.241 615H393.152V592.282H399.241V615ZM392.795 586.403C392.795 585.493 393.096 584.745 393.698 584.157C394.314 583.569 395.147 583.275 396.197 583.275C397.233 583.275 398.058 583.569 398.674 584.157C399.29 584.745 399.598 585.493 399.598 586.403C399.598 587.327 399.283 588.083 398.653 588.671C398.037 589.259 397.219 589.553 396.197 589.553C395.175 589.553 394.349 589.259 393.719 588.671C393.103 588.083 392.795 587.327 392.795 586.403ZM403.314 603.431C403.314 601.178 403.748 599.169 404.616 597.405C405.484 595.642 406.73 594.277 408.354 593.311C409.991 592.345 411.888 591.862 414.043 591.862C417.109 591.862 419.607 592.8 421.539 594.676C423.485 596.551 424.569 599.099 424.793 602.318L424.835 603.872C424.835 607.357 423.863 610.157 421.917 612.271C419.971 614.37 417.361 615.42 414.085 615.42C410.81 615.42 408.193 614.37 406.233 612.271C404.287 610.171 403.314 607.315 403.314 603.704V603.431ZM409.382 603.872C409.382 606.028 409.788 607.679 410.6 608.827C411.412 609.961 412.574 610.528 414.085 610.528C415.555 610.528 416.703 609.968 417.529 608.848C418.355 607.714 418.768 605.909 418.768 603.431C418.768 601.318 418.355 599.68 417.529 598.518C416.703 597.356 415.541 596.775 414.043 596.775C412.56 596.775 411.412 597.356 410.6 598.518C409.788 599.666 409.382 601.451 409.382 603.872ZM53.9707 657V631.406H62.3379C65.1152 631.406 67.2012 631.98 68.5957 633.129C70.002 634.277 70.7051 635.977 70.7051 638.227C70.7051 639.422 70.3652 640.482 69.6855 641.408C69.0059 642.322 68.0801 643.031 66.9082 643.535C68.291 643.922 69.3809 644.66 70.1777 645.75C70.9863 646.828 71.3906 648.117 71.3906 649.617C71.3906 651.914 70.6465 653.719 69.1582 655.031C67.6699 656.344 65.5664 657 62.8477 657H53.9707ZM57.3457 645.029V654.24H62.918C64.4883 654.24 65.7246 653.836 66.627 653.027C67.541 652.207 67.998 651.082 67.998 649.652C67.998 646.57 66.3223 645.029 62.9707 645.029H57.3457ZM57.3457 642.322H62.4434C63.9199 642.322 65.0977 641.953 65.9766 641.215C66.8672 640.477 67.3125 639.475 67.3125 638.209C67.3125 636.803 66.9023 635.783 66.082 635.15C65.2617 634.506 64.0137 634.184 62.3379 634.184H57.3457V642.322ZM82.1133 652.236L86.543 637.98H90.0234L82.377 659.936C81.1934 663.1 79.3125 664.682 76.7344 664.682L76.1191 664.629L74.9062 664.4V661.764L75.7852 661.834C76.8867 661.834 77.7422 661.611 78.3516 661.166C78.9727 660.721 79.4824 659.906 79.8809 658.723L80.6016 656.789L73.8164 637.98H77.3672L82.1133 652.236ZM105.773 654.24H117.902V657H102.381V631.406H105.773V654.24ZM129.135 657.352C126.557 657.352 124.459 656.508 122.842 654.82C121.225 653.121 120.416 650.854 120.416 648.018V647.42C120.416 645.533 120.773 643.852 121.488 642.375C122.215 640.887 123.223 639.727 124.512 638.895C125.812 638.051 127.219 637.629 128.73 637.629C131.203 637.629 133.125 638.443 134.496 640.072C135.867 641.701 136.553 644.033 136.553 647.068V648.422H123.668C123.715 650.297 124.26 651.814 125.303 652.975C126.357 654.123 127.693 654.697 129.311 654.697C130.459 654.697 131.432 654.463 132.229 653.994C133.025 653.525 133.723 652.904 134.32 652.131L136.307 653.678C134.713 656.127 132.322 657.352 129.135 657.352ZM128.73 640.301C127.418 640.301 126.316 640.781 125.426 641.742C124.535 642.691 123.984 644.027 123.773 645.75H133.301V645.504C133.207 643.852 132.762 642.574 131.965 641.672C131.168 640.758 130.09 640.301 128.73 640.301ZM149.525 640.898C149.033 640.816 148.5 640.775 147.926 640.775C145.793 640.775 144.346 641.684 143.584 643.5V657H140.332V637.98H143.496L143.549 640.178C144.615 638.479 146.127 637.629 148.084 637.629C148.717 637.629 149.197 637.711 149.525 637.875V640.898ZM163.57 657C163.383 656.625 163.23 655.957 163.113 654.996C161.602 656.566 159.797 657.352 157.699 657.352C155.824 657.352 154.283 656.824 153.076 655.77C151.881 654.703 151.283 653.355 151.283 651.727C151.283 649.746 152.033 648.211 153.533 647.121C155.045 646.02 157.166 645.469 159.896 645.469H163.061V643.975C163.061 642.838 162.721 641.936 162.041 641.268C161.361 640.588 160.359 640.248 159.035 640.248C157.875 640.248 156.902 640.541 156.117 641.127C155.332 641.713 154.939 642.422 154.939 643.254H151.67C151.67 642.305 152.004 641.391 152.672 640.512C153.352 639.621 154.266 638.918 155.414 638.402C156.574 637.887 157.846 637.629 159.229 637.629C161.42 637.629 163.137 638.18 164.379 639.281C165.621 640.371 166.266 641.877 166.312 643.799V652.553C166.312 654.299 166.535 655.688 166.98 656.719V657H163.57ZM158.174 654.521C159.193 654.521 160.16 654.258 161.074 653.73C161.988 653.203 162.65 652.518 163.061 651.674V647.771H160.512C156.527 647.771 154.535 648.938 154.535 651.27C154.535 652.289 154.875 653.086 155.555 653.66C156.234 654.234 157.107 654.521 158.174 654.521ZM175.822 633.375V637.98H179.373V640.494H175.822V652.289C175.822 653.051 175.98 653.625 176.297 654.012C176.613 654.387 177.152 654.574 177.914 654.574C178.289 654.574 178.805 654.504 179.461 654.363V657C178.605 657.234 177.773 657.352 176.965 657.352C175.512 657.352 174.416 656.912 173.678 656.033C172.939 655.154 172.57 653.906 172.57 652.289V640.494H169.107V637.98H172.57V633.375H175.822ZM181.975 647.314C181.975 645.451 182.338 643.775 183.064 642.287C183.803 640.799 184.822 639.65 186.123 638.842C187.436 638.033 188.93 637.629 190.605 637.629C193.195 637.629 195.287 638.525 196.881 640.318C198.486 642.111 199.289 644.496 199.289 647.473V647.701C199.289 649.553 198.932 651.217 198.217 652.693C197.514 654.158 196.5 655.301 195.176 656.121C193.863 656.941 192.352 657.352 190.641 657.352C188.062 657.352 185.971 656.455 184.365 654.662C182.771 652.869 181.975 650.496 181.975 647.543V647.314ZM185.244 647.701C185.244 649.811 185.73 651.504 186.703 652.781C187.688 654.059 189 654.697 190.641 654.697C192.293 654.697 193.605 654.053 194.578 652.764C195.551 651.463 196.037 649.646 196.037 647.314C196.037 645.229 195.539 643.541 194.543 642.252C193.559 640.951 192.246 640.301 190.605 640.301C189 640.301 187.705 640.939 186.721 642.217C185.736 643.494 185.244 645.322 185.244 647.701ZM217.166 631.406L225.533 652.289L233.9 631.406H238.277V657H234.902V647.033L235.219 636.275L226.816 657H224.232L215.848 636.328L216.182 647.033V657H212.807V631.406H217.166ZM242.865 647.314C242.865 645.451 243.229 643.775 243.955 642.287C244.693 640.799 245.713 639.65 247.014 638.842C248.326 638.033 249.82 637.629 251.496 637.629C254.086 637.629 256.178 638.525 257.771 640.318C259.377 642.111 260.18 644.496 260.18 647.473V647.701C260.18 649.553 259.822 651.217 259.107 652.693C258.404 654.158 257.391 655.301 256.066 656.121C254.754 656.941 253.242 657.352 251.531 657.352C248.953 657.352 246.861 656.455 245.256 654.662C243.662 652.869 242.865 650.496 242.865 647.543V647.314ZM246.135 647.701C246.135 649.811 246.621 651.504 247.594 652.781C248.578 654.059 249.891 654.697 251.531 654.697C253.184 654.697 254.496 654.053 255.469 652.764C256.441 651.463 256.928 649.646 256.928 647.314C256.928 645.229 256.43 643.541 255.434 642.252C254.449 640.951 253.137 640.301 251.496 640.301C249.891 640.301 248.596 640.939 247.611 642.217C246.627 643.494 246.135 645.322 246.135 647.701ZM269.566 648.193L267.527 650.32V657H264.275V630H267.527V646.33L269.268 644.238L275.191 637.98H279.146L271.746 645.926L280.008 657H276.193L269.566 648.193ZM281.379 647.332C281.379 644.367 282.064 642.012 283.436 640.266C284.807 638.508 286.623 637.629 288.885 637.629C291.205 637.629 293.016 638.449 294.316 640.09L294.475 637.98H297.445V656.543C297.445 659.004 296.713 660.943 295.248 662.361C293.795 663.779 291.838 664.488 289.377 664.488C288.006 664.488 286.664 664.195 285.352 663.609C284.039 663.023 283.037 662.221 282.346 661.201L284.033 659.25C285.428 660.973 287.133 661.834 289.148 661.834C290.73 661.834 291.961 661.389 292.84 660.498C293.73 659.607 294.176 658.354 294.176 656.736V655.102C292.875 656.602 291.1 657.352 288.85 657.352C286.623 657.352 284.818 656.455 283.436 654.662C282.064 652.869 281.379 650.426 281.379 647.332ZM284.648 647.701C284.648 649.846 285.088 651.533 285.967 652.764C286.846 653.982 288.076 654.592 289.658 654.592C291.709 654.592 293.215 653.66 294.176 651.797V643.113C293.18 641.297 291.686 640.389 289.693 640.389C288.111 640.389 286.875 641.004 285.984 642.234C285.094 643.465 284.648 645.287 284.648 647.701ZM319.207 652.518L322.863 637.98H326.115L320.578 657H317.941L313.318 642.586L308.818 657H306.182L300.662 637.98H303.896L307.641 652.219L312.07 637.98H314.689L319.207 652.518ZM341.18 657C340.992 656.625 340.84 655.957 340.723 654.996C339.211 656.566 337.406 657.352 335.309 657.352C333.434 657.352 331.893 656.824 330.686 655.77C329.49 654.703 328.893 653.355 328.893 651.727C328.893 649.746 329.643 648.211 331.143 647.121C332.654 646.02 334.775 645.469 337.506 645.469H340.67V643.975C340.67 642.838 340.33 641.936 339.65 641.268C338.971 640.588 337.969 640.248 336.645 640.248C335.484 640.248 334.512 640.541 333.727 641.127C332.941 641.713 332.549 642.422 332.549 643.254H329.279C329.279 642.305 329.613 641.391 330.281 640.512C330.961 639.621 331.875 638.918 333.023 638.402C334.184 637.887 335.455 637.629 336.838 637.629C339.029 637.629 340.746 638.18 341.988 639.281C343.23 640.371 343.875 641.877 343.922 643.799V652.553C343.922 654.299 344.145 655.688 344.59 656.719V657H341.18ZM335.783 654.521C336.803 654.521 337.77 654.258 338.684 653.73C339.598 653.203 340.26 652.518 340.67 651.674V647.771H338.121C334.137 647.771 332.145 648.938 332.145 651.27C332.145 652.289 332.484 653.086 333.164 653.66C333.844 654.234 334.717 654.521 335.783 654.521ZM365.121 647.701C365.121 650.607 364.453 652.945 363.117 654.715C361.781 656.473 359.988 657.352 357.738 657.352C355.336 657.352 353.479 656.502 352.166 654.803L352.008 657H349.02V630H352.271V640.072C353.584 638.443 355.395 637.629 357.703 637.629C360.012 637.629 361.822 638.502 363.135 640.248C364.459 641.994 365.121 644.385 365.121 647.42V647.701ZM361.869 647.332C361.869 645.117 361.441 643.406 360.586 642.199C359.73 640.992 358.5 640.389 356.895 640.389C354.75 640.389 353.209 641.385 352.271 643.377V651.604C353.268 653.596 354.82 654.592 356.93 654.592C358.488 654.592 359.701 653.988 360.568 652.781C361.436 651.574 361.869 649.758 361.869 647.332ZM368.373 647.314C368.373 645.451 368.736 643.775 369.463 642.287C370.201 640.799 371.221 639.65 372.521 638.842C373.834 638.033 375.328 637.629 377.004 637.629C379.594 637.629 381.686 638.525 383.279 640.318C384.885 642.111 385.688 644.496 385.688 647.473V647.701C385.688 649.553 385.33 651.217 384.615 652.693C383.912 654.158 382.898 655.301 381.574 656.121C380.262 656.941 378.75 657.352 377.039 657.352C374.461 657.352 372.369 656.455 370.764 654.662C369.17 652.869 368.373 650.496 368.373 647.543V647.314ZM371.643 647.701C371.643 649.811 372.129 651.504 373.102 652.781C374.086 654.059 375.398 654.697 377.039 654.697C378.691 654.697 380.004 654.053 380.977 652.764C381.949 651.463 382.436 649.646 382.436 647.314C382.436 645.229 381.938 643.541 380.941 642.252C379.957 640.951 378.645 640.301 377.004 640.301C375.398 640.301 374.104 640.939 373.119 642.217C372.135 643.494 371.643 645.322 371.643 647.701ZM392.842 637.98L392.947 640.371C394.4 638.543 396.299 637.629 398.643 637.629C402.662 637.629 404.689 639.896 404.725 644.432V657H401.473V644.414C401.461 643.043 401.145 642.029 400.523 641.373C399.914 640.717 398.959 640.389 397.658 640.389C396.604 640.389 395.678 640.67 394.881 641.232C394.084 641.795 393.463 642.533 393.018 643.447V657H389.766V637.98H392.842ZM421.371 657C421.184 656.625 421.031 655.957 420.914 654.996C419.402 656.566 417.598 657.352 415.5 657.352C413.625 657.352 412.084 656.824 410.877 655.77C409.682 654.703 409.084 653.355 409.084 651.727C409.084 649.746 409.834 648.211 411.334 647.121C412.846 646.02 414.967 645.469 417.697 645.469H420.861V643.975C420.861 642.838 420.521 641.936 419.842 641.268C419.162 640.588 418.16 640.248 416.836 640.248C415.676 640.248 414.703 640.541 413.918 641.127C413.133 641.713 412.74 642.422 412.74 643.254H409.471C409.471 642.305 409.805 641.391 410.473 640.512C411.152 639.621 412.066 638.918 413.215 638.402C414.375 637.887 415.646 637.629 417.029 637.629C419.221 637.629 420.938 638.18 422.18 639.281C423.422 640.371 424.066 641.877 424.113 643.799V652.553C424.113 654.299 424.336 655.688 424.781 656.719V657H421.371ZM415.975 654.521C416.994 654.521 417.961 654.258 418.875 653.73C419.789 653.203 420.451 652.518 420.861 651.674V647.771H418.312C414.328 647.771 412.336 648.938 412.336 651.27C412.336 652.289 412.676 653.086 413.355 653.66C414.035 654.234 414.908 654.521 415.975 654.521Z" fill="#16333F"/>
<line x1="44" y1="575" x2="44" y2="687" stroke="#16333F" stroke-width="2"/>
<line x1="445" y1="670" x2="26" y2="670" stroke="#16333F" stroke-width="2"/>
</g>
<defs>
<clipPath id="clip0">
<rect width="1640" height="720" fill="white"/>
</clipPath>
<clipPath id="clip1">
<rect width="252" height="597" fill="white" transform="translate(1126 18)"/>
</clipPath>
</defs>
</svg>
