<svg width="1440" height="3358" viewBox="0 0 1440 3358" fill="none" xmlns="http://www.w3.org/2000/svg">
<rect width="1440" height="3358" fill="#CF8E07"/>
<g clip-path="url(#clip0)">
<rect width="1440" height="1024" transform="translate(0 2334)" fill="white"/>
<path fill-rule="evenodd" clip-rule="evenodd" d="M301.274 3601.93C92.4805 3473.66 -353.94 3549.7 -503.243 3364.47C-663.217 3166 -688.127 2763.66 -594.214 2566.3C-426.762 2214.4 -118.503 2387.12 26.686 2230.35C271.258 1966.26 215.217 1675.51 508.216 1647.56C793.7 1620.32 957.326 1870.12 1123.91 2140.55C1287.19 2405.6 1793.86 2208.59 1981.05 2447.14C2271.8 2866.91 2076.75 2990.27 1976.38 3226.91C1888.8 3433.42 1647.74 3517.8 1467.12 3658.9C1291.24 3796.3 1184.73 4053.7 933.693 4041.43C681.407 4029.1 525.869 3739.91 301.274 3601.93Z" fill="#CF8E07"/>
<path d="M524 3483.5L871 2563.5L878.5 2547L846 2471L765 2455.5L763 2457L-131.5 2812.5L-241 3370.5L524 3483.5Z" fill="#FDC128"/>
<g clip-path="url(#clip1)">
<path d="M888.231 2438.21L931.079 2395.35C938.287 2388.14 949.977 2388.14 957.188 2395.35C957.189 2395.35 957.191 2395.35 957.193 2395.35L1071.27 2509.44C1078.19 2516.36 1082.08 2525.74 1082.08 2535.53V3291.16" stroke="#16333F" stroke-width="8"/>
<path fill-rule="evenodd" clip-rule="evenodd" d="M915.1 2519.62C944.234 2490.5 943.742 2442.79 914.003 2413.07C884.263 2383.34 836.536 2382.85 807.402 2411.97L762.643 2456.71L762.992 2457.06C769.936 2452.75 797.998 2471.84 826.893 2500.72C854.73 2528.55 873.473 2555.6 870.954 2563.75L915.1 2519.62Z" fill="#16333F"/>
</g>
<path fill-rule="evenodd" clip-rule="evenodd" d="M1197.13 2619.68C1208.29 2606.59 1215.83 2590.55 1214.57 2572.58C1210.94 2520.79 1138.84 2532.18 1124.82 2558.32C1110.8 2584.46 1112.46 2650.77 1130.59 2655.44C1137.82 2657.3 1153.21 2652.74 1168.88 2643.29L1168.88 2666L1208 2659L1197.13 2619.68Z" fill="#C81E2A"/>
<path fill-rule="evenodd" clip-rule="evenodd" d="M1099.09 2522.08C1100.29 2517.86 1103.53 2514.24 1107.89 2513.16C1108.94 2512.9 1110.04 2512.8 1111.12 2512.84C1111.51 2512.86 1111.62 2512.97 1111.81 2512.7C1111.94 2512.49 1111.94 2512 1112 2511.76C1112.17 2511.02 1112.39 2510.29 1112.66 2509.58C1113.57 2507.15 1115.1 2505.01 1116.95 2503.2C1120.41 2499.82 1125.08 2497.48 1129.93 2497.06C1132.59 2496.83 1135.22 2497.26 1137.73 2498.12C1139.03 2498.57 1140.29 2499.13 1141.52 2499.74C1141.89 2499.93 1143.09 2500.84 1143.46 2500.78C1143.87 2500.71 1144.69 2499.69 1145.03 2499.44C1149.14 2496.28 1154.23 2495.04 1159.36 2495.07C1165.15 2495.12 1170.72 2495.41 1175.55 2498.94C1176.57 2499.68 1177.54 2500.5 1178.47 2501.36C1178.96 2501.82 1179.43 2502.29 1179.88 2502.78C1180.15 2503.07 1180.42 2503.37 1180.67 2503.68C1181.11 2504.21 1181.04 2504.38 1181.64 2504.02C1183.97 2502.61 1186.66 2501.95 1189.37 2502.28C1190.98 2502.48 1192.55 2502.96 1194.04 2503.6C1194.54 2503.81 1195.72 2504.68 1196.25 2504.69C1196.79 2504.69 1197.95 2503.89 1198.5 2503.69C1201.48 2502.59 1204.69 2502.32 1207.82 2502.83C1211.05 2503.35 1214.23 2504.64 1216.96 2506.42C1218.28 2507.28 1219.43 2508.23 1220.35 2509.5C1220.75 2510.05 1221.11 2510.63 1221.56 2511.14C1221.82 2511.44 1222.35 2511.75 1222.49 2512.13C1222.41 2511.9 1226.02 2510.5 1226.36 2510.42C1228.18 2509.94 1230.04 2510.04 1231.82 2510.62C1235.17 2511.73 1238.05 2514.2 1240.41 2516.73C1241.63 2518.03 1242.69 2519.47 1243.6 2521C1244.03 2521.74 1244.42 2522.49 1244.79 2523.27C1244.96 2523.64 1245.08 2524.11 1245.31 2524.44C1245.61 2524.88 1245.81 2524.89 1246.35 2525.07C1249.09 2526.03 1251.59 2527.66 1253.49 2529.86C1255.42 2532.08 1256.66 2534.81 1257.19 2537.7C1257.22 2537.87 1257.24 2538.57 1257.34 2538.66C1257.47 2538.79 1258.02 2538.73 1258.23 2538.76C1258.95 2538.84 1259.67 2538.97 1260.38 2539.13C1261.68 2539.44 1262.95 2539.9 1264.15 2540.49C1268.83 2542.81 1272.18 2547.15 1273.82 2552.03C1275.54 2557.16 1275.51 2563.03 1273.45 2568.07C1273.12 2568.88 1272.73 2569.67 1272.26 2570.41C1271.98 2570.87 1271.89 2570.87 1272.07 2571.35C1272.28 2571.89 1272.65 2572.41 1272.9 2572.93C1273.7 2574.63 1274.25 2576.44 1274.61 2578.29C1275.19 2581.32 1275.47 2584.5 1274.9 2587.55C1274.64 2588.97 1274.17 2590.36 1273.47 2591.62C1273.11 2592.26 1272.69 2592.87 1272.22 2593.44C1271.97 2593.73 1271.71 2594.01 1271.43 2594.28C1271.28 2594.43 1271.07 2594.57 1270.94 2594.74C1270.62 2595.16 1270.55 2594.81 1270.71 2595.43C1270.95 2596.28 1271.48 2597.13 1271.8 2597.96C1272.14 2598.82 1272.44 2599.69 1272.72 2600.57C1273.28 2602.35 1273.75 2604.17 1274.05 2606.01C1274.62 2609.55 1274.52 2613.32 1272.85 2616.57C1272.13 2617.96 1271.1 2619.18 1269.86 2620.13C1269.25 2620.6 1268.59 2621 1267.89 2621.32C1267.54 2621.49 1267.08 2621.57 1266.92 2621.91C1266.74 2622.28 1267 2623.02 1267.06 2623.43C1267.58 2627.03 1267.84 2630.81 1266.77 2634.34C1265.78 2637.59 1263.61 2640.46 1260.79 2642.37C1255.32 2646.05 1247.95 2645.84 1242.2 2642.89C1240.71 2642.12 1239.31 2641.17 1238.06 2640.04C1234.87 2644.33 1228.32 2644.19 1223.67 2642.97C1217.87 2641.45 1213.22 2637.42 1210.54 2632.12C1206.88 2636.58 1199.19 2635.14 1196.65 2630.3C1196.03 2629.11 1195.66 2627.81 1195.48 2626.49C1195.38 2625.79 1195.44 2625.09 1195.37 2624.4C1195.28 2623.53 1194.69 2622.67 1194.36 2621.82C1193.7 2620.17 1193.29 2618.46 1193.28 2616.68C1193.27 2615.75 1193.38 2614.84 1193.47 2613.92C1193.55 2613.09 1193.32 2612.31 1193.19 2611.49C1194.68 2611.74 1196.49 2611.34 1197.89 2610.91C1199.26 2610.48 1200.55 2609.37 1201.52 2608.35C1203.77 2605.99 1205.15 2602.89 1206.09 2599.81C1208.16 2593.05 1207.31 2584.93 1200.5 2581.22C1197.33 2579.49 1187.84 2579.49 1184.06 2580.35C1180.09 2581.25 1175.59 2590.01 1175.37 2590.83C1175.24 2591.34 1175.3 2591.97 1174.84 2592.31C1173.81 2593.05 1172.11 2591.76 1171.35 2591.12C1170.04 2590.02 1169.11 2588.55 1168.3 2587.06C1166.54 2583.82 1165.12 2580.34 1164.11 2576.79C1163.34 2574.06 1162.84 2571.23 1161.83 2568.57C1160.83 2565.91 1159.24 2563.54 1156.77 2562.04C1154.09 2560.4 1151.01 2559.54 1148.07 2558.51C1145.15 2557.5 1142.28 2556.25 1140.02 2554.09C1139.52 2553.61 1139.04 2553.11 1138.63 2552.55C1138.32 2552.11 1138.01 2551.26 1137.52 2550.98C1136.78 2550.55 1135.68 2551.68 1135.03 2552.09C1131.84 2554.12 1129.17 2556.95 1127.02 2560.04C1124.88 2563.12 1123.13 2566.08 1121.7 2569.51C1120.65 2572.06 1119.99 2575.32 1118.13 2577.41C1117.3 2578.34 1111.12 2578.9 1109.12 2578.09C1107.12 2577.28 1104.88 2575.16 1104.21 2573.84C1103.53 2572.48 1103.36 2571 1103.66 2569.51C1103.83 2568.64 1104.18 2567.82 1104.37 2566.97C1104.54 2566.25 1104.68 2565.57 1105.03 2564.91C1105.7 2563.66 1106.83 2562.76 1108.2 2562.38C1106.78 2561.07 1105.6 2559.5 1104.78 2557.74C1103.93 2555.92 1103.21 2553.7 1103.01 2551.7C1102.84 2550.07 1103.1 2548.38 1103.99 2546.99C1104.92 2545.52 1106.58 2544.56 1108.01 2543.65C1105.82 2541.94 1103.95 2539.86 1102.41 2537.55C1099.42 2533.07 1097.57 2527.43 1099.09 2522.08Z" fill="#16333F"/>
<path fill-rule="evenodd" clip-rule="evenodd" d="M1379.27 3015.39H1100.97C1079.58 3015.39 1062.25 3032.73 1062.25 3054.11V3276.76C1062.25 3298.14 1079.58 3315.48 1100.97 3315.48H1379.27C1400.66 3315.48 1418 3298.14 1418 3276.76V3054.11C1418 3032.73 1400.66 3015.39 1379.27 3015.39ZM1340.55 3083.15C1345.9 3083.15 1350.23 3087.49 1350.23 3092.83V3238.04C1350.23 3243.38 1345.9 3247.72 1340.55 3247.72H1139.69C1134.34 3247.72 1130.01 3243.38 1130.01 3238.04V3092.83C1130.01 3087.49 1134.34 3083.15 1139.69 3083.15H1340.55Z" fill="#16333F"/>
<path fill-rule="evenodd" clip-rule="evenodd" d="M889.187 3307.4C920.195 3238.77 942.62 3179.01 951.621 3147.48C967.033 3093.49 978.758 3045.99 981.721 3028.25C988.787 2985.94 927.361 2983.48 919.242 3004.5C906.953 3036.33 885.5 3140.88 859.722 3298.8L889.187 3307.4ZM1248.86 3092.02C1220.41 3080.77 1120.78 3045.58 1072.73 3035.62C1058.92 3032.76 1045.54 3030.11 1032.96 3027.7C995.557 3020.56 976.181 3088.03 1012.2 3093.22C1101.91 3106.13 1229.08 3119.46 1239.96 3120.96C1255.21 3123.05 1266.74 3099.09 1248.86 3092.02Z" fill="#C81E2A"/>
<path fill-rule="evenodd" clip-rule="evenodd" d="M1010 3009.14L1163.89 2930.8V2913.75H1145.59C996.71 2951.68 920.633 2976 917.358 2986.68C917.323 2986.8 917.291 2986.91 917.261 2987.03C917.186 2987.13 917.113 2987.23 917.04 2987.33C887.536 3027.9 869.866 3226 864.066 3240.84L920.603 3249.27C942.23 3169.07 1011.42 3113.21 1009.59 3017.15C1010.08 3014.34 1010.21 3011.67 1010 3009.14Z" fill="#3E93A4"/>
<path fill-rule="evenodd" clip-rule="evenodd" d="M1151.1 3055.66C1165.18 3052.84 1178.15 3050.33 1189.24 3048.38C1260.91 3035.81 1281.81 2997.45 1269.45 2913.75H1137.41C1115.84 2919.94 1003.74 2966.95 945.581 2991.96C907.088 3008.5 919.222 3068.16 941.021 3083.68C941.139 3084.64 941.532 3085.28 942.23 3085.57C1059.49 3134.17 1152.26 3108.67 1183.25 3116.82L1197.58 3071.6L1151.1 3055.66Z" fill="#4CAABC"/>
<path fill-rule="evenodd" clip-rule="evenodd" d="M1239.85 3085.06C1247.4 3085.94 1252.75 3087.2 1255.9 3088.83C1259.73 3090.82 1265 3094.37 1271.69 3099.49C1269.44 3104.01 1249.15 3144.62 1210.83 3221.32C1198.95 3219.14 1194.31 3214.43 1196.9 3207.18C1199.49 3199.93 1201.58 3193.88 1203.17 3189.03L1206.64 3119.51C1206.71 3118.17 1207.83 3117.14 1209.14 3117.21C1209.16 3117.22 1209.18 3117.22 1209.21 3117.22L1219.71 3118.09C1225.76 3113.28 1229.77 3108.9 1231.74 3104.95C1233.34 3101.74 1234.28 3096.65 1234.56 3089.68L1234.56 3089.68C1234.67 3087 1236.88 3084.92 1239.51 3085.04C1239.63 3085.04 1239.74 3085.05 1239.85 3085.06Z" fill="#16333F"/>
<path fill-rule="evenodd" clip-rule="evenodd" d="M903.299 3294.67C906.006 3301.9 907.36 3307.31 907.36 3310.9C907.36 3315.26 906.633 3321.63 905.179 3330C900.116 3330 854.618 3330 768.683 3330C765.135 3318.27 767.183 3311.94 774.825 3311.01C782.467 3310.07 788.816 3309.23 793.871 3308.48L857.313 3280.19C858.534 3279.65 859.965 3280.2 860.509 3281.42C860.518 3281.44 860.527 3281.46 860.536 3281.48L864.614 3291.37C871.689 3294.67 877.437 3296.32 881.861 3296.32C885.454 3296.32 890.417 3294.87 896.749 3291.97L896.749 3291.97C899.179 3290.86 902.052 3291.92 903.166 3294.35C903.214 3294.46 903.259 3294.56 903.299 3294.67Z" fill="#16333F"/>
<path fill-rule="evenodd" clip-rule="evenodd" d="M1023.42 2875.32L954.866 2942.2C934.919 2950.71 918.575 2960.11 905.835 2970.39C902.97 2973.84 899.851 2980.46 913.331 2977.5C926.811 2974.54 941.124 2972.03 943.657 2976.41C946.191 2980.8 938.726 2987.51 943.408 2993.25C946.53 2997.08 957.027 2984.91 974.902 2956.75L1046.19 2914.72L1023.42 2875.32ZM1327.71 2884.75L1277.13 2884.95C1308.36 2985.76 1325.22 3039.25 1327.71 3045.41C1333.31 3059.29 1321.46 3080.43 1316.39 3091.79C1332.89 3099.17 1331.14 3071.82 1351.96 3081.51C1370.96 3090.35 1385.42 3106.37 1407.37 3092.82C1410.07 3091.15 1413.03 3084.88 1405.88 3079.98C1388.08 3067.77 1362.42 3046.4 1358.95 3039.37C1354.22 3029.78 1343.81 2978.24 1327.71 2884.75Z" fill="#C81E2A"/>
<path fill-rule="evenodd" clip-rule="evenodd" d="M1262.6 2858.65C1259.13 2920.4 1247 3025 1236.5 3032.5L1245.5 3026L1254 3017.5L1259.5 3010L1267 2994.5L1272 2972C1273.5 2929 1269.46 2899.36 1262.6 2858.65Z" fill="black" fill-opacity="0.1"/>
</g>
<defs>
<clipPath id="clip0">
<rect width="1440" height="1024" fill="white" transform="translate(0 2334)"/>
</clipPath>
<clipPath id="clip1">
<rect width="390" height="925" fill="white" transform="translate(759 2380)"/>
</clipPath>
</defs>
</svg>
