<svg width="1440" height="738" viewBox="0 0 1440 738" fill="none" xmlns="http://www.w3.org/2000/svg">
<g clip-path="url(#clip0)">
<rect width="1440" height="738" fill="white"/>
<path fill-rule="evenodd" clip-rule="evenodd" d="M301.273 1267.93C92.4804 1139.66 -353.94 1215.7 -503.243 1030.47C-663.217 832 -688.127 429.662 -594.214 232.303C-426.762 -119.6 -118.503 53.1172 26.6859 -103.654C271.258 -367.736 215.217 -658.488 508.216 -686.443C793.7 -713.682 957.326 -463.876 1123.91 -193.45C1287.19 71.6043 1793.86 -125.407 1981.05 113.139C2271.8 532.908 2076.75 656.268 1976.38 892.909C1888.8 1099.42 1647.74 1183.8 1467.12 1324.9C1291.24 1462.3 1184.73 1719.7 933.693 1707.43C681.407 1695.1 525.869 1405.91 301.273 1267.93Z" fill="#CF8E07"/>
<path d="M790.055 763L1014.16 168.759L1019 158.101L998.011 109.012L945.699 99L944.407 99.9689L-67 493.5L-114 814L790.055 763Z" fill="#FDC128"/>
<g clip-path="url(#clip1)">
<path d="M1025.5 87.5705L1053.19 59.9091C1057.85 55.2569 1065.4 55.2554 1070.06 59.9056C1070.06 59.9068 1070.06 59.9079 1070.06 59.9091L1143.77 133.54C1148.25 138.007 1150.76 144.064 1150.76 150.38V638.068" stroke="#16333F" stroke-width="8"/>
<path fill-rule="evenodd" clip-rule="evenodd" d="M1042.86 140.113C1061.69 121.318 1061.37 90.5273 1042.16 71.341C1022.94 52.1547 992.1 51.8378 973.275 70.6332L944.354 99.5089L944.58 99.7343C949.066 96.9532 967.199 109.273 985.869 127.914C1003.86 145.873 1015.97 163.333 1014.34 168.593L1042.86 140.113Z" fill="#16333F"/>
</g>
<path fill-rule="evenodd" clip-rule="evenodd" d="M1237.59 231.901C1245.54 223.613 1250.92 213.456 1250.02 202.074C1247.43 169.282 1196.04 176.496 1186.04 193.047C1176.05 209.598 1177.24 251.58 1190.15 254.538C1195.31 255.718 1206.28 252.828 1217.45 246.847L1217.45 261.227L1245.33 256.794L1237.59 231.901Z" fill="#C81E2A"/>
<path fill-rule="evenodd" clip-rule="evenodd" d="M1167.7 170.102C1168.56 167.425 1170.87 165.133 1173.97 164.453C1174.73 164.288 1175.51 164.222 1176.28 164.249C1176.56 164.259 1176.64 164.331 1176.77 164.158C1176.86 164.03 1176.87 163.717 1176.91 163.566C1177.03 163.098 1177.18 162.636 1177.37 162.185C1178.02 160.649 1179.12 159.29 1180.43 158.145C1182.9 156.003 1186.23 154.524 1189.69 154.257C1191.58 154.111 1193.46 154.384 1195.25 154.931C1196.17 155.214 1197.07 155.567 1197.95 155.956C1198.21 156.074 1199.07 156.648 1199.33 156.611C1199.62 156.57 1200.21 155.925 1200.45 155.764C1203.38 153.763 1207.01 152.977 1210.66 153.001C1214.79 153.028 1218.76 153.211 1222.2 155.446C1222.93 155.919 1223.62 156.437 1224.28 156.982C1224.63 157.269 1224.97 157.567 1225.29 157.877C1225.48 158.064 1225.67 158.256 1225.85 158.452C1226.16 158.786 1226.11 158.896 1226.55 158.663C1228.2 157.769 1230.12 157.351 1232.05 157.562C1233.2 157.687 1234.32 157.993 1235.38 158.396C1235.74 158.534 1236.58 159.081 1236.96 159.086C1237.34 159.091 1238.17 158.584 1238.56 158.455C1240.68 157.759 1242.97 157.587 1245.2 157.909C1247.51 158.241 1249.77 159.057 1251.72 160.185C1252.66 160.727 1253.48 161.328 1254.13 162.135C1254.42 162.483 1254.68 162.852 1255 163.175C1255.19 163.364 1255.56 163.558 1255.66 163.797C1255.6 163.654 1258.18 162.771 1258.42 162.714C1259.72 162.413 1261.04 162.474 1262.31 162.846C1264.69 163.543 1266.75 165.108 1268.43 166.713C1269.3 167.537 1270.06 168.448 1270.7 169.419C1271.01 169.884 1271.29 170.362 1271.55 170.85C1271.68 171.087 1271.76 171.383 1271.92 171.596C1272.14 171.871 1272.28 171.876 1272.66 171.996C1274.62 172.604 1276.4 173.633 1277.76 175.023C1279.13 176.43 1280.02 178.163 1280.39 179.987C1280.41 180.095 1280.43 180.54 1280.5 180.598C1280.59 180.679 1280.99 180.643 1281.14 180.659C1281.65 180.712 1282.16 180.792 1282.67 180.898C1283.59 181.094 1284.5 181.381 1285.36 181.757C1288.69 183.224 1291.08 185.973 1292.24 189.066C1293.47 192.312 1293.45 196.031 1291.98 199.217C1291.75 199.731 1291.47 200.231 1291.14 200.703C1290.93 200.993 1290.87 200.994 1291 201.298C1291.15 201.637 1291.41 201.966 1291.59 202.296C1292.16 203.376 1292.56 204.521 1292.81 205.69C1293.22 207.608 1293.42 209.624 1293.02 211.557C1292.83 212.454 1292.5 213.331 1292 214.131C1291.74 214.538 1291.44 214.925 1291.1 215.282C1290.93 215.468 1290.74 215.645 1290.55 215.815C1290.43 215.912 1290.29 215.997 1290.19 216.105C1289.96 216.37 1289.91 216.152 1290.03 216.54C1290.2 217.083 1290.58 217.618 1290.81 218.146C1291.05 218.69 1291.26 219.242 1291.46 219.799C1291.86 220.926 1292.2 222.074 1292.41 223.242C1292.82 225.484 1292.75 227.873 1291.55 229.931C1291.04 230.811 1290.31 231.584 1289.42 232.184C1288.99 232.478 1288.51 232.731 1288.02 232.939C1287.77 233.046 1287.44 233.092 1287.33 233.31C1287.2 233.545 1287.39 234.011 1287.43 234.273C1287.8 236.553 1287.98 238.948 1287.22 241.182C1286.52 243.241 1284.97 245.058 1282.96 246.261C1279.06 248.596 1273.81 248.464 1269.71 246.595C1268.64 246.108 1267.64 245.503 1266.75 244.79C1264.49 247.503 1259.82 247.417 1256.5 246.644C1252.37 245.681 1249.06 243.129 1247.15 239.777C1244.53 242.601 1239.05 241.685 1237.24 238.621C1236.8 237.871 1236.54 237.045 1236.41 236.209C1236.34 235.769 1236.38 235.325 1236.33 234.889C1236.27 234.333 1235.85 233.793 1235.61 233.255C1235.14 232.208 1234.85 231.127 1234.84 229.999C1234.83 229.409 1234.91 228.835 1234.98 228.25C1235.03 227.724 1234.87 227.233 1234.78 226.714C1235.84 226.869 1237.13 226.615 1238.12 226.342C1239.1 226.074 1240.02 225.369 1240.71 224.725C1242.32 223.229 1243.3 221.268 1243.97 219.317C1245.44 215.034 1244.84 209.895 1239.99 207.544C1237.73 206.449 1230.96 206.452 1228.27 206.994C1225.44 207.563 1222.23 213.109 1222.08 213.63C1221.98 213.952 1222.03 214.352 1221.69 214.567C1220.96 215.039 1219.75 214.219 1219.21 213.814C1218.28 213.116 1217.61 212.186 1217.03 211.244C1215.78 209.191 1214.77 206.989 1214.05 204.742C1213.5 203.009 1213.15 201.222 1212.43 199.534C1211.71 197.854 1210.58 196.352 1208.82 195.4C1206.91 194.365 1204.71 193.82 1202.62 193.169C1200.53 192.524 1198.49 191.736 1196.88 190.368C1196.52 190.067 1196.18 189.747 1195.89 189.393C1195.67 189.113 1195.44 188.578 1195.1 188.4C1194.57 188.125 1193.79 188.842 1193.32 189.102C1191.05 190.387 1189.15 192.18 1187.61 194.138C1186.09 196.085 1184.84 197.958 1183.82 200.133C1183.07 201.745 1182.6 203.811 1181.27 205.132C1180.68 205.722 1176.28 206.079 1174.86 205.564C1173.43 205.049 1171.83 203.711 1171.36 202.873C1170.87 202.015 1170.75 201.072 1170.96 200.133C1171.08 199.58 1171.33 199.064 1171.47 198.521C1171.59 198.065 1171.69 197.634 1171.94 197.216C1172.41 196.425 1173.22 195.856 1174.2 195.618C1173.18 194.786 1172.34 193.792 1171.76 192.68C1171.16 191.524 1170.64 190.12 1170.5 188.852C1170.38 187.822 1170.56 186.755 1171.2 185.87C1171.86 184.941 1173.04 184.336 1174.06 183.756C1172.5 182.673 1171.17 181.355 1170.07 179.897C1167.94 177.06 1166.62 173.484 1167.7 170.102Z" fill="#16333F"/>
<path fill-rule="evenodd" clip-rule="evenodd" d="M1367.41 482.453H1169.04C1153.8 482.453 1141.44 493.429 1141.44 506.97V647.945C1141.44 661.486 1153.8 672.462 1169.04 672.462H1367.41C1382.65 672.462 1395.01 661.486 1395.01 647.945V506.97C1395.01 493.429 1382.65 482.453 1367.41 482.453ZM1339.81 525.358C1343.62 525.358 1346.71 528.102 1346.71 531.487V623.428C1346.71 626.813 1343.62 629.557 1339.81 629.557H1196.64C1192.83 629.557 1189.74 626.813 1189.74 623.428V531.487C1189.74 528.102 1192.83 525.358 1196.64 525.358H1339.81Z" fill="#16333F"/>
<path fill-rule="evenodd" clip-rule="evenodd" d="M1018.09 667.344C1040.19 623.89 1056.18 586.051 1062.59 566.088C1073.58 531.905 1081.94 501.826 1084.05 490.593C1089.09 463.807 1045.3 462.248 1039.52 475.56C1030.76 495.708 1015.47 561.908 997.092 661.901L1018.09 667.344ZM1274.46 530.972C1254.18 523.851 1183.17 501.568 1148.92 495.265C1139.07 493.453 1129.54 491.77 1120.57 490.249C1093.91 485.729 1080.1 528.449 1105.77 531.732C1169.71 539.906 1260.36 548.348 1268.11 549.295C1278.98 550.623 1287.2 535.447 1274.46 530.972Z" fill="#C81E2A"/>
<path fill-rule="evenodd" clip-rule="evenodd" d="M1104.21 478.494L1213.89 428.893V418.095H1200.85C1094.73 442.115 1040.51 457.509 1038.17 464.276C1038.15 464.349 1038.12 464.422 1038.1 464.495C1038.05 464.557 1038 464.62 1037.95 464.683C1016.92 490.375 1004.32 615.808 1000.19 625.199L1040.49 630.54C1055.9 579.761 1105.22 544.387 1103.91 483.57C1104.26 481.786 1104.35 480.094 1104.21 478.494Z" fill="#3E93A4"/>
<path fill-rule="evenodd" clip-rule="evenodd" d="M1204.78 507.952C1214.81 506.167 1224.06 504.574 1231.96 503.342C1283.04 495.383 1297.94 471.092 1289.13 418.095H1195.02C1179.64 422.018 1099.74 451.783 1058.29 467.614C1030.85 478.092 1039.5 515.865 1055.04 525.695C1055.12 526.298 1055.4 526.707 1055.9 526.891C1139.48 557.664 1205.6 541.517 1227.69 546.676L1237.91 518.047L1204.78 507.952Z" fill="#4CAABC"/>
<path fill-rule="evenodd" clip-rule="evenodd" d="M1270.43 526C1275.37 526.205 1278.84 526.748 1280.83 527.63C1283.25 528.702 1286.53 530.689 1290.68 533.591C1288.94 536.529 1273.33 562.938 1243.85 612.818C1236.13 611.995 1233.32 609.251 1235.42 604.585C1237.52 599.92 1239.23 596.027 1240.55 592.908L1246.63 549.133C1246.74 548.291 1247.54 547.595 1248.4 547.58C1248.42 547.579 1248.43 547.579 1248.45 547.579L1255.33 547.643C1259.59 544.348 1262.48 541.417 1264 538.85C1265.23 536.764 1266.13 533.526 1266.69 529.138L1266.69 529.138C1266.9 527.453 1268.48 526.048 1270.21 525.999C1270.29 525.996 1270.36 525.997 1270.43 526Z" fill="#16333F"/>
<path fill-rule="evenodd" clip-rule="evenodd" d="M1028.15 659.288C1030.08 663.864 1031.05 667.288 1031.05 669.56C1031.05 672.323 1030.53 676.355 1029.49 681.657C1025.88 681.657 993.454 681.657 932.202 681.657C929.674 674.232 931.133 670.223 936.58 669.631C942.027 669.039 946.552 668.505 950.155 668.028L995.375 650.119C996.245 649.775 997.265 650.122 997.653 650.895C997.659 650.908 997.666 650.922 997.672 650.935L1000.58 657.199C1005.62 659.289 1009.72 660.334 1012.87 660.334C1015.43 660.334 1018.97 659.415 1023.48 657.577L1023.48 657.577C1025.22 656.871 1027.26 657.547 1028.06 659.086C1028.09 659.152 1028.12 659.219 1028.15 659.288Z" fill="#16333F"/>
<path fill-rule="evenodd" clip-rule="evenodd" d="M1113.77 393.765L1064.91 436.111C1050.69 441.498 1039.04 447.447 1029.96 453.957C1027.92 456.146 1025.69 460.339 1035.3 458.462C1044.91 456.586 1055.11 454.996 1056.92 457.772C1058.72 460.548 1053.4 464.802 1056.74 468.434C1058.97 470.856 1066.45 463.153 1079.19 445.324L1130 418.711L1113.77 393.765ZM1330.66 399.737L1294.61 399.863C1316.87 463.691 1328.88 497.557 1330.66 501.462C1334.65 510.249 1326.2 523.632 1322.59 530.824C1334.35 535.5 1333.1 518.182 1347.94 524.315C1361.48 529.914 1371.79 540.057 1387.44 531.479C1389.36 530.424 1391.47 526.453 1386.38 523.35C1373.69 515.619 1355.4 502.089 1352.92 497.635C1349.55 491.562 1342.13 458.93 1330.66 399.737Z" fill="#C81E2A"/>
<path fill-rule="evenodd" clip-rule="evenodd" d="M1284.25 383.208C1281.77 422.305 1273.13 488.537 1265.64 493.286L1272.06 489.17L1278.12 483.788L1282.04 479.04L1287.38 469.225L1290.95 454.979C1292.01 427.752 1289.14 408.983 1284.25 383.208Z" fill="black" fill-opacity="0.1"/>
</g>
<defs>
<clipPath id="clip0">
<rect width="1440" height="738" fill="white"/>
</clipPath>
<clipPath id="clip1">
<rect width="252" height="597" fill="white" transform="translate(942 50)"/>
</clipPath>
</defs>
</svg>
