<?xml version="1.0" standalone="no"?>
<!DOCTYPE svg PUBLIC "-//W3C//DTD SVG 20010904//EN"
 "http://www.w3.org/TR/2001/REC-SVG-20010904/DTD/svg10.dtd">
<svg version="1.0" xmlns="http://www.w3.org/2000/svg"
 width="442.000000pt" height="442.000000pt" viewBox="0 0 442.000000 442.000000"
 preserveAspectRatio="xMidYMid meet">
<metadata>
Created by potrace 1.14, written by Peter Selinger 2001-2017
</metadata>
<g transform="translate(0.000000,442.000000) scale(0.100000,-0.100000)"
fill="#000000" stroke="none">
<path d="M1480 4056 c-383 -139 -748 -441 -977 -807 -178 -285 -293 -670 -293
-984 l0 -94 -32 -22 c-18 -13 -66 -47 -105 -77 l-73 -54 0 -1009 0 -1009 1839
0 1838 0 7 37 c44 256 49 309 51 647 3 323 4 340 24 365 l20 26 1 -30 c1 -16
5 -100 9 -185 12 -232 -11 -610 -48 -805 -5 -27 -8 -51 -7 -53 2 -1 42 78 89
176 289 598 437 1239 437 1903 l0 196 -60 37 c-33 21 -60 41 -60 46 0 36 -36
242 -56 320 -31 126 -58 193 -79 200 -9 3 -16 9 -16 13 2 21 0 27 -14 27 -11
0 -9 -12 10 -64 45 -119 117 -458 101 -474 -3 -2 -17 3 -30 12 -14 9 -27 16
-29 16 -2 0 -1 -64 1 -143 10 -317 -57 -609 -205 -899 -60 -118 -65 -132 -60
-175 4 -34 0 -56 -11 -76 -22 -36 -32 -34 -32 8 0 19 -4 35 -9 35 -5 0 -34
-34 -66 -76 -74 -99 -238 -263 -340 -340 -671 -511 -1589 -511 -2260 0 -102
78 -263 239 -341 341 -154 202 -266 434 -328 680 -30 118 -56 307 -56 406 l0
71 -35 -22 -36 -22 6 93 c52 802 502 1424 1245 1720 52 21 89 38 83 38 -7 1
-13 8 -13 16 0 20 -13 19 -90 -9z m-790 -3080 c0 -3 -4 -8 -10 -11 -5 -3 -10
-1 -10 4 0 6 5 11 10 11 6 0 10 -2 10 -4z m40 -66 c0 -6 -9 -2 -20 7 -11 10
-20 19 -20 21 0 1 9 -2 20 -8 11 -6 20 -15 20 -20z m76 -53 c4 -4 0 -7 -9 -7
-9 0 -20 0 -24 -1 -4 0 -9 4 -11 9 -3 10 34 9 44 -1z m4 -37 c0 -5 -2 -10 -4
-10 -3 0 -8 5 -11 10 -3 6 -1 10 4 10 6 0 11 -4 11 -10z m52 -32 c-9 -9 -15
-9 -24 0 -9 9 -7 12 12 12 19 0 21 -3 12 -12z m68 -43 c10 -12 9 -16 -4 -21
-16 -6 -46 11 -46 27 0 15 37 10 50 -6z m2530 -6 c0 -5 -8 -9 -19 -9 -11 0
-21 -9 -25 -22 -5 -19 -8 -20 -16 -8 -6 10 -3 21 12 37 19 20 48 22 48 2z
m-2450 -59 c11 -6 17 -17 14 -25 -4 -11 1 -15 17 -15 13 0 44 -14 69 -31 25
-17 37 -29 28 -26 -9 3 -19 1 -22 -6 -3 -7 -13 -2 -26 16 -12 15 -28 27 -37
27 -12 0 -41 17 -82 46 -4 3 9 24 15 24 3 0 14 -5 24 -10z m270 -185 c8 -10
20 -13 33 -9 20 6 20 6 4 -11 -17 -16 -19 -16 -42 9 -13 14 -20 26 -16 26 5 0
14 -7 21 -15z m140 -54 c0 -12 -39 -21 -45 -11 -3 5 1 11 7 13 21 9 38 8 38
-2z m30 -41 c0 -5 -7 -7 -15 -4 -8 4 -15 8 -15 10 0 2 7 4 15 4 8 0 15 -4 15
-10z m180 -34 c0 -3 -4 -8 -10 -11 -5 -3 -10 -1 -10 4 0 6 5 11 10 11 6 0 10
-2 10 -4z m-35 -16 c3 -5 2 -10 -4 -10 -5 0 -13 5 -16 10 -3 6 -2 10 4 10 5 0
13 -4 16 -10z m245 -40 c0 -5 -4 -10 -10 -10 -5 0 -10 5 -10 10 0 6 5 10 10
10 6 0 10 -4 10 -10z m574 -25 c3 -8 1 -15 -3 -15 -5 0 -11 7 -15 15 -3 8 -1
15 3 15 5 0 11 -7 15 -15z m-244 -21 c0 -8 -4 -12 -10 -9 -5 3 -10 10 -10 16
0 5 5 9 10 9 6 0 10 -7 10 -16z"/>
<path d="M1545 3882 c-481 -180 -883 -595 -1053 -1087 -47 -136 -92 -358 -92
-457 0 -42 -3 -49 -31 -65 l-30 -18 6 -110 c30 -491 206 -894 536 -1224 280
-279 628 -456 1023 -517 134 -21 408 -21 542 0 478 74 907 330 1189 707 70 94
72 98 68 145 -3 38 1 54 16 74 19 23 21 23 21 5 1 -56 18 -44 64 43 137 267
198 527 198 851 1 179 0 185 -22 203 -29 23 -40 23 -40 -2 0 -13 -6 -20 -17
-19 -11 0 -13 3 -5 6 6 2 9 9 6 15 -4 6 -2 13 5 17 20 13 -12 143 -43 174 -15
15 -32 40 -37 56 -7 19 -21 33 -40 40 -21 7 -31 18 -35 41 -4 16 -13 30 -20
30 -8 0 -13 3 -13 8 3 20 -2 32 -16 32 -15 0 -14 17 0 66 2 6 -1 17 -7 25 -8
11 -9 10 -4 -3 3 -12 0 -18 -9 -18 -14 0 -19 15 -17 49 0 8 -4 26 -10 40 l-10
26 -13 -29 c-9 -22 -13 -25 -18 -12 -4 9 -2 16 4 16 6 0 8 9 4 20 -5 14 -2 20
9 20 19 0 21 16 4 23 -10 4 -10 8 1 15 8 6 10 15 5 23 -5 8 -7 21 -6 30 1 8
-4 29 -13 45 -12 24 -15 25 -16 9 0 -19 -1 -18 -11 3 -6 12 -14 22 -18 22 -5
0 -11 11 -14 25 -4 14 -13 25 -21 25 -8 0 -15 5 -15 11 0 11 -70 78 -81 79 -4
0 -10 -7 -13 -16 -4 -9 -2 -13 5 -8 7 4 10 -1 7 -12 -3 -20 -48 -33 -48 -15 0
6 -5 11 -10 11 -6 0 -22 12 -36 28 -13 15 -34 38 -46 51 -12 13 -27 32 -33 44
-13 25 -55 34 -55 11 0 -14 -3 -14 -16 -3 -13 10 -17 10 -26 -2 -8 -11 -9 -10
-4 4 5 14 -1 22 -24 30 -17 6 -28 17 -26 23 5 14 -38 39 -84 49 -19 4 -40 12
-47 17 -7 5 -18 6 -24 2 -8 -4 -9 -3 -5 4 4 8 0 12 -11 12 -11 0 -24 5 -31 12
-6 6 -26 11 -43 10 -39 -1 -69 13 -69 32 0 38 -157 122 -189 102 -5 -4 -12 -2
-16 4 -3 5 -13 10 -22 10 -9 0 -35 9 -58 20 -47 23 -237 45 -295 35 -19 -4
-52 -17 -72 -31 -21 -13 -42 -24 -48 -24 -21 0 -85 -39 -98 -59 -14 -25 -38
-26 -112 -7 -30 7 -79 17 -108 20 -51 7 -53 6 -85 -29 -31 -34 -34 -35 -49
-18 -47 52 -69 233 -32 260 28 20 7 15 -101 -25z m575 -388 c0 -14 2 -14 17 1
13 13 26 15 62 10 25 -4 54 -13 66 -21 11 -8 37 -19 58 -25 20 -5 37 -15 37
-22 0 -7 14 -25 30 -40 17 -16 33 -41 36 -55 11 -49 47 -112 64 -112 8 0 23
-9 33 -20 23 -27 13 -67 -22 -84 -15 -8 -48 -38 -75 -66 -48 -51 -48 -52 -42
-103 10 -69 33 -104 115 -171 101 -82 125 -118 117 -169 -10 -75 -27 -119 -46
-124 -32 -9 -11 -38 41 -57 28 -9 58 -26 67 -37 9 -11 27 -30 39 -43 25 -26
21 -36 -14 -36 -13 0 -35 -11 -48 -24 -20 -20 -23 -33 -22 -80 1 -55 2 -57 25
-51 67 17 82 17 82 4 -1 -22 -47 -69 -80 -80 -19 -7 -30 -18 -30 -30 0 -12 -9
-20 -25 -24 -14 -3 -37 -7 -51 -11 -45 -9 -14 -22 81 -34 79 -9 93 -14 118
-40 30 -32 38 -99 13 -119 -8 -7 -12 -20 -9 -30 5 -19 -38 -61 -64 -61 -7 0
-29 -16 -49 -35 -19 -19 -44 -35 -54 -35 -11 0 -20 -4 -20 -9 0 -18 -65 -29
-195 -35 -167 -7 -239 4 -342 54 -60 30 -94 54 -128 93 -55 63 -123 193 -160
307 -15 47 -46 122 -67 168 -23 47 -38 92 -35 103 3 10 2 19 -1 19 -14 0 -4
71 12 88 9 10 16 32 16 48 0 17 8 39 18 50 9 10 19 28 20 39 2 11 8 22 13 23
6 3 5 10 -1 18 -9 10 -6 15 14 20 28 7 36 24 11 24 -19 0 -19 14 0 30 13 11
15 10 9 -6 -4 -14 -1 -13 15 6 30 36 48 97 33 112 -20 20 -13 59 13 84 14 13
25 32 25 42 0 33 32 52 93 53 83 2 98 -11 104 -94 5 -76 -5 -94 -81 -144 -34
-22 -54 -28 -109 -32 -4 -1 -15 -17 -24 -36 -9 -19 -20 -35 -25 -35 -4 0 -8
-3 -8 -7 0 -5 28 -8 61 -8 34 0 68 -5 77 -11 14 -10 13 -13 -8 -24 -31 -17 -7
-31 34 -19 17 5 39 6 48 3 23 -7 123 22 166 48 24 15 35 31 43 64 6 24 16 44
22 44 7 0 7 4 -1 12 -7 7 -12 26 -12 42 -1 48 -43 110 -92 135 -43 22 -42 39
2 52 39 12 49 30 32 55 -8 12 -83 41 -124 48 -33 5 -98 -11 -98 -24 0 -6 -7
-10 -16 -10 -8 0 -12 5 -9 10 6 10 -6 14 -37 11 -23 -3 -22 1 2 41 22 36 28
104 8 92 -8 -5 -9 -2 -5 9 4 10 1 17 -5 17 -9 0 -9 3 -1 11 6 6 9 17 7 24 -3
7 -1 16 5 20 6 3 11 19 11 34 0 15 9 36 20 46 10 9 19 20 18 24 -2 20 5 31 25
37 12 5 25 7 30 6 4 -1 7 5 7 14 0 10 6 14 15 10 8 -3 15 0 15 6 0 6 3 9 6 5
3 -3 20 3 37 14 39 23 47 24 47 3z m1055 -44 c3 -5 1 -10 -4 -10 -6 0 -11 5
-11 10 0 6 2 10 4 10 3 0 8 -4 11 -10z m465 -360 c0 -5 -4 -10 -10 -10 -5 0
-10 5 -10 10 0 6 5 10 10 10 6 0 10 -4 10 -10z m-960 -74 c0 -8 9 -21 21 -29
20 -15 20 -15 -8 -25 -15 -6 -22 -11 -15 -11 17 -1 15 -41 -2 -41 -7 0 -40
-13 -72 -30 -32 -16 -59 -30 -59 -30 -1 0 -2 13 -3 29 -3 38 26 122 47 138 23
18 91 17 91 -1z m-890 -256 c0 -5 -5 -10 -11 -10 -5 0 -7 5 -4 10 3 6 8 10 11
10 2 0 4 -4 4 -10z m141 -97 c13 -15 12 -15 -8 -4 -24 12 -29 21 -14 21 5 0
15 -7 22 -17z m2019 -340 c0 -21 -3 -24 -9 -14 -5 8 -7 20 -4 28 8 21 13 15
13 -14z m-1675 -759 c76 -10 96 -19 113 -49 9 -16 23 -35 30 -43 6 -7 12 -27
12 -43 0 -23 4 -29 21 -29 16 0 19 -4 15 -17 -7 -18 20 -81 43 -99 8 -6 11
-16 7 -22 -3 -6 -2 -13 4 -17 5 -3 11 0 11 7 1 14 16 -38 18 -62 1 -17 -59
-50 -89 -50 -11 0 -20 -4 -20 -9 0 -5 -24 -8 -54 -7 -29 1 -61 0 -71 -4 -9 -3
-47 -3 -83 2 -56 6 -67 5 -78 -10 -13 -16 -13 -16 -14 1 0 10 -8 20 -17 24
-10 3 -37 14 -60 25 l-41 19 2 79 c1 49 8 91 19 112 9 18 24 52 33 76 10 23
20 42 23 42 5 0 71 54 96 79 6 6 16 8 23 6 7 -3 32 -7 57 -11z m-1465 -439 c0
-14 5 -25 10 -25 6 0 10 7 10 15 0 8 4 15 9 15 5 0 7 -10 3 -22 -3 -13 -1 -19
5 -15 6 4 18 0 28 -7 17 -12 17 -14 -4 -35 l-21 -21 -10 22 c-5 13 -9 19 -9
15 -1 -5 -12 5 -26 21 -26 31 -33 48 -15 37 6 -3 7 1 4 9 -3 9 -1 16 5 16 6 0
11 -11 11 -25z m216 -61 c-3 -9 -6 -22 -6 -30 0 -7 -6 -11 -14 -8 -21 8 -15
54 8 54 12 0 16 -5 12 -16z m-96 -4 c0 -5 -4 -10 -10 -10 -5 0 -10 5 -10 10 0
6 5 10 10 10 6 0 10 -4 10 -10z m32 -32 c-14 -14 -75 -20 -66 -7 3 5 16 9 29
9 13 0 27 5 30 11 4 6 10 8 13 4 3 -3 0 -11 -6 -17z m97 -7 c-13 -11 -19 -23
-15 -30 6 -9 11 -9 22 0 10 8 18 8 27 1 7 -6 26 -9 42 -7 17 2 33 4 38 4 4 1
7 10 7 21 0 24 18 27 27 4 5 -13 7 -13 14 -2 7 11 9 11 9 0 0 -9 7 -11 20 -7
11 3 20 2 20 -3 0 -6 -11 -9 -25 -7 -14 1 -25 -2 -25 -7 0 -5 -4 -6 -10 -3 -5
3 -10 2 -10 -4 0 -5 5 -13 10 -16 6 -3 10 -1 10 4 0 6 4 11 10 11 5 0 7 -7 4
-15 -5 -13 -2 -14 20 -5 30 11 36 -3 9 -19 -10 -6 -15 -11 -10 -11 7 0 -34
-45 -43 -45 -3 0 -11 -4 -17 -8 -7 -5 -17 -5 -23 -2 -5 3 -10 0 -10 -9 0 -8
-6 -16 -12 -19 -7 -2 -10 -8 -6 -12 4 -4 22 -2 40 4 22 8 34 8 36 1 2 -5 10
-10 18 -10 8 0 11 -6 8 -15 -4 -8 -1 -15 5 -15 6 0 11 -5 11 -11 0 -6 -7 -8
-16 -5 -12 4 -15 2 -10 -9 4 -10 -1 -15 -14 -15 -11 0 -20 -4 -20 -10 0 -5 -4
-10 -9 -10 -11 0 -9 33 3 41 13 10 -1 26 -29 31 -16 4 -22 1 -18 -6 8 -12 -23
9 -48 35 -15 14 -15 17 2 27 13 8 19 9 19 2 0 -6 10 0 23 13 12 13 28 22 35
20 6 -3 12 1 12 7 0 7 6 10 13 7 8 -3 14 1 14 9 0 9 -8 14 -21 12 -16 -2 -20
2 -18 16 2 11 -1 15 -8 11 -6 -4 -8 -15 -5 -25 3 -11 0 -20 -10 -24 -15 -5
-19 5 -15 33 1 8 -4 12 -13 8 -8 -3 -20 0 -26 6 -8 8 -11 8 -11 0 0 -8 -8 -8
-27 2 -22 12 -29 12 -47 -1 -24 -16 -46 -18 -46 -4 0 5 11 12 25 16 14 3 31
16 37 27 15 30 32 46 41 40 4 -2 -2 -12 -14 -22z m341 19 c0 -5 -5 -10 -11
-10 -5 0 -7 5 -4 10 3 6 8 10 11 10 2 0 4 -4 4 -10z m-12 -43 c2 -9 -2 -17 -8
-17 -6 0 -8 5 -5 10 3 6 -4 10 -17 10 -18 0 -20 2 -8 10 20 13 34 7 38 -13z
m1357 4 c-3 -6 -11 -11 -16 -11 -5 0 -4 6 3 14 14 16 24 13 13 -3z m-1735 -1
c0 -5 -2 -10 -4 -10 -3 0 -8 5 -11 10 -3 6 -1 10 4 10 6 0 11 -4 11 -10z m320
-25 c0 -35 -10 -54 -26 -48 -11 4 -11 9 1 33 18 35 19 44 3 34 -7 -4 -8 -3 -4
5 11 17 26 3 26 -24z m-374 3 c-3 -13 -5 -26 -5 -31 -1 -4 -9 -2 -20 4 -17 11
-17 13 -2 30 22 24 32 23 27 -3z m1549 2 c3 -5 1 -10 -4 -10 -6 0 -11 5 -11
10 0 6 2 10 4 10 3 0 8 -4 11 -10z m259 -5 c3 -8 1 -15 -4 -15 -6 0 -10 7 -10
15 0 8 2 15 4 15 2 0 6 -7 10 -15z m641 -5 c3 -5 -1 -10 -9 -10 -9 0 -16 5
-16 10 0 6 4 10 9 10 6 0 13 -4 16 -10z m-1548 -22 c-3 -8 -6 -5 -6 6 -1 11 2
17 5 13 3 -3 4 -12 1 -19z m368 -8 c-6 -9 -9 -9 -16 1 -10 17 0 34 13 21 6 -6
7 -16 3 -22z m-697 -5 c-3 -14 -1 -25 4 -25 5 0 3 -7 -5 -15 -16 -15 -60 -12
-65 5 -2 6 -8 8 -13 4 -5 -3 -9 0 -9 5 0 12 9 14 53 13 20 0 27 4 27 19 0 10
3 19 6 19 4 0 4 -11 2 -25z m582 9 c0 -8 -5 -12 -10 -9 -6 4 -8 11 -5 16 9 14
15 11 15 -7z m384 1 c-7 -16 -24 -21 -24 -6 0 8 7 13 27 20 1 1 0 -6 -3 -14z
m682 0 c-4 -12 0 -14 22 -9 15 4 33 11 40 17 9 7 16 7 24 -1 9 -9 8 -12 -2
-13 -8 0 -4 -5 10 -12 l25 -11 -27 -4 c-23 -3 -28 -9 -29 -30 0 -25 -1 -26 -9
-6 -6 15 -24 26 -59 35 -28 7 -51 16 -51 19 0 5 34 22 59 29 2 1 1 -6 -3 -14z
m191 0 c0 -8 -4 -15 -9 -15 -4 0 -8 7 -8 15 0 8 4 15 8 15 5 0 9 -7 9 -15z
m-2299 -17 c-2 -15 -9 -22 -21 -21 -15 1 -17 -4 -13 -23 8 -30 0 -30 -29 -2
-22 21 -23 63 -1 55 6 -2 20 -1 31 4 32 12 37 10 33 -13z m757 12 c3 -6 -1 -7
-9 -4 -18 7 -21 14 -7 14 6 0 13 -4 16 -10z m185 -11 c0 -5 -9 -9 -21 -9 -11
0 -29 -5 -40 -10 -30 -17 -22 3 9 21 27 16 52 15 52 -2z m1300 11 c0 -5 -2
-10 -4 -10 -3 0 -8 5 -11 10 -3 6 -1 10 4 10 6 0 11 -4 11 -10z m100 6 c0 -3
-4 -8 -10 -11 -5 -3 -10 -1 -10 4 0 6 5 11 10 11 6 0 10 -2 10 -4z m-2280 -36
c0 -16 -3 -17 -24 -7 -21 10 -22 13 -7 23 19 15 31 9 31 -16z m560 26 c0 -11
-19 -15 -25 -6 -3 5 1 10 9 10 9 0 16 -2 16 -4z m75 -23 c-8 -8 -19 -12 -24
-9 -5 3 -11 -1 -15 -9 -3 -8 -13 -15 -23 -15 -17 1 -17 1 1 11 14 9 16 13 5
20 -21 13 -3 22 20 9 17 -9 21 -8 21 4 0 9 6 13 15 10 13 -5 13 -8 0 -21z
m425 18 c0 -6 -4 -12 -8 -15 -5 -3 -9 1 -9 9 0 8 4 15 9 15 4 0 8 -4 8 -9z
m107 -18 c-3 -3 -11 -2 -17 2 -9 6 -9 10 1 16 14 8 27 -7 16 -18z m-932 -3
c-2 -4 -25 -17 -50 -29 -25 -12 -45 -26 -45 -33 0 -9 -3 -9 -11 -1 -16 16 -3
31 49 57 45 21 68 24 57 6z m215 11 c0 -18 -18 -21 -30 -6 -10 13 -9 15 9 15
11 0 21 -4 21 -9z m665 -1 c3 -6 -4 -10 -17 -10 -18 0 -20 2 -8 10 19 12 18
12 25 0z m370 1 c-3 -6 2 -14 11 -19 9 -5 14 -15 10 -21 -4 -6 -12 -9 -17 -5
-5 3 -7 10 -4 15 4 5 0 9 -8 9 -7 0 -14 7 -14 15 0 8 7 15 14 15 8 0 12 -4 8
-9z m-961 -17 c20 -20 21 -35 1 -28 -8 4 -15 14 -15 23 0 14 -2 14 -10 1 -5
-8 -10 -10 -10 -4 0 10 9 24 16 24 1 0 10 -7 18 -16z m831 7 c3 -5 1 -12 -5
-16 -5 -3 -10 1 -10 9 0 18 6 21 15 7z m189 -6 c-4 -8 -9 -15 -13 -15 -4 0 -8
7 -8 15 0 8 6 15 13 15 8 0 11 -6 8 -15z m103 3 c0 -7 -12 -14 -26 -15 -24 -1
-25 -1 -6 13 23 17 32 18 32 2z m300 6 c-3 -3 -12 -4 -19 -1 -8 3 -5 6 6 6 11
1 17 -2 13 -5z m39 -3 c-3 -4 7 -6 22 -3 23 4 25 3 15 -10 -7 -8 -11 -18 -8
-22 3 -3 -1 -2 -7 4 -18 15 -45 12 -60 -8 -15 -21 -72 -29 -66 -9 3 6 22 22
44 34 41 22 69 29 60 14z m209 -1 c3 -5 1 -10 -4 -10 -6 0 -11 5 -11 10 0 6 2
10 4 10 3 0 8 -4 11 -10z m-1513 -10 c0 -5 1 -16 2 -22 1 -13 27 -33 58 -44
21 -8 20 -43 -2 -37 -9 2 -20 14 -26 26 -5 12 -15 21 -22 20 -7 -2 -12 2 -12
8 0 6 -7 9 -15 5 -8 -3 -14 0 -12 7 1 7 -4 11 -10 10 -7 -2 -13 2 -13 7 0 6 7
10 15 10 8 0 15 5 15 10 0 6 5 10 10 10 6 0 11 -4 12 -10z m68 -32 c0 -10 -5
-18 -11 -18 -6 0 -8 9 -4 20 4 12 2 20 -5 20 -6 0 -8 5 -4 11 8 14 24 -8 24
-33z m210 32 c0 -5 -5 -10 -11 -10 -5 0 -7 5 -4 10 3 6 8 10 11 10 2 0 4 -4 4
-10z m107 -13 c-6 -19 -25 -19 -36 1 -9 17 -7 18 15 14 14 -2 23 -9 21 -15z
m635 6 c-5 -10 -7 -24 -5 -30 3 -7 1 -13 -4 -13 -10 0 -14 26 -7 48 2 6 8 12
14 12 7 0 8 -6 2 -17z m62 -4 c-6 -11 -24 -2 -24 11 0 5 7 7 15 4 8 -4 12 -10
9 -15z m-534 1 c0 -5 -5 -10 -11 -10 -5 0 -7 5 -4 10 3 6 8 10 11 10 2 0 4 -4
4 -10z m187 4 c-3 -3 -12 -4 -19 -1 -8 3 -5 6 6 6 11 1 17 -2 13 -5z m437 -10
c4 -10 1 -14 -6 -12 -15 5 -23 28 -10 28 5 0 13 -7 16 -16z m-1525 -8 c17 -21
-27 -67 -57 -59 -12 3 -22 10 -22 16 0 6 -6 4 -12 -5 -7 -9 -25 -18 -40 -22
-16 -4 -28 -13 -28 -22 0 -8 -5 -12 -10 -9 -8 5 -7 11 1 21 6 7 8 21 5 30 -5
14 -4 15 9 4 11 -9 18 -10 28 -1 8 6 17 8 20 4 4 -3 7 -1 7 5 0 7 -7 12 -15
12 -8 0 -15 5 -15 11 0 9 16 7 57 -8 6 -3 20 4 30 15 22 25 27 26 42 8z m151
-11 c0 -14 8 -29 20 -35 16 -9 20 -8 20 5 0 13 2 14 14 3 12 -11 12 -16 -4
-33 -10 -11 -19 -24 -19 -30 0 -5 -8 -11 -18 -13 -12 -2 -14 0 -6 5 15 11 5
55 -10 46 -6 -4 -8 0 -4 9 4 11 -1 18 -15 21 -11 3 -17 10 -13 16 3 6 11 9 16
6 5 -3 6 1 3 9 -3 9 -1 16 5 16 6 0 11 -11 11 -25z m520 10 c0 -8 6 -12 14 -9
7 3 16 -2 20 -11 4 -13 10 -14 26 -5 13 7 20 7 20 0 0 -5 -7 -10 -15 -10 -8 0
-15 -4 -15 -10 0 -5 -4 -10 -10 -10 -5 0 -10 7 -10 15 0 8 -6 15 -13 15 -7 0
-20 9 -30 20 -14 17 -14 20 -2 20 8 0 15 -7 15 -15z m150 -7 c0 -5 -9 -4 -20
2 -11 6 -20 12 -20 14 0 2 9 2 20 -1 11 -3 20 -9 20 -15z m451 5 c12 -16 12
-17 -2 -6 -9 7 -19 10 -22 6 -4 -3 -7 -1 -7 5 0 17 16 15 31 -5z m-661 -2 c0
-6 -4 -13 -10 -16 -5 -3 -10 1 -10 9 0 9 5 16 10 16 6 0 10 -4 10 -9z m456 -3
c4 -7 3 -8 -4 -4 -7 4 -12 2 -12 -3 0 -6 -5 -11 -11 -11 -8 0 -8 5 1 15 15 18
17 18 26 3z m274 8 c0 -2 -7 -6 -15 -10 -8 -3 -15 -1 -15 4 0 6 7 10 15 10 8
0 15 -2 15 -4z m-1057 -20 c4 -10 1 -13 -9 -9 -7 3 -14 9 -14 14 0 14 17 10
23 -5z m843 -17 c-34 -26 -41 -24 -14 5 13 13 27 21 31 19 4 -3 -3 -13 -17
-24z m364 20 c0 -5 -8 -9 -17 -9 -16 0 -16 -2 -3 -10 13 -9 13 -12 -3 -24 -10
-7 -15 -20 -11 -29 3 -8 0 -18 -6 -22 -6 -3 -10 -3 -9 2 1 4 0 10 -1 13 -5 11
-8 66 -5 76 4 13 55 16 55 3z m-1398 -21 c-7 -7 -12 -8 -12 -2 0 14 12 26 19
19 2 -3 -1 -11 -7 -17z m388 7 c0 -8 -4 -15 -10 -15 -5 0 -7 7 -4 15 4 8 8 15
10 15 2 0 4 -7 4 -15z m160 -5 c-8 -5 -18 -6 -24 -3 -5 4 -1 10 10 13 24 9 34
2 14 -10z m1167 3 c-9 -2 -15 -9 -12 -14 4 -5 2 -9 -4 -9 -5 0 -12 4 -15 9 -7
10 11 20 34 19 10 0 9 -2 -3 -5z m-807 -15 c0 -4 -7 -8 -15 -8 -8 0 -15 4 -15
8 0 5 7 9 15 9 8 0 15 -4 15 -9z m35 2 c3 -5 1 -10 -4 -10 -6 0 -11 5 -11 10
0 6 2 10 4 10 3 0 8 -4 11 -10z m-991 -21 c-8 -14 -31 -11 -31 5 0 8 8 11 19
8 10 -2 15 -8 12 -13z m266 17 c0 -3 -4 -8 -10 -11 -5 -3 -10 -1 -10 4 0 6 5
11 10 11 6 0 10 -2 10 -4z m304 -4 c2 -4 1 -14 -5 -22 -5 -8 -9 -13 -10 -10 0
3 -2 13 -4 23 -3 17 10 24 19 9z m971 -2 c8 -13 -5 -13 -25 0 -13 8 -13 10 2
10 9 0 20 -4 23 -10z m-1441 -19 c11 -18 -6 -36 -55 -60 -27 -13 -49 -30 -49
-38 0 -7 2 -13 4 -13 2 0 11 -3 20 -6 12 -4 16 0 16 16 0 15 5 20 17 18 25 -5
30 -38 6 -38 -11 0 -23 -4 -28 -9 -18 -15 -74 -30 -80 -21 -3 5 5 12 18 15 19
5 23 11 19 31 -5 28 -22 33 -23 7 0 -15 -2 -15 -8 2 -5 11 -5 21 0 23 4 2 5
10 2 18 -4 12 -8 12 -21 2 -13 -11 -15 -10 -10 3 4 9 2 21 -4 27 -8 8 -7 13 6
18 20 8 33 -3 38 -31 2 -11 12 -21 22 -23 12 -3 16 0 11 8 -5 9 -2 10 13 6 23
-8 39 8 21 20 -9 5 -7 11 6 21 22 15 51 17 59 4z m348 -21 c-6 -15 -11 -19
-16 -12 -4 7 -1 18 6 26 17 19 20 14 10 -14z m481 4 c3 -18 1 -22 -6 -15 -13
13 -18 41 -7 41 4 0 10 -12 13 -26z m394 20 c-3 -3 -12 -4 -19 -1 -8 3 -5 6 6
6 11 1 17 -2 13 -5z m-1657 -14 c0 -5 -5 -10 -11 -10 -5 0 -7 5 -4 10 3 6 8
10 11 10 2 0 4 -4 4 -10z m220 0 c0 -5 -7 -10 -17 -10 -15 0 -15 -1 0 -18 23
-25 21 -32 -5 -32 -17 0 -19 3 -9 9 11 7 9 10 -7 15 -18 6 -20 10 -9 27 12 20
47 27 47 9z m397 4 c-3 -3 -12 -4 -19 -1 -8 3 -5 6 6 6 11 1 17 -2 13 -5z
m835 -9 c0 -5 -5 -11 -11 -13 -6 -2 -11 4 -11 13 0 9 5 15 11 13 6 -2 11 -8
11 -13z m418 5 c0 -5 -2 -10 -4 -10 -3 0 -8 5 -11 10 -3 6 -1 10 4 10 6 0 11
-4 11 -10z m-1343 -6 c-3 -3 -12 -4 -19 -1 -8 3 -5 6 6 6 11 1 17 -2 13 -5z
m215 -26 c-9 -9 -15 -9 -24 0 -10 10 -10 15 2 22 20 12 38 -6 22 -22z m108 22
c0 -5 -7 -10 -15 -10 -8 0 -15 -4 -15 -10 0 -5 5 -10 12 -10 9 0 9 -3 0 -12
-7 -7 -12 -20 -12 -30 0 -11 -6 -18 -12 -16 -7 1 -26 -5 -43 -14 -30 -15 -55
-14 -55 3 0 5 14 9 30 9 17 0 30 5 30 10 0 6 -13 10 -30 10 -16 0 -30 4 -30 8
0 5 14 9 31 9 17 0 34 5 38 12 4 7 15 9 26 5 13 -5 16 -4 11 5 -4 6 -2 18 4
26 14 17 30 20 30 5z m97 -9 c0 -11 -4 -18 -8 -16 -3 3 -16 -5 -27 -16 -12
-11 -22 -15 -22 -9 0 5 -7 10 -15 10 -8 0 -15 5 -15 10 0 7 6 7 18 1 12 -6 23
-5 37 5 10 8 15 14 11 14 -4 0 -4 5 -1 10 10 17 24 11 22 -9z m613 0 c0 -4 -6
-16 -14 -27 -15 -19 -15 -19 -11 1 2 11 4 26 4 33 1 13 21 7 21 -7z m-410 -1
c0 -5 -7 -7 -15 -4 -8 4 -15 8 -15 10 0 2 7 4 15 4 8 0 15 -4 15 -10z m539
-24 c-3 -3 -11 5 -18 17 -13 21 -12 21 5 5 10 -10 16 -20 13 -22z m-1074 14
c3 -5 1 -10 -4 -10 -6 0 -11 5 -11 10 0 6 2 10 4 10 3 0 8 -4 11 -10z m882 4
c-3 -3 -12 -4 -19 -1 -8 3 -5 6 6 6 11 1 17 -2 13 -5z m513 -4 c0 -5 -5 -10
-11 -10 -5 0 -7 5 -4 10 3 6 8 10 11 10 2 0 4 -4 4 -10z m-1890 -24 c0 -2 -9
-2 -20 1 -11 3 -20 9 -20 15 0 5 9 4 20 -2 11 -6 20 -12 20 -14z m1220 15 c0
-11 -31 -24 -38 -16 -3 3 1 5 9 5 11 0 11 2 -1 10 -12 8 -11 10 8 10 12 0 22
-4 22 -9z m-706 -27 c4 -11 1 -12 -14 -4 -10 5 -25 8 -33 5 -7 -3 -14 0 -14 8
0 18 54 10 61 -9z m529 20 c9 -3 13 -13 10 -25 -5 -20 -23 -27 -23 -9 0 6 -7
10 -15 10 -8 0 -15 5 -15 11 0 6 7 8 16 5 8 -3 12 -2 9 4 -7 11 -3 12 18 4z
m304 -16 c-3 -8 -6 -5 -6 6 -1 11 2 17 5 13 3 -3 4 -12 1 -19z m258 12 c3 -5
1 -10 -4 -10 -6 0 -11 5 -11 10 0 6 2 10 4 10 3 0 8 -4 11 -10z m-1287 -14
c-7 -8 -17 -12 -22 -9 -4 3 -2 9 5 14 22 13 31 11 17 -5z m242 10 c0 -3 -4 -8
-10 -11 -5 -3 -10 -1 -10 4 0 6 5 11 10 11 6 0 10 -2 10 -4z m-497 -17 c12 -7
25 -17 30 -23 5 -7 11 -5 18 7 13 22 21 22 37 -3 12 -19 11 -20 -13 -14 -20 5
-25 2 -25 -11 0 -15 -4 -14 -22 7 -13 14 -32 30 -43 36 -27 15 -10 15 18 1z
m309 -1 c-5 -7 -17 -29 -26 -48 l-15 -35 6 40 c7 49 10 55 30 55 11 0 13 -3 5
-12z m878 8 c0 -3 -4 -8 -10 -11 -5 -3 -10 -1 -10 4 0 6 5 11 10 11 6 0 10 -2
10 -4z m-304 -33 c-10 -10 -19 5 -10 18 6 11 8 11 12 0 2 -7 1 -15 -2 -18z
m320 -10 c-11 -11 -17 4 -9 23 7 18 8 18 11 1 2 -10 1 -21 -2 -24z m-812 2
c-4 -8 -1 -15 5 -15 6 0 11 -7 11 -15 0 -8 -4 -15 -10 -15 -5 0 -10 7 -10 15
0 8 -4 15 -10 15 -5 0 -7 7 -4 15 4 8 10 15 15 15 4 0 6 -7 3 -15z m965 -4 c7
-5 9 -11 5 -14 -5 -3 -15 1 -22 9 -14 16 -5 18 17 5z m326 -1 c3 -5 -1 -10
-10 -10 -9 0 -13 5 -10 10 3 6 8 10 10 10 2 0 7 -4 10 -10z m-961 -9 c4 -5 -3
-7 -14 -4 -23 6 -26 13 -6 13 8 0 17 -4 20 -9z m166 -12 c0 -5 -7 -9 -15 -9
-9 0 -12 6 -9 15 6 15 24 11 24 -6z m145 11 c-3 -5 -14 -10 -23 -9 -14 0 -13
2 3 9 27 11 27 11 20 0z m156 -8 c-7 -2 -18 1 -23 6 -8 8 -4 9 13 5 13 -4 18
-8 10 -11z m-379 -17 c-5 -27 -32 -36 -28 -9 2 12 21 32 32 34 1 0 -1 -11 -4
-25z m272 9 c5 -14 4 -15 -9 -4 -17 14 -19 20 -6 20 5 0 12 -7 15 -16z m-536
-6 c7 -7 12 -16 12 -20 0 -15 -15 -8 -28 12 -13 22 -3 27 16 8z m112 -10 c0
-13 -23 -5 -28 10 -2 7 2 10 12 6 9 -3 16 -11 16 -16z m900 12 c0 -5 -5 -10
-11 -10 -5 0 -7 5 -4 10 3 6 8 10 11 10 2 0 4 -4 4 -10z m-1479 -13 c-1 -12
-15 -9 -19 4 -3 6 1 10 8 8 6 -3 11 -8 11 -12z m449 -12 c0 -8 -4 -15 -9 -15
-6 0 -9 -9 -8 -20 1 -11 5 -20 9 -20 5 0 3 -9 -4 -19 -7 -11 -16 -17 -20 -15
-5 3 -6 10 -2 15 3 5 -2 21 -10 34 -10 15 -12 25 -6 25 6 0 8 4 5 10 -3 6 1 7
9 4 9 -3 16 -1 16 5 0 6 5 11 10 11 6 0 10 -7 10 -15z m493 9 c7 -7 -2 -34
-12 -34 -4 0 -7 9 -7 20 0 20 7 25 19 14z m-855 -34 c-1 -30 -8 -35 -12 -8 -1
7 -5 19 -9 26 -5 7 -3 12 7 12 10 0 14 -10 14 -30z m545 8 c7 -23 1 -38 -14
-38 -5 0 -9 14 -9 30 0 35 15 40 23 8z m198 5 c13 -17 13 -17 -6 -3 -11 8 -22
16 -24 17 -2 2 0 3 6 3 6 0 17 -8 24 -17z m-296 -3 c3 -5 2 -10 -4 -10 -5 0
-13 5 -16 10 -3 6 -2 10 4 10 5 0 13 -4 16 -10z m552 -17 c-15 -16 -17 -16
-17 -1 0 9 6 18 13 21 20 7 22 -2 4 -20z m290 7 c1 -11 -2 -18 -8 -15 -11 7
-12 35 -1 35 4 0 8 -9 9 -20z m-1124 -40 c-6 -7 -23 23 -23 40 0 8 6 4 13 -10
8 -14 12 -27 10 -30z m332 39 c10 -14 1 -21 -19 -13 -9 3 -13 10 -10 15 7 12
21 11 29 -2z m-376 -30 c-16 -10 -23 -4 -14 10 3 6 11 8 17 5 6 -4 5 -9 -3
-15z m368 -5 c1 -5 -1 -15 -6 -23 -7 -12 -11 -12 -23 0 -11 10 -12 17 -4 26
12 13 28 12 33 -3z m143 -10 c0 -8 -4 -14 -10 -14 -5 0 -10 9 -10 21 0 11 5
17 10 14 6 -3 10 -13 10 -21z m-460 -32 c0 -9 -7 -11 -22 -7 -36 11 -39 20 -7
20 17 0 29 -5 29 -13z m674 3 c3 -8 1 -15 -3 -15 -5 0 -11 7 -15 15 -3 8 -1
15 3 15 5 0 11 -7 15 -15z m-624 -5 c0 -5 -2 -10 -4 -10 -3 0 -8 5 -11 10 -3
6 -1 10 4 10 6 0 11 -4 11 -10z m300 0 c0 -5 -2 -10 -4 -10 -3 0 -8 5 -11 10
-3 6 -1 10 4 10 6 0 11 -4 11 -10z m440 2 c0 -13 -12 -22 -22 -16 -10 6 -1 24
13 24 5 0 9 -4 9 -8z m-335 -12 c3 -5 1 -10 -4 -10 -6 0 -11 5 -11 10 0 6 2
10 4 10 3 0 8 -4 11 -10z m-120 -18 c-3 -3 -11 0 -18 7 -9 10 -8 11 6 5 10 -3
15 -9 12 -12z m422 -9 c-8 -7 -37 9 -31 19 3 5 12 4 20 -3 8 -6 13 -14 11 -16z
m-175 -35 c-7 -7 -12 -8 -12 -2 0 14 12 26 19 19 2 -3 -1 -11 -7 -17z"/>
<path d="M1750 2640 c0 -5 5 -10 10 -10 6 0 10 5 10 10 0 6 -4 10 -10 10 -5 0
-10 -4 -10 -10z"/>
<path d="M2374 2484 c-20 -19 -24 -31 -19 -52 8 -33 14 -40 23 -26 4 6 33 27
65 48 31 21 57 42 57 47 0 5 -23 9 -50 9 -41 0 -56 -5 -76 -26z"/>
<path d="M2535 2193 c-16 -3 -34 -9 -39 -14 -6 -5 -18 -9 -28 -9 -10 0 -18 -5
-18 -10 0 -7 13 -9 33 -5 28 5 76 12 100 14 4 1 7 8 7 16 0 8 -6 14 -12 14 -7
-1 -26 -4 -43 -6z"/>
<path d="M2324 2140 c-6 -6 -28 -13 -50 -15 -44 -6 -74 -34 -74 -71 0 -30 5
-30 45 0 17 13 47 31 66 39 19 8 43 24 53 36 19 21 19 21 -5 21 -14 0 -30 -5
-35 -10z"/>
<path d="M2905 820 c-3 -6 1 -7 9 -4 18 7 21 14 7 14 -6 0 -13 -4 -16 -10z"/>
<path d="M3654 3503 c19 -21 26 -38 22 -49 -6 -15 -10 -14 -39 12 l-32 29 31
-35 c80 -92 178 -238 251 -375 l43 -80 -5 47 c-4 50 -12 71 -23 64 -4 -2 -13
2 -19 10 -10 10 -10 15 3 22 13 7 9 20 -31 88 -56 95 -163 239 -202 274 l-28
25 29 -32z"/>
<path d="M3956 3027 c4 -10 0 -19 -9 -23 -12 -4 -13 -11 -4 -35 6 -16 14 -29
17 -29 8 0 5 88 -4 97 -4 4 -4 0 0 -10z"/>
<path d="M4312 2183 c7 -98 -9 -452 -27 -606 -61 -502 -194 -962 -411 -1416
-41 -85 -74 -156 -74 -158 0 -1 140 -3 310 -3 l310 0 0 1089 0 1088 -56 37
-56 38 4 -69z"/>
</g>
</svg>
