<svg width="903" height="923" viewBox="0 0 903 923" fill="none" xmlns="http://www.w3.org/2000/svg">
<g clip-path="url(#clip0)">
<path d="M174.861 631.945C176.91 635.12 181.185 636.04 184.36 633.99L197.348 625.604C198.142 625.092 199.211 625.322 199.723 626.115L201.587 629.002C202.099 629.795 201.869 630.864 201.075 631.376L173.656 649.08C170.481 651.13 169.561 655.405 171.611 658.58C173.661 661.755 177.935 662.675 181.11 660.625L208.53 642.921C209.323 642.409 210.392 642.639 210.905 643.433L212.768 646.319C213.281 647.113 213.05 648.181 212.257 648.694L179.065 670.125C175.89 672.175 174.97 676.45 177.02 679.625C179.07 682.799 183.344 683.72 186.519 681.67L219.711 660.239C220.505 659.726 221.573 659.957 222.086 660.75L223.95 663.637C224.462 664.43 224.232 665.499 223.438 666.011L196.019 683.715C192.844 685.765 191.924 690.04 193.973 693.215C196.023 696.39 200.298 697.31 203.473 695.26L246.947 667.19L243.833 675.233C242.118 679.663 244.327 684.627 248.757 686.342C253.187 688.057 258.151 685.848 259.865 681.418L276.39 638.646C277.578 635.579 277.224 632.101 275.442 629.341L252.427 593.696C249.83 589.673 244.822 587.974 240.314 589.581L216.897 597.927C214.053 598.946 211.221 600.34 208.673 601.934L176.906 622.445C173.731 624.495 172.811 628.77 174.861 631.945V631.945ZM257.653 639.831C258.678 641.418 258.217 643.555 256.63 644.58C255.043 645.605 252.905 645.145 251.88 643.558C250.855 641.97 251.315 639.833 252.903 638.808C254.49 637.783 256.628 638.243 257.653 639.831ZM240.335 651.012C241.36 652.599 240.9 654.737 239.313 655.762C237.725 656.787 235.588 656.327 234.563 654.739C233.538 653.152 233.998 651.014 235.585 649.989C237.173 648.964 239.31 649.425 240.335 651.012ZM255.971 624.559C256.996 626.146 256.536 628.283 254.948 629.308C253.361 630.333 251.223 629.873 250.198 628.286C249.173 626.698 249.634 624.561 251.221 623.536C252.809 622.511 254.946 622.971 255.971 624.559ZM238.653 635.74C239.678 637.327 239.218 639.465 237.631 640.49C236.043 641.515 233.906 641.054 232.881 639.467C231.856 637.88 232.316 635.742 233.904 634.717C235.491 633.692 237.628 634.152 238.653 635.74ZM236.972 620.468C237.997 622.055 237.536 624.193 235.949 625.218C234.362 626.243 232.224 625.782 231.199 624.195C230.174 622.607 230.634 620.47 232.222 619.445C233.809 618.42 235.947 618.88 236.972 620.468ZM244.79 607.241C245.814 608.828 245.354 610.966 243.767 611.991C242.179 613.016 240.042 612.556 239.017 610.968C237.992 609.381 238.452 607.243 240.04 606.218C241.627 605.193 243.765 605.654 244.79 607.241ZM217.972 616.377C218.997 617.965 218.537 620.102 216.95 621.127C215.362 622.152 213.225 621.692 212.2 620.104C211.175 618.517 211.635 616.379 213.223 615.354C214.81 614.329 216.947 614.79 217.972 616.377Z" fill="#5CA58D"/>
</g>
<path d="M545.994 90.5192C539.34 98.7289 542.705 107.348 539.089 111.808C529.476 123.667 503.377 84.6247 503.377 84.6247C503.377 84.6247 487.735 136.26 471.264 122.909C464.18 117.166 467.935 108.321 460.078 101.952C453.058 96.2615 444.752 98.7409 439.408 105.334C433.853 112.187 432.506 121.485 439.912 127.488C448.091 134.118 456.716 130.719 461.159 134.321C474.926 145.48 438.636 173.693 438.636 173.693L504.528 227.104C504.528 227.104 541.276 198.361 527.492 187.188C523.048 183.586 513.15 188.669 504.971 182.039C497.565 176.036 498.518 167.224 504.02 160.437C509.417 153.779 517.723 151.299 524.743 156.989C532.6 163.358 528.844 172.204 535.929 177.946C547.951 187.692 561.8 156.429 570.064 146.235C570.064 146.235 540.75 133.852 550.455 121.879C556.219 114.768 565.044 118.494 571.437 110.607C577.149 103.561 574.702 95.2579 568.069 89.881C561.306 84.3996 552.02 83.0853 545.994 90.5192Z" fill="#6EC7AA"/>
<path d="M196.773 454.621L218.698 445.523L223.531 450.434L193.689 461.11L190.088 457.452L201.263 427.808L206.097 432.719L196.773 454.621ZM239.666 450.34L235.682 454.26L211.929 399.652L215.888 395.756L239.666 450.34ZM257.188 394.868L234.238 404.678L229.553 399.917L260.273 388.329L263.873 391.987L251.821 422.544L247.086 417.733L257.188 394.868Z" fill="#16333F"/>
<path fill-rule="evenodd" clip-rule="evenodd" d="M174.864 275.52C251.395 157.23 341.642 286.053 401.803 279.444C467.491 265.6 490.287 205.071 555.917 191.104C648.796 161.485 699.876 246.942 709.994 334.995C723.035 448.481 772.743 429.708 782.731 486.069C792.719 542.431 776.077 578.859 739.965 603.59C662.378 656.722 612.397 578.062 598.007 611.445C576.955 660.285 645.889 665.854 605.114 739.112C573.956 795.09 525.551 790.246 472.765 740.646C424.841 681.651 435.56 759.73 359.091 760.604C297.214 761.311 264.422 678.469 240.438 625.835C216.783 573.924 230.97 523.967 227.553 471.936C223.703 413.297 110.182 459.89 174.864 275.52Z" fill="#FDC128" fill-opacity="0.47"/>
<path fill-rule="evenodd" clip-rule="evenodd" d="M416.603 87.8744C556.86 74.5465 511.776 225.236 554.272 268.33C605.871 311.273 667.49 291.615 719.151 334.436C799.988 388.926 764.631 481.995 701.834 544.542C620.898 625.156 666.452 652.506 628.434 695.296C590.416 738.086 551.519 747.624 509.722 734.633C419.924 706.723 450.631 618.731 415.519 628.147C364.15 641.923 402.534 699.452 319.778 712.9C256.543 723.176 230.322 682.201 236.493 610.031C253.049 535.849 198.448 592.681 150.337 533.237C111.407 485.137 156.054 408.035 182.468 356.577C208.519 305.827 256.506 285.972 295.203 251.023C338.814 211.635 231.859 151.48 416.603 87.8744Z" fill="#FDC128" fill-opacity="0.22"/>
<path fill-rule="evenodd" clip-rule="evenodd" d="M184.111 612.431C112.271 491.234 267.802 467.787 288.672 410.976C305.524 345.995 261.477 298.633 278.193 233.648C293.028 137.296 392.29 129.61 475.638 159.756C583.06 198.61 588.384 145.744 643.297 161.896C698.21 178.048 723.418 209.17 729.482 252.516C742.511 345.644 649.824 355.373 673.308 383.123C707.665 423.719 743.345 364.475 790.785 433.604C827.035 486.428 801.144 527.613 733.229 552.793C659.067 569.435 733.751 594.604 700.484 663.463C673.566 719.182 584.789 711.658 526.98 709.697C469.967 707.764 431.552 672.817 383.443 652.709C329.223 630.047 320.395 752.44 184.111 612.431Z" fill="#FDC128"/>
<g clip-path="url(#clip1)">
<g clip-path="url(#clip2)">
<path d="M482.08 439.534C480.464 439.534 479.142 440.856 479.142 442.472V449.081C479.142 449.485 478.812 449.816 478.408 449.816H476.939C476.535 449.816 476.205 449.485 476.205 449.081V435.128C476.205 433.513 474.883 432.191 473.267 432.191C471.651 432.191 470.33 433.513 470.33 435.128V449.081C470.33 449.485 469.999 449.816 469.595 449.816H468.126C467.723 449.816 467.392 449.485 467.392 449.081V432.191C467.392 430.575 466.07 429.253 464.455 429.253C462.839 429.253 461.517 430.575 461.517 432.191V449.081C461.517 449.485 461.187 449.816 460.783 449.816H459.314C458.91 449.816 458.58 449.485 458.58 449.081V435.128C458.58 433.513 457.258 432.191 455.642 432.191C454.026 432.191 452.705 433.513 452.705 435.128V457.251L450.538 454.268C449.345 452.625 447.05 452.267 445.407 453.46C443.764 454.653 443.406 456.948 444.599 458.591L456.129 474.445C456.955 475.583 458.286 476.262 459.69 476.262H477.829C479.876 476.262 481.648 474.858 482.116 472.866L484.549 462.52C484.843 461.263 484.999 459.923 485.017 458.637V442.472C485.017 440.856 483.695 439.534 482.08 439.534ZM460.048 467.441C459.241 467.441 458.58 466.78 458.58 465.972C458.58 465.164 459.241 464.503 460.048 464.503C460.856 464.503 461.517 465.164 461.517 465.972C461.517 466.78 460.856 467.441 460.048 467.441ZM460.048 458.628C459.241 458.628 458.58 457.967 458.58 457.159C458.58 456.352 459.241 455.691 460.048 455.691C460.856 455.691 461.517 456.352 461.517 457.159C461.517 457.967 460.856 458.628 460.048 458.628ZM465.923 470.378C465.116 470.378 464.455 469.717 464.455 468.909C464.455 468.102 465.116 467.441 465.923 467.441C466.731 467.441 467.392 468.102 467.392 468.909C467.392 469.717 466.731 470.378 465.923 470.378ZM465.923 461.566C465.116 461.566 464.455 460.905 464.455 460.097C464.455 459.289 465.116 458.628 465.923 458.628C466.731 458.628 467.392 459.289 467.392 460.097C467.392 460.905 466.731 461.566 465.923 461.566ZM471.798 464.503C470.991 464.503 470.33 463.842 470.33 463.034C470.33 462.227 470.991 461.566 471.798 461.566C472.606 461.566 473.267 462.227 473.267 463.034C473.267 463.842 472.606 464.503 471.798 464.503ZM474.736 470.378C473.928 470.378 473.267 469.717 473.267 468.909C473.267 468.102 473.928 467.441 474.736 467.441C475.544 467.441 476.205 468.102 476.205 468.909C476.205 469.717 475.544 470.378 474.736 470.378ZM477.673 458.628C476.866 458.628 476.205 457.967 476.205 457.159C476.205 456.352 476.866 455.691 477.673 455.691C478.481 455.691 479.142 456.352 479.142 457.159C479.142 457.967 478.481 458.628 477.673 458.628Z" fill="#CF8E07"/>
</g>
<g clip-path="url(#clip3)">
<g clip-path="url(#clip4)">
<path d="M428.624 533.828L426.778 535.673C425.799 536.652 424.472 537.202 423.088 537.202C421.703 537.202 420.376 536.652 419.397 535.673L400.943 517.219C399.964 516.241 399.414 514.913 399.414 513.529C399.414 512.144 399.964 510.817 400.943 509.838L430.469 480.312C431.448 479.333 432.776 478.783 434.16 478.783C435.544 478.783 436.872 479.333 437.851 480.312L456.305 498.766C457.284 499.744 457.833 501.072 457.833 502.456C457.833 503.841 457.284 505.168 456.305 506.147L454.459 507.993" stroke="#16333F" stroke-width="2" stroke-linecap="round" stroke-linejoin="round"/>
<path d="M437.851 517.22L458.15 519.065L439.696 537.519L437.851 517.22Z" stroke="#16333F" stroke-width="2" stroke-linecap="round" stroke-linejoin="round"/>
</g>
</g>
</g>
<path d="M396.853 409.348C390.198 417.558 393.563 426.177 389.947 430.638C380.335 442.497 354.235 403.454 354.235 403.454C354.235 403.454 338.593 455.089 322.122 441.738C315.038 435.996 318.794 427.15 310.937 420.781C303.917 415.091 295.611 417.57 290.266 424.164C284.712 431.016 283.364 440.314 290.77 446.318C298.949 452.947 307.574 449.548 312.018 453.15C325.785 464.309 289.494 492.522 289.494 492.522L355.386 545.933C355.386 545.933 392.134 517.19 378.35 506.017C373.907 502.415 364.009 507.498 355.83 500.868C348.423 494.865 349.376 486.054 354.878 479.266C360.276 472.608 368.581 470.128 375.601 475.819C383.458 482.187 379.703 491.033 386.787 496.776C398.81 506.521 412.659 475.259 420.922 465.064C420.922 465.064 391.608 452.681 401.314 440.708C407.078 433.597 415.903 437.323 422.296 429.436C428.007 422.39 425.56 414.087 418.927 408.71C412.165 403.229 402.879 401.914 396.853 409.348Z" fill="#C81E2A"/>
<path d="M721.402 503.746C713.748 496.458 704.888 499.126 700.73 495.167C689.674 484.64 730.672 461.733 730.672 461.733C730.672 461.733 680.447 442.028 695.067 426.673C701.355 420.069 709.874 424.517 716.848 417.192C723.08 410.648 721.27 402.171 715.123 396.318C708.735 390.235 699.573 388.152 692.999 395.056C685.739 402.681 688.441 411.549 684.496 415.691C672.276 428.526 647.043 390.104 647.043 390.104L588.554 451.532C588.554 451.532 614.278 490.453 626.514 477.603C630.458 473.46 626.18 463.189 633.44 455.564C640.014 448.659 648.722 450.311 655.049 456.336C661.257 462.246 663.066 470.723 656.835 477.267C649.861 484.592 641.342 480.144 635.054 486.748C624.382 497.957 654.442 514.252 663.945 523.301C663.945 523.301 678.624 495.067 689.786 505.695C696.416 512.007 691.999 520.507 699.351 527.508C705.92 533.763 714.391 531.985 720.28 525.801C726.282 519.497 728.332 510.345 721.402 503.746Z" fill="#CF8E07"/>
<path d="M742.94 397.518L669.675 450.931" stroke="#16333F" stroke-width="2" stroke-linecap="round" stroke-linejoin="round"/>
<path d="M679.601 387.592L733.013 460.857" stroke="#16333F" stroke-width="2" stroke-linecap="round" stroke-linejoin="round"/>
<path d="M576.556 445.335L632.822 554.597" stroke="#4CAABC" stroke-width="2" stroke-linecap="round" stroke-linejoin="round"/>
<path d="M550.058 528.099L659.32 471.833" stroke="#4CAABC" stroke-width="2" stroke-linecap="round" stroke-linejoin="round"/>
<g clip-path="url(#clip5)">
<path d="M345.617 557.015L282.956 728.557" stroke="#4CAABC" stroke-width="2" stroke-linecap="round" stroke-linejoin="round"/>
<path d="M228.516 611.455L400.058 674.116" stroke="#4CAABC" stroke-width="2" stroke-linecap="round" stroke-linejoin="round"/>
<path d="M349.16 584.647L394.399 593.452L381.788 642.879L434.933 653.224" stroke="#CF8E07" stroke-width="2"/>
<path d="M311.575 613.451L280.466 698.615" stroke="#16333F" stroke-width="2" stroke-linecap="round" stroke-linejoin="round"/>
<path d="M253.439 640.478L338.603 671.587" stroke="#16333F" stroke-width="2" stroke-linecap="round" stroke-linejoin="round"/>
<path d="M261.691 528.298H257.003C255.611 522.907 252.735 518.015 248.702 514.177C244.668 510.339 239.639 507.71 234.186 506.587C228.732 505.465 223.074 505.894 217.852 507.827C212.631 509.76 208.056 513.119 204.648 517.522C201.241 521.925 199.136 527.195 198.574 532.734C198.012 538.274 199.015 543.859 201.469 548.857C203.923 553.855 207.729 558.064 212.456 561.007C217.182 563.949 222.64 565.507 228.207 565.502H261.691C266.625 565.502 271.356 563.543 274.845 560.054C278.333 556.565 280.293 551.834 280.293 546.9C280.293 541.967 278.333 537.235 274.845 533.747C271.356 530.258 266.625 528.298 261.691 528.298Z" stroke="#CF8E07" stroke-width="2" stroke-linecap="round" stroke-linejoin="round"/>
<path d="M233.732 569.909L257.103 574.062L258.528 580.803L227.636 573.713L226.575 568.691L251.964 549.743L253.389 556.485L233.732 569.909ZM272.17 589.419L266.701 590.575L276.122 531.774L281.557 530.626L272.17 589.419ZM316.825 552.135L292.206 548.031L290.825 541.495L322.947 548.29L324.008 553.312L297.388 572.555L295.993 565.951L316.825 552.135Z" fill="#C81E2A"/>
</g>
<path d="M480.732 508.909L504.103 513.061L505.528 519.803L474.636 512.712L473.575 507.69L498.964 488.743L500.389 495.484L480.732 508.909ZM519.17 528.418L513.701 529.574L523.122 470.774L528.557 469.625L519.17 528.418ZM563.825 491.134L539.206 487.03L537.825 480.495L569.947 487.289L571.008 492.311L544.388 511.555L542.993 504.951L563.825 491.134Z" fill="#16333F"/>
<path d="M472.236 335.813L450.259 307.221L410.493 310.634L384.675 277.047" stroke="#C81E2A" stroke-width="2"/>
<path d="M505.14 324.039L492.427 266.039L432.01 240.182L417.075 172.047" stroke="#C81E2A" stroke-width="2"/>
<path d="M535.49 318.486L534.507 281.894L569.182 260.94L568.027 217.953" stroke="#C81E2A" stroke-width="2"/>
<path d="M331.46 199.524L298.187 241.764L308.784 261.433L329.063 270.812L369.196 235.025L331.46 199.524ZM354.81 236.356L349.952 240.574L334.05 234.774L334.011 234.756L344.968 245.065L330.116 258.331L317.804 252.082L310.803 240.069L317.027 232.193L321.833 236.714L318.595 240.785L322.531 246.959L329.334 250.498L335.41 244.769L319.114 229.345L319.124 229.335L319.095 229.326L323.035 224.43L338.381 230.19L339.27 230.525L327.193 219.163L331.009 213.964L354.81 236.356Z" fill="#16333F"/>
<path d="M434.287 333.683L451.782 384.83" stroke="#16333F" stroke-width="2" stroke-linecap="round" stroke-linejoin="round"/>
<path d="M417.461 368.004L468.608 350.509" stroke="#16333F" stroke-width="2" stroke-linecap="round" stroke-linejoin="round"/>
<path d="M432.237 670.872H384.6C381.014 670.872 378.104 673.782 378.104 677.368V725.005C378.104 728.592 381.014 731.501 384.6 731.501H432.237C435.823 731.501 438.733 728.592 438.733 725.005V677.368C438.733 673.782 435.823 670.872 432.237 670.872ZM411.098 718.158C411.098 724.058 407.634 726.751 402.586 726.751C398.025 726.751 395.386 724.396 394.033 721.541L398.675 718.74C399.568 720.323 400.38 721.663 402.342 721.663C404.21 721.663 405.401 720.932 405.401 718.076V698.71H411.098V718.158V718.158ZM424.577 726.751C419.286 726.751 415.862 724.234 414.197 720.932L418.839 718.252C420.057 720.242 421.654 721.717 424.455 721.717C426.81 721.717 428.326 720.539 428.326 718.902C428.326 716.953 426.783 716.263 424.171 715.113L422.75 714.504C418.636 712.758 415.916 710.552 415.916 705.91C415.916 701.633 419.177 698.386 424.252 698.386C427.879 698.386 430.478 699.644 432.345 702.946L427.906 705.788C426.932 704.042 425.876 703.352 424.239 703.352C422.574 703.352 421.519 704.408 421.519 705.788C421.519 707.493 422.574 708.184 425.024 709.253L426.445 709.862C431.29 711.932 434.01 714.057 434.01 718.821C434.01 723.936 429.977 726.751 424.577 726.751V726.751Z" fill="#16333F"/>
<g clip-path="url(#clip6)">
<path d="M405.13 559.349L391.387 598.95L404.203 610.74L421.626 612.526L442.087 575.941L405.13 559.349ZM429.266 584.975L411.576 577.033L409.836 581.965L426.737 589.552L419.015 603.247L408.427 601.616L408.414 601.644L408.308 601.597L399.988 594.705L402.686 587.15L407.277 589.211L405.967 593.029L410.49 596.737L416.285 597.661L419.55 591.934L403.487 584.723L408.546 570.157L431.75 580.574L429.266 584.975V584.975Z" fill="#C81E2A"/>
</g>
<g clip-path="url(#clip7)">
<path d="M528.722 447.278C529.275 448.835 530.275 450.198 531.598 451.19L538.079 456.056C539.187 456.888 540.483 457.433 541.852 457.643C543.221 457.854 544.621 457.722 545.927 457.26L561.21 451.858C562.515 451.397 563.687 450.619 564.62 449.595C565.553 448.571 566.218 447.333 566.557 445.99L568.54 438.131C568.945 436.528 568.869 434.841 568.319 433.281L564.972 423.78L525.353 437.785L528.722 447.278ZM480.566 386.754C484.45 397.742 492.068 406.327 501.489 411.613C507.23 414.835 517.077 422.326 522.424 429.691C522.457 429.751 522.487 429.813 522.52 429.874L562.204 415.847C562.191 415.779 562.176 415.714 562.163 415.644C561.694 406.555 564.646 394.54 567.087 388.426C571.093 378.393 571.623 366.928 567.739 355.939C559.214 331.821 532.719 319.202 508.609 327.808C483.373 336.815 472.422 363.715 480.566 386.754ZM517.149 351.534C506.225 355.396 500.479 367.426 504.34 378.35C505.114 380.539 503.968 382.939 501.779 383.713C499.589 384.487 497.189 383.34 496.416 381.151C491.009 365.856 499.053 349.016 514.348 343.61C516.537 342.836 518.937 343.982 519.711 346.171C520.485 348.361 519.339 350.76 517.149 351.534Z" fill="#C81E2A"/>
</g>
<path d="M379.556 312.963C376.091 317.238 377.843 321.726 375.96 324.049C370.955 330.224 357.363 309.893 357.363 309.893C357.363 309.893 349.218 336.782 340.641 329.829C336.952 326.839 338.907 322.232 334.816 318.916C331.16 315.953 326.835 317.244 324.052 320.677C321.16 324.246 320.458 329.088 324.315 332.214C328.574 335.666 333.065 333.896 335.379 335.772C342.548 341.583 323.65 356.275 323.65 356.275L357.963 384.088C357.963 384.088 377.099 369.12 369.921 363.302C367.607 361.426 362.453 364.073 358.194 360.621C354.337 357.495 354.833 352.906 357.698 349.372C360.509 345.904 364.834 344.613 368.49 347.576C372.581 350.893 370.625 355.499 374.314 358.49C380.575 363.564 387.787 347.285 392.09 341.976C392.09 341.976 376.825 335.528 381.879 329.293C384.881 325.59 389.476 327.53 392.805 323.423C395.78 319.754 394.505 315.43 391.051 312.63C387.53 309.776 382.694 309.091 379.556 312.963Z" fill="#C81E2A"/>
<g clip-path="url(#clip8)">
<path d="M617.963 309.52L610.697 307.917C606.843 307.067 603.484 304.721 601.36 301.395C599.235 298.068 598.519 294.034 599.369 290.18L615.393 217.518C616.243 213.663 618.59 210.305 621.916 208.18C625.242 206.056 629.276 205.34 633.131 206.19L749.39 231.828C753.245 232.678 756.603 235.025 758.728 238.351C760.852 241.677 761.568 245.711 760.718 249.566L744.694 322.228C743.844 326.082 741.498 329.441 738.171 331.565C734.845 333.69 730.811 334.406 726.957 333.556L719.691 331.953" stroke="#16333F" stroke-width="2" stroke-linecap="round" stroke-linejoin="round"/>
<path d="M672.032 306.204L698.749 357.813L626.086 341.789L672.032 306.204Z" stroke="#16333F" stroke-width="2" stroke-linecap="round" stroke-linejoin="round"/>
<path d="M646.522 257.322L665.629 271.406L663.916 278.081L639.372 258.028L640.648 253.056L671.806 247.331L670.093 254.005L646.522 257.322ZM672.324 291.852L666.91 290.463L701.427 241.937L706.807 243.317L672.324 291.852ZM728.881 278.234L708.635 263.639L710.295 257.169L736.074 277.502L734.798 282.474L702.406 287.919L704.083 281.381L728.881 278.234Z" fill="#CF8E07"/>
</g>
<g clip-path="url(#clip9)">
<path d="M285.024 355.073L280.967 357.494C276.978 353.546 271.962 350.797 266.488 349.557C261.015 348.318 255.303 348.639 250.003 350.484C244.703 352.328 240.027 355.622 236.505 359.992C232.984 364.362 230.758 369.631 230.082 375.202C229.406 380.773 230.306 386.422 232.68 391.508C235.054 396.593 238.807 400.91 243.512 403.969C248.217 407.028 253.686 408.705 259.297 408.812C264.908 408.918 270.436 407.448 275.253 404.569L304.237 387.277C308.508 384.73 311.591 380.59 312.809 375.769C314.028 370.947 313.281 365.839 310.733 361.569C308.185 357.298 304.045 354.215 299.224 352.997C294.403 351.778 289.295 352.525 285.024 355.073Z" stroke="#C81E2A" stroke-width="2" stroke-linecap="round" stroke-linejoin="round"/>
</g>
<path fill-rule="evenodd" clip-rule="evenodd" d="M601.218 742.004C578.62 716.583 563.325 685.429 565.881 650.52C573.245 549.937 719.339 572.064 747.758 622.83C776.176 673.595 772.799 802.365 736.071 811.438C721.424 815.057 690.221 806.193 658.464 787.848V865.653L578.074 843.556L601.218 742.004Z" fill="#C81E2A"/>
<path fill-rule="evenodd" clip-rule="evenodd" d="M799.9 552.454C797.463 544.243 790.907 537.213 782.072 535.128C779.93 534.622 777.717 534.418 775.513 534.503C774.722 534.533 774.5 534.752 774.13 534.222C773.856 533.829 773.85 532.869 773.737 532.407C773.386 530.971 772.947 529.553 772.405 528.172C770.557 523.461 767.45 519.292 763.705 515.779C756.701 509.209 747.236 504.674 737.403 503.853C732.021 503.405 726.678 504.243 721.59 505.92C718.956 506.789 716.402 507.871 713.914 509.066C713.165 509.426 710.735 511.189 709.983 511.075C709.153 510.949 707.484 508.972 706.809 508.475C698.465 502.34 688.162 499.928 677.769 500.002C666.038 500.085 654.742 500.646 644.959 507.5C642.888 508.951 640.916 510.54 639.038 512.212C638.049 513.093 637.091 514.006 636.177 514.958C635.626 515.532 635.089 516.119 634.573 516.722C633.696 517.745 633.836 518.081 632.609 517.367C627.901 514.626 622.445 513.344 616.949 513.991C613.686 514.376 610.511 515.314 607.496 516.55C606.47 516.971 604.094 518.649 603 518.666C601.914 518.682 599.572 517.126 598.454 516.731C592.416 514.594 585.908 514.068 579.561 515.055C573.014 516.073 566.583 518.577 561.037 522.036C558.369 523.7 556.041 525.543 554.172 528.018C553.364 529.086 552.635 530.216 551.72 531.206C551.184 531.786 550.123 532.381 549.836 533.115C550.008 532.676 542.676 529.967 541.985 529.794C538.299 528.871 534.546 529.058 530.936 530.197C524.149 532.337 518.313 537.138 513.516 542.059C511.052 544.587 508.896 547.381 507.066 550.358C506.189 551.784 505.387 553.251 504.653 554.749C504.297 555.475 504.061 556.382 503.593 557.036C502.989 557.878 502.583 557.894 501.49 558.262C495.935 560.127 490.872 563.283 487.016 567.549C483.116 571.864 480.585 577.178 479.524 582.774C479.462 583.104 479.424 584.47 479.223 584.649C478.947 584.894 477.83 584.786 477.407 584.833C475.944 584.998 474.491 585.242 473.058 585.568C470.415 586.167 467.843 587.049 465.41 588.203C455.925 592.701 449.143 601.132 445.823 610.62C442.34 620.576 442.402 631.984 446.565 641.754C447.237 643.333 448.037 644.864 448.977 646.314C449.554 647.203 449.74 647.205 449.366 648.139C448.948 649.177 448.185 650.186 447.689 651.201C446.071 654.512 444.94 658.023 444.225 661.61C443.053 667.493 442.472 673.676 443.629 679.604C444.166 682.356 445.101 685.047 446.528 687.499C447.256 688.749 448.108 689.935 449.069 691.031C449.568 691.601 450.099 692.145 450.653 692.666C450.97 692.963 451.386 693.224 451.656 693.556C452.314 694.367 452.452 693.7 452.113 694.89C451.638 696.554 450.562 698.196 449.903 699.815C449.224 701.484 448.611 703.175 448.05 704.884C446.913 708.342 445.952 711.864 445.351 715.446C444.197 722.323 444.399 729.651 447.794 735.963C449.245 738.663 451.327 741.031 453.852 742.873C455.088 743.774 456.427 744.551 457.831 745.189C458.553 745.518 459.474 745.659 459.803 746.327C460.158 747.047 459.632 748.475 459.512 749.279C458.468 756.274 457.945 763.618 460.114 770.473C462.112 776.786 466.512 782.36 472.224 786.051C483.306 793.21 498.243 792.807 509.887 787.075C512.922 785.581 515.761 783.726 518.294 781.538C524.744 789.859 538.017 789.596 547.444 787.225C559.188 784.271 568.612 776.444 574.042 766.161C581.466 774.823 597.048 772.013 602.196 762.616C603.456 760.316 604.204 757.781 604.572 755.216C604.765 753.868 604.642 752.507 604.787 751.169C604.973 749.464 606.161 747.807 606.845 746.158C608.175 742.948 609.001 739.632 609.036 736.169C609.055 734.361 608.816 732.6 608.637 730.806C608.475 729.192 608.942 727.688 609.208 726.095C606.196 726.57 602.526 725.791 599.688 724.954C596.903 724.133 594.295 721.97 592.329 719.994C587.765 715.406 584.977 709.392 583.071 703.406C578.885 690.268 580.601 674.506 594.389 667.296C600.812 663.937 620.055 663.948 627.705 665.608C635.749 667.354 644.868 684.364 645.317 685.963C645.595 686.952 645.455 688.177 646.403 688.836C648.488 690.286 651.926 687.77 653.464 686.529C656.117 684.386 658.009 681.534 659.648 678.644C663.22 672.347 666.099 665.595 668.133 658.702C669.701 653.387 670.703 647.907 672.753 642.728C674.792 637.575 678.007 632.968 683.005 630.049C688.443 626.873 694.675 625.201 700.645 623.205C706.562 621.227 712.376 618.81 716.963 614.613C717.971 613.69 718.951 612.709 719.763 611.623C720.403 610.765 721.037 609.123 722.013 608.579C723.531 607.733 725.746 609.933 727.059 610.732C733.534 614.674 738.937 620.171 743.294 626.176C747.627 632.149 751.182 637.896 754.072 644.565C756.215 649.511 757.552 655.846 761.322 659.899C763.004 661.709 775.513 662.804 779.564 661.224C783.615 659.644 788.156 655.541 789.516 652.969C790.908 650.337 791.241 647.446 790.646 644.565C790.296 642.87 789.582 641.286 789.191 639.621C788.862 638.223 788.563 636.901 787.853 635.619C786.506 633.192 784.206 631.446 781.433 630.717C784.319 628.166 786.711 625.115 788.366 621.705C790.086 618.161 791.543 613.852 791.956 609.963C792.293 606.804 791.774 603.531 789.969 600.817C788.077 597.969 784.723 596.111 781.822 594.335C786.254 591.012 790.047 586.971 793.165 582.496C799.229 573.795 802.98 562.827 799.9 552.454Z" fill="#16333F"/>
<defs>
<clipPath id="clip0">
<rect width="109.939" height="109.939" fill="white" transform="translate(206.837 725.805) rotate(-122.849)"/>
</clipPath>
<clipPath id="clip1">
<rect width="146.612" height="146.612" fill="white" transform="translate(354.955 401.253)"/>
</clipPath>
<clipPath id="clip2">
<rect width="47" height="47" fill="white" transform="translate(440.955 429.253)"/>
</clipPath>
<clipPath id="clip3">
<rect width="137.793" height="137.793" fill="white" transform="translate(338.419 467.394)"/>
</clipPath>
<clipPath id="clip4">
<rect width="62.6349" height="62.6349" fill="white" transform="translate(388.025 511.683) rotate(-45)"/>
</clipPath>
<clipPath id="clip5">
<rect width="313.078" height="313.078" fill="white" transform="translate(220.96 442.04) rotate(20.0662)"/>
</clipPath>
<clipPath id="clip6">
<rect width="54.0149" height="54.0149" fill="white" transform="translate(400.353 553.503) rotate(24.178)"/>
</clipPath>
<clipPath id="clip7">
<rect width="134.486" height="134.486" fill="white" transform="translate(445.347 350.17) rotate(-19.4676)"/>
</clipPath>
<clipPath id="clip8">
<rect width="178.58" height="178.58" fill="white" transform="translate(608.873 177.982) rotate(12.4362)"/>
</clipPath>
<clipPath id="clip9">
<rect width="90" height="90" fill="white" transform="translate(224.545 328.047)"/>
</clipPath>
</defs>
</svg>
