<svg width="1082" height="1080" viewBox="0 0 1082 1080" fill="none" xmlns="http://www.w3.org/2000/svg">
<g clip-path="url(#clip0)">
<path fill-rule="evenodd" clip-rule="evenodd" d="M455.853 438.556C443.375 396.804 443.5 374.03 443.5 374.03C504.186 426.629 557.261 479.918 631.647 533.449L613.743 555.716C555.6 548.493 533.773 529.653 511.917 511.624C490.062 493.594 468.331 480.309 455.853 438.556Z" fill="#CF8E07"/>
<path fill-rule="evenodd" clip-rule="evenodd" d="M350.087 418.359C344.025 416.611 339.223 412.533 335.684 406.124C320.426 378.501 325.936 363.292 342.242 358.293C358.548 353.294 373.089 363.591 399.068 363.591C400.482 363.591 401.776 363.68 402.951 363.858L416.019 364.606C453.514 492.105 463.854 577.17 447.041 619.801H333.134C322.5 619.801 322.5 619.801 322.5 619.801H291.462C288.541 525.036 302.256 484.459 350.087 418.359Z" fill="#FDC128"/>
<path fill-rule="evenodd" clip-rule="evenodd" d="M361.349 471.769C348.871 430.016 367.481 433.812 367.481 433.812C428.167 486.412 379.567 497.948 453.953 551.479L454.903 572.355L453.953 590.384L450.152 609.363L447.301 619.801C427.346 612.21 418.697 608.815 402.209 578.048C385.721 547.282 373.827 513.522 361.349 471.769Z" fill="black" fill-opacity="0.1"/>
<path fill-rule="evenodd" clip-rule="evenodd" d="M348.856 470.82C348.856 424.323 363.68 394.906 363.68 394.906C424.366 447.506 535.405 496.999 609.791 550.53L591.887 572.797C533.745 565.574 422.595 549.581 402.64 539.142C382.685 528.704 348.856 517.317 348.856 470.82Z" fill="#FDC128"/>
</g>
<path fill-rule="evenodd" clip-rule="evenodd" d="M917 608H618.882V620.385H899.801V979.551H668.568V994H917V608Z" fill="#16333F"/>
<path d="M951 593H601V608H951V593Z" fill="#4CAABC"/>
<rect width="161" height="4" transform="matrix(-1 0 0 1 791 589)" fill="#16333F"/>
<rect x="854.191" y="446.29" width="161" height="2.27022" transform="rotate(114.495 854.191 446.29)" fill="#16333F"/>
<g clip-path="url(#clip1)">
<path fill-rule="evenodd" clip-rule="evenodd" d="M577.976 701.137C594.48 691.097 622.17 703.997 622.151 718.358C622.094 761.324 583.393 963.825 581.373 976.626C579.352 989.427 557.706 992.808 556.446 976.668C554.44 950.986 550.714 862.079 554.442 820.928C555.981 803.941 557.638 787.764 559.27 773.331C538.962 810.489 507.555 863.689 465.049 932.932L441.974 922.25C460.094 861.761 474.953 819.056 486.549 794.138C506.405 751.471 525.024 714.933 532.859 702.063C545.185 681.818 566.64 688.882 577.976 701.137Z" fill="#C81E2A"/>
<path fill-rule="evenodd" clip-rule="evenodd" d="M451.056 887.389C451.056 887.389 463.237 859.982 472.373 801.108C472.373 770.657 508.441 733.082 522.824 698.562C541.797 667.638 594.993 704.854 588.523 722.79C573.833 763.509 499.125 895.335 494.748 907.467L451.056 887.389Z" fill="#5CA58D"/>
<path fill-rule="evenodd" clip-rule="evenodd" d="M439.176 910.209C434.252 914.291 431.05 917.629 429.569 920.221C427.769 923.374 425.664 928.281 423.253 934.941C426.886 937.072 459.533 956.221 521.194 992.388C528.576 985.409 529.719 979.974 524.621 976.082C519.523 972.19 515.316 968.908 512 966.236L478.145 919.102C477.494 918.195 476.241 917.989 475.347 918.642C475.332 918.653 475.316 918.665 475.302 918.676L468.295 924.107C461.857 923.514 457.051 922.287 453.877 920.426C451.298 918.913 448.336 915.776 444.99 911.014L444.99 911.014C443.706 909.186 441.204 908.748 439.403 910.035C439.325 910.09 439.249 910.148 439.176 910.209Z" fill="#16333F"/>
<path fill-rule="evenodd" clip-rule="evenodd" d="M551.378 966.364C549.136 972.427 548.015 976.964 548.015 979.974C548.015 983.634 548.617 988.977 549.821 996C554.012 996 591.683 996 662.831 996C665.768 986.163 664.073 980.852 657.746 980.068C651.418 979.284 646.162 978.575 641.977 977.943L589.451 954.218C588.44 953.761 587.256 954.221 586.805 955.245C586.797 955.263 586.79 955.281 586.783 955.298L583.406 963.597C577.549 966.366 572.789 967.75 569.127 967.75C566.152 967.75 562.043 966.533 556.8 964.098L556.8 964.098C554.788 963.163 552.41 964.058 551.487 966.096C551.448 966.184 551.411 966.274 551.378 966.364Z" fill="#16333F"/>
<path fill-rule="evenodd" clip-rule="evenodd" d="M626.609 733.053C626.609 787.053 603.448 913.013 603.434 924.903L553.602 924.946C548.506 872.163 548.506 836.636 548.506 811.259C548.506 785.883 561.498 769.91 552.02 764.5C548.839 762.684 430.931 768.607 392.767 768.607C337.734 768.607 278.011 733.053 313.121 659H422.138C444.335 661.63 560.116 687.487 603.115 696.376C621.524 700.182 626.609 718.178 626.609 733.053Z" fill="#6EC7AA"/>
</g>
<path fill-rule="evenodd" clip-rule="evenodd" d="M627.109 537.251L637.882 538.545C657.002 541.651 673.142 546.182 686.302 552.136C689.485 554.412 693.509 559.232 681.132 559.415C668.755 559.598 655.738 560.313 654.378 564.395C653.017 568.476 660.864 572.533 657.887 578.139C655.902 581.876 644.337 573.944 623.19 554.342L615.171 552.592L627.109 537.251Z" fill="#AF1923"/>
<path fill-rule="evenodd" clip-rule="evenodd" d="M603.432 557.276L624.258 563.889C642.916 569.095 641.938 571.499 654.362 578.878C658.157 583.442 670.493 590.347 658.175 589.16C645.857 587.974 632.717 578.482 630.919 582.392C629.12 586.302 639.342 586.432 635.772 591.68C633.391 595.179 620.596 589.278 597.668 573.846L591.557 572.277L603.432 557.276Z" fill="#C81E2A"/>
<g clip-path="url(#clip2)">
<path fill-rule="evenodd" clip-rule="evenodd" d="M389.631 307.825C378.536 296.845 371.026 283.389 372.281 268.312C375.896 224.869 447.63 234.426 461.584 256.352C475.537 278.278 473.879 333.896 455.845 337.815C448.654 339.378 433.333 335.549 417.74 327.626L426.465 365.7L387.105 360.625L389.631 307.825Z" fill="#C81E2A"/>
<path fill-rule="evenodd" clip-rule="evenodd" d="M438.757 232.471C430.86 230.441 419.397 229.753 414.575 230.218C417.318 224.678 418.406 218.505 417.519 212.494C416.656 206.654 413.561 201.681 410.698 196.47C409.378 194.068 407.883 191.679 405.653 189.842C403.381 187.97 400.506 186.735 397.491 186.145C394.406 185.542 391.179 185.592 388.089 186.14C386.722 186.382 385.495 186.909 384.155 187.202C382.782 187.502 382.116 186.777 381.119 186.049C378.718 184.295 375.197 183.429 372.159 183.119C368.75 182.772 365.213 183.205 361.962 184.15C358.798 185.069 355.758 186.563 353.47 188.738C352.451 189.707 351.527 190.809 350.926 192.026C350.679 192.526 350.638 192.821 350.047 193.004C349.5 193.174 348.861 193.179 348.297 193.34C342.841 194.898 338.176 198.452 335.636 203.015C334.154 205.677 333.452 210.364 333.644 215.617C333.837 220.871 339.463 234.578 344.726 239.578C349.423 244.041 356.328 246.986 362.992 248.275C358.569 252.537 355.625 257.863 353.447 263.28C351.082 269.163 349.619 275.277 349.078 281.506C348.565 287.424 348.517 293.683 350.163 299.475C351.703 304.891 354.995 309.334 360.492 312.153C363.009 313.445 365.718 314.415 368.443 315.301C371.128 316.175 373.821 317.024 376.634 317.515C381.957 318.442 388.09 318.283 392.191 314.711C393.668 313.423 395.294 311.805 396.372 310.232C396.76 309.666 396.993 309.296 396.522 308.743C395.958 308.081 395.045 307.574 394.321 307.056C390.187 304.102 387.629 300.158 386.984 295.472C386.329 290.717 387.844 284.58 393.328 282.505C400.097 279.943 407.552 282.883 413.568 285.624C416.125 278.016 421.375 271.166 429.606 267.676C438.713 263.815 449.162 263.364 458.521 260.051C460.959 259.188 463.443 258.208 465.239 256.449C465.989 255.714 466.869 254.76 467.169 253.788C467.562 252.511 466.585 251.44 465.83 250.445C461.829 245.166 446.654 234.501 438.757 232.471Z" fill="#16333F"/>
</g>
<g clip-path="url(#clip3)">
<path d="M186.344 316C126.587 316 78.1445 267.647 78.1445 208C78.1445 148.353 126.587 100 186.344 100C246.102 100 294.544 148.353 294.544 208C294.544 267.647 246.102 316 186.344 316Z" fill="#4CAABC"/>
<path d="M186.344 128.528C182.962 128.528 180.22 125.791 180.22 122.415C180.22 119.039 182.962 116.302 186.344 116.302C189.727 116.302 192.469 119.039 192.469 122.415C192.469 125.791 189.727 128.528 186.344 128.528Z" fill="black" fill-opacity="0.1"/>
<path d="M272.088 214.113C268.705 214.113 265.963 211.376 265.963 208C265.963 204.624 268.705 201.887 272.088 201.887C275.47 201.887 278.212 204.624 278.212 208C278.212 211.376 275.47 214.113 272.088 214.113Z" fill="black" fill-opacity="0.1"/>
<path d="M100.601 214.113C97.2186 214.113 94.4766 211.376 94.4766 208C94.4766 204.624 97.2186 201.887 100.601 201.887C103.984 201.887 106.726 204.624 106.726 208C106.726 211.376 103.984 214.113 100.601 214.113Z" fill="black" fill-opacity="0.1"/>
<path d="M186.344 299.698C182.962 299.698 180.22 296.961 180.22 293.585C180.22 290.209 182.962 287.472 186.344 287.472C189.727 287.472 192.469 290.209 192.469 293.585C192.469 296.961 189.727 299.698 186.344 299.698Z" fill="black" fill-opacity="0.1"/>
<path fill-rule="evenodd" clip-rule="evenodd" d="M186.344 134.642L182.261 205.962H190.427L186.344 134.642Z" fill="#16333F"/>
<path fill-rule="evenodd" clip-rule="evenodd" d="M150.213 244.065L187.746 212.365L181.971 206.602L150.213 244.065Z" fill="#16333F"/>
<path d="M186.344 216.151C181.834 216.151 178.178 212.502 178.178 208C178.178 203.498 181.834 199.849 186.344 199.849C190.854 199.849 194.51 203.498 194.51 208C194.51 212.502 190.854 216.151 186.344 216.151Z" fill="#16333F"/>
</g>
<g clip-path="url(#clip4)">
<path fill-rule="evenodd" clip-rule="evenodd" d="M515.627 766H282.849C264.963 766 250.463 779.287 250.463 795.677V966.323C250.463 982.713 264.963 996 282.849 996H515.627C533.513 996 548.013 982.713 548.013 966.323V795.677C548.013 779.287 533.513 766 515.627 766ZM483.24 817.935C487.712 817.935 491.337 821.257 491.337 825.355V936.645C491.337 940.743 487.712 944.065 483.24 944.065H315.236C310.764 944.065 307.139 940.743 307.139 936.645V825.355C307.139 821.257 310.764 817.935 315.236 817.935H483.24Z" fill="#4CAABC"/>
</g>
<defs>
<clipPath id="clip0">
<rect width="401" height="353" fill="white" transform="translate(243 356)"/>
</clipPath>
<clipPath id="clip1">
<rect width="383.709" height="337" fill="white" transform="translate(280.519 659)"/>
</clipPath>
<clipPath id="clip2">
<rect width="137.254" height="203" fill="white" transform="translate(333.617 183)"/>
</clipPath>
<clipPath id="clip3">
<rect width="216.4" height="216" fill="white" transform="matrix(-1 0 0 1 294.544 100)"/>
</clipPath>
<clipPath id="clip4">
<rect width="297.55" height="230" fill="white" transform="matrix(-1 0 0 1 548.013 766)"/>
</clipPath>
</defs>
</svg>
