<svg width="1057" height="1080" viewBox="0 0 1057 1080" fill="none" xmlns="http://www.w3.org/2000/svg">
<g id="work">
<g id="Instagram post - 4">
<g id="blob">
<path id="blob_2" fill-rule="evenodd" clip-rule="evenodd" d="M195 719.263C145.707 600.26 215.351 597.89 239.129 521.218C257.358 433.163 221.074 402.5 239.129 314.433C254.443 239.739 358.452 193.726 438.911 168.523C516.19 144.316 598.976 154.585 669.964 179.478C731.707 201.129 778.864 246.199 809.917 298.621C835.337 341.536 809.425 390.555 840.844 429.718C886.808 487.012 981.344 481.218 946.843 566.719C960.089 628.063 930.808 664.79 886.867 719.263C842.427 774.354 822.157 752.914 760.5 792C695.646 833.113 615.965 821.626 542 816.004C469.052 810.458 396.495 839.96 334 810C263.567 776.235 225.129 792 195 719.263Z" fill="#6EC7AA"/>
</g>
<g id="Symbols">
<g id="Scene/Home">
<g id="Big Leaf Plant">
<g id="Big Ass Leaf">
<path id="leaf" fill-rule="evenodd" clip-rule="evenodd" d="M737.258 568.173C740.123 567.823 743.18 567.947 745.844 569.077C751.509 571.482 753.119 578.174 753.041 583.614C752.957 589.468 751.714 595.863 756.165 600.58C758.211 602.748 760.756 604.408 762.765 606.617C764.912 608.977 766.597 611.677 767.844 614.577C770.134 619.903 771.258 626.167 769.164 631.754C767.32 636.674 762.681 641.114 763.683 646.708C764.729 652.543 770.612 657.004 774.29 661.351C778.453 666.269 782.286 672.556 782.916 679.006C783.519 685.188 780.828 691.44 776.699 696.113C768.448 705.451 756.045 710.028 743.54 710C738.23 709.988 732.219 709.748 727.637 706.895C726.22 706.013 725.473 705.023 724.631 703.648C723.877 702.414 722.88 701.612 721.725 700.739C719.19 698.822 717.359 696.239 716.19 693.347C711.652 682.114 715.279 668.218 721.631 658.243C723.136 655.88 724.369 653.605 723.637 650.789C722.874 647.848 720.999 645.196 719.34 642.669C717.701 640.17 715.83 637.787 714.549 635.087C713.207 632.257 712.829 629.294 713.066 626.198C713.512 620.381 716.023 615.013 719.578 610.336C723.002 605.83 727.022 601.518 727.031 595.615C727.041 589.357 722.858 583.791 724.64 577.429C725.378 574.795 726.86 572.092 729.249 570.513C731.539 568.998 734.564 568.502 737.258 568.173Z" fill="#16333F"/>
<path id="middle thing" fill-rule="evenodd" clip-rule="evenodd" d="M735.386 578.176C735.44 577.336 736.437 576.832 737.222 577.051C738.254 577.34 738.235 578.305 738.207 579.165C738.124 581.808 738.506 584.377 739.142 586.942C740.462 592.274 742.903 597.186 744.836 602.308C746.768 607.425 747.675 612.709 746.542 618.124C745.473 623.23 743.795 628.203 742.701 633.315C741.738 637.821 740.712 642.573 742.18 647.067C743.592 651.393 746.714 654.916 748.962 658.825C753.617 666.918 755.681 675.896 755.957 685.135C756.085 689.425 755.97 693.755 754.975 697.963C754.402 700.386 753.632 703.66 751.556 705.333C750.599 706.105 748.961 706.371 748.155 705.229C747.399 704.158 748.062 702.499 748.303 701.357C749.343 696.413 749.552 691.361 749.303 686.342C749.062 681.48 748.487 676.626 746.957 671.982C745.537 667.673 743.379 663.802 740.84 660.032C738.252 656.191 735.562 652.341 734.493 647.789C733.406 643.166 734.289 638.462 735.469 633.927C736.717 629.131 738.352 624.472 740.042 619.805C741.689 615.258 742.272 610.955 741.363 606.196C739.567 596.794 734.76 587.968 735.386 578.176Z" fill="#C5CFD6" fill-opacity="0.5"/>
</g>
<g id="Big Ass Leaf_2">
<path id="leaf_2" fill-rule="evenodd" clip-rule="evenodd" d="M812.892 579.582C816.437 580.659 819.958 582.395 822.485 585.118C827.858 590.909 826.209 599.661 823.243 606.053C820.05 612.933 815.212 619.849 817.94 627.743C819.193 631.372 821.301 634.659 822.49 638.316C823.761 642.224 824.309 646.294 824.239 650.372C824.11 657.862 822.118 665.855 816.708 671.373C811.945 676.232 804.158 679.07 802.377 686.206C800.518 693.651 805.061 701.988 807.078 709.041C809.36 717.024 810.533 726.453 807.862 734.409C805.303 742.034 798.842 748.028 791.528 751.406C776.915 758.156 759.949 757.117 745.296 750.578C739.075 747.801 732.151 744.391 728.285 738.633C727.09 736.853 726.736 735.294 726.476 733.23C726.243 731.378 725.497 729.911 724.605 728.278C722.644 724.692 721.862 720.684 722.02 716.656C722.634 701.011 734.234 686.464 746.956 677.972C749.971 675.96 752.618 673.912 753.249 670.2C753.909 666.325 753.111 662.213 752.501 658.361C751.899 654.554 750.964 650.763 750.889 646.902C750.811 642.858 751.933 639.157 753.848 635.619C757.445 628.972 763.227 623.93 769.87 620.247C776.267 616.7 783.262 613.692 786.393 606.715C789.712 599.32 787.747 590.561 793.2 583.964C795.458 581.233 798.625 578.807 802.262 578.182C805.749 577.583 809.558 578.57 812.892 579.582Z" fill="#16333F"/>
<path id="middle thing_2" fill-rule="evenodd" clip-rule="evenodd" d="M805.651 591.811C806.154 590.844 807.584 590.769 808.387 591.44C809.443 592.324 808.914 593.456 808.432 594.46C806.95 597.547 806.052 600.789 805.452 604.159C804.204 611.166 804.485 618.262 804.063 625.341C803.642 632.414 801.935 639.147 797.774 644.965C793.85 650.452 789.283 655.462 785.327 660.943C781.841 665.773 778.153 670.863 777.516 676.954C776.901 682.817 778.707 688.626 779.288 694.434C780.492 706.457 778.204 718.171 773.688 729.257C771.591 734.405 769.189 739.472 765.821 743.933C763.882 746.503 761.267 749.977 757.963 750.869C756.44 751.281 754.385 750.739 754.042 748.964C753.718 747.298 755.363 745.682 756.242 744.455C760.047 739.146 762.938 733.273 765.275 727.198C767.54 721.314 769.41 715.265 770.053 708.963C770.649 703.116 770.153 697.401 769.158 691.606C768.144 685.701 767.015 679.731 768.149 673.781C769.3 667.736 772.795 662.628 776.55 657.876C780.521 652.85 784.873 648.19 789.293 643.549C793.6 639.027 796.536 634.238 797.966 628.126C800.79 616.049 799.791 603.078 805.651 591.811Z" fill="#C5CFD6" fill-opacity="0.5"/>
</g>
<g id="Big Ass Leaf_3">
<path id="leaf_3" fill-rule="evenodd" clip-rule="evenodd" d="M703.306 624C709.2 624 714.382 627.124 717.953 631.558C722.133 636.748 722.977 643.086 724.675 649.272C725.519 652.35 726.972 655.406 729.517 657.498C731.833 659.4 734.772 659.78 737.543 660.71C743.082 662.567 747.555 667.041 749.321 672.499C751.476 679.158 749.193 685.873 749.586 692.622C749.947 698.819 756.058 702.685 760.974 705.656C765.821 708.586 770.189 711.328 771.649 717.035C773.197 723.088 773.716 729.844 771.572 735.823C768.002 745.779 757.552 750.163 747.456 750.842C738.293 751.459 726.772 750.491 719.891 743.84C715.773 739.86 714.282 734.293 714.467 728.755C714.582 725.311 715.264 721.899 716.146 718.571C716.771 716.213 717.616 713.864 717.856 711.427C718.496 704.942 712.503 703.697 707.401 701.916C700.918 699.654 696.38 695.38 693.224 689.425C690.285 683.881 689.052 677.658 690.814 671.554C691.714 668.437 693.346 665.61 695.559 663.205C696.533 662.146 697.907 661.263 698.786 660.151C699.607 659.112 699.428 657.766 699.145 656.55C697.837 650.931 693.762 646.278 692.305 640.668C690.989 635.605 691.767 629.304 696.395 626.038C698.395 624.627 700.862 624.016 703.306 624Z" fill="#16333F"/>
<path id="middle thing_3" fill-rule="evenodd" clip-rule="evenodd" d="M711.338 638.641C717.585 645.296 719.283 654.325 719.781 663.076C720.061 667.983 719.77 673.159 721.212 677.919C722.445 681.993 725.337 685.107 728.318 688.051C734.319 693.975 741.011 699.999 742.766 708.574C743.796 713.606 743.101 718.804 744.524 723.78C745.817 728.304 748.096 732.748 750.867 736.568C753.098 739.645 756.004 742 758.443 744.867C759.187 745.743 760.253 747.031 759.946 748.267C759.586 749.714 757.743 750.172 756.435 749.945C753.386 749.415 750.819 746.503 748.825 744.386C745.91 741.291 743.432 737.962 741.419 734.227C739.183 730.08 737.383 725.679 736.614 721.026C735.816 716.199 736.213 711.168 734.391 706.535C731.324 698.74 723.886 694.14 718.508 688.064C711.808 680.494 712.807 671.072 713.493 661.759C713.87 656.641 714.245 650.862 711.659 646.189C710.672 644.406 708.471 642.743 708.047 640.715C707.658 638.858 709.78 636.981 711.338 638.641Z" fill="#AFB9C5" fill-opacity="0.5"/>
</g>
<path id="Base" fill-rule="evenodd" clip-rule="evenodd" d="M718 748C718 786.058 724.211 806 757 806C789.789 806 796 786.058 796 748H718Z" fill="#AF1923"/>
</g>
</g>
</g>
<g id="Frame" clip-path="url(#clip0)">
<g id="Symbols_2">
<g id="Scene/Plants">
<g id="Top Leaves">
<path id="Leaf" fill-rule="evenodd" clip-rule="evenodd" d="M658.976 334.937C662.882 318.996 672.053 306.519 681.573 295.087C700.106 272.831 710.074 259.071 716.68 226.515C720.564 207.368 724.518 187.078 736.839 173.187C745.81 163.071 761.251 154.572 773.248 161.816C791.705 175.294 796.662 202.955 794.801 227.723C792.494 258.422 780.773 277.351 758.257 288.658C745.57 295.026 737.137 303.429 730.25 318.071C724.741 329.778 721.529 344.439 714.606 355.053C704.257 370.919 691.306 377.972 675.342 375.336C690.294 341.677 707.764 307.702 728.836 279.362C730.808 276.513 742.442 265.608 740.096 260.752C737.511 255.406 725.568 275.489 725.652 275.368C719.529 283.968 713.862 293.107 708.298 302.333C708.312 302.342 708.329 302.347 708.344 302.357C702.615 311.825 696.932 321.432 691.357 331.159C689.102 335.274 686.908 339.441 684.807 343.713C681.724 349.982 676.831 367.773 671.787 371.627C670.707 372.451 669.709 372.912 668.776 373.102C665.334 379.997 661.985 386.948 658.8 393.98C650.482 412.348 643.342 431.742 640.065 452.48C639.109 458.532 639.786 481.173 636.409 485.542C630.235 493.534 632.043 478.144 632.413 473.499C635.479 435.03 646.767 402.257 663.156 369.917C658.121 361.872 657.394 341.396 658.976 334.937Z" fill="#16333F"/>
<path id="Leaf_2" fill-rule="evenodd" clip-rule="evenodd" d="M870.435 353.524C863.926 344.141 848.28 342.549 838.71 343.177C826.869 343.954 814.707 347.481 803.441 351.745C784.883 358.769 766.851 371.587 750.507 383.994C748.537 385.489 724.271 403.343 726.419 406.476C728.547 409.581 752.368 388.373 757.677 384.717C769.006 376.915 779.396 367.688 791.884 362.535C804.814 357.199 818.489 355.086 832.086 355.232C833.831 355.251 839.523 353.763 839.646 356.921C839.766 360.01 830.348 358.399 828.687 358.417C821.827 358.494 814.925 359.284 808.163 360.739C795.493 363.463 783.582 368.953 772.731 377.372C775.758 385.985 783.017 389.957 790.631 387.801C797.212 385.937 803.627 381.342 810.071 380.013C814.509 379.099 818.952 379.643 823.256 381.173C834.607 385.209 841.154 393.478 853.635 387.726C863.42 383.217 879.783 367.017 870.435 353.524Z" fill="#16333F"/>
<path id="Leaf Me Alone!" fill-rule="evenodd" clip-rule="evenodd" d="M863.073 264.728H859.994C860.21 259.947 860.491 255.174 861.151 250.446C863.626 232.725 871.366 206.698 888.341 203.821C888.967 203.714 891.271 203.696 894.061 203.894C895.384 203 896.865 202.459 898.426 202.335C912.878 201.045 929.018 215.157 935.989 229.843C941.609 241.684 940.662 257.232 937.191 269.812C934.867 278.234 929.794 290.241 921.334 290.358C910.749 290.505 910.239 274.671 910.034 265.414C909.762 253.108 908.477 242.387 900.465 233.999C898.598 232.045 896.557 230.326 894.671 228.399C891.718 225.383 888.454 222.294 888.074 217.304C887.548 210.42 890.759 209.181 895.661 210.46C896.497 210.678 904.914 215.25 903.668 211.636C903.287 210.532 901.898 209.657 900.144 209.002C895.604 208.405 890.191 207.712 888.634 208.126C871.839 212.585 865.3 240.744 863.564 258.634C863.367 260.66 863.21 262.692 863.073 264.728H863.073Z" fill="#16333F"/>
</g>
</g>
</g>
</g>
<path id="Union" fill-rule="evenodd" clip-rule="evenodd" d="M302.635 724H253.846L234 808H320L316.478 790.965C333.77 783.599 344.33 768.791 340.794 755.291C337.447 742.514 322.519 734.905 305.089 735.871L302.635 724ZM307.621 748.122L314.744 782.575C323.625 777.262 328.642 768.805 326.599 761.004C324.684 753.694 317.083 748.921 307.621 748.122Z" fill="#5CA58D"/>
</g>
<g id="real head">
<g id="head">
<path id="Ellipse 3" d="M591.119 502.197C574.375 541.724 532.817 551.493 488 539.481C471.07 534.944 458.114 526.222 448.907 516.331C433.742 500.041 428.75 480.583 432.922 471.436C439.628 456.736 422.518 428.156 432.922 418.84C443.326 409.525 439.029 406.918 444.996 389.861C448.798 378.99 464.218 366.304 471.474 360.149C487.555 346.51 510.9 356.966 529.816 370.266C541.596 378.548 542.135 393.564 553.258 398.729C564.38 403.894 573.8 398.762 582.261 410.648C589.699 421.096 597.688 439.35 595.371 447.995C590.418 466.474 607.863 462.67 591.119 502.197Z" fill="#16333F"/>
<path id="Ellipse 1" d="M548.341 439.844C545.314 477.376 523.458 509.037 506.937 509.151C490.417 509.265 478.786 464.943 475.811 446.617C472.836 428.292 481.756 394.174 505.371 394.846C528.986 395.518 549.199 397.897 548.341 439.844Z" fill="#C81E2A"/>
</g>
<g id="neck">
<g id="Group 5">
<path id="Vector 1" d="M492.14 530.273C492.14 530.273 500.432 496.511 499.868 477.272L527.085 470.163C531.595 473.631 538.29 482.585 528.984 490.66C519.678 498.734 526.629 521.961 531.267 532.565L545.971 543.294C542.467 549.868 530.651 564.88 511.417 572.336C492.183 579.791 474.778 554.202 468.479 540.475C468.106 537.265 492.14 530.273 492.14 530.273Z" fill="#C81E2A"/>
</g>
</g>
</g>
<g id="torso">
<path id="Intersect" fill-rule="evenodd" clip-rule="evenodd" d="M451.764 804.667V541.81C398.266 542.324 355 610.232 355 693.926C355 777.62 398.266 804.465 451.764 804.667Z" fill="#16333F"/>
<path id="Intersect_2" fill-rule="evenodd" clip-rule="evenodd" d="M574.952 805V542.142C627.255 542.657 669.555 610.565 669.555 694.258C669.555 777.952 627.255 804.797 574.952 805Z" fill="#16333F"/>
<path id="Rectangle 9" d="M362.095 635.563H668.374L642.949 804.666H383.972L362.095 635.563Z" fill="#FDC128"/>
<path id="Polygon 1" d="M518.782 715.976L527.487 732.827H510.077L518.782 715.976Z" fill="#CF8E07"/>
</g>
<path id="Rectangle 11" d="M163 805H829V824H163V805Z" fill="#CF8E07"/>
</g>
<defs>
<clipPath id="clip0">
<rect width="309" height="330" fill="white" transform="matrix(-1 0 0 1 940 159)"/>
</clipPath>
</defs>
</svg>
